<?xml version="1.0" encoding="UTF-8" standalone="no"?><!DOCTYPE svg PUBLIC "-//W3C//DTD SVG 1.1//EN" "http://www.w3.org/Graphics/SVG/1.1/DTD/svg11.dtd"><svg width="100%" height="100%" viewBox="0 0 210 281" version="1.1" xmlns="http://www.w3.org/2000/svg" xmlns:xlink="http://www.w3.org/1999/xlink" xml:space="preserve" xmlns:serif="http://www.serif.com/" style="fill-rule:evenodd;clip-rule:evenodd;stroke-linecap:round;stroke-linejoin:round;stroke-miterlimit:1.5;"><g id="Coloured"><g id="Glass"><g><g><path d="M8.494,144.031C8.494,141.491 15.348,146.535 24.337,146.735C35.972,146.994 42.999,135.041 59.119,135.112C69.94,135.16 79.141,141.185 79.141,144.031C79.141,147.337 78.686,150.538 77.835,153.574C73.667,168.44 60.007,179.355 43.818,179.355C24.322,179.355 8.494,163.527 8.494,144.031Z" style="fill:#eb4034;"/><path d="M8.494,144.031C8.494,141.491 15.348,146.535 24.337,146.735C35.972,146.994 42.999,135.041 59.119,135.112C69.94,135.16 79.141,141.185 79.141,144.031C79.141,147.337 78.686,150.538 77.835,153.574C73.667,168.44 60.007,179.355 43.818,179.355C24.322,179.355 8.494,163.527 8.494,144.031Z" style="fill:#0e334f;fill-opacity:0.5;"/></g><path d="M79.141,144.031C79.141,141.491 72.288,146.535 63.298,146.735C51.663,146.994 44.637,135.041 28.516,135.112C17.696,135.16 8.494,141.185 8.494,144.031C8.494,147.337 8.949,150.538 9.801,153.574C13.968,168.44 27.628,179.355 43.818,179.355C63.313,179.355 79.141,163.527 79.141,144.031Z" style="fill:#eb4034;"/></g><path d="M46.917,187.672C46.917,185.759 45.363,184.205 43.449,184.205C41.536,184.205 39.982,185.759 39.982,187.672L39.982,243.042C39.982,244.956 41.536,246.509 43.449,246.509C45.363,246.509 46.917,244.956 46.917,243.042L46.917,187.672Z" style="fill:none;stroke:#c5d4e0;stroke-width:5px;"/><g><clipPath id="_clip1"><path d="M17.166,106.889C9.291,120.989 3.013,135.742 3.013,145.322C3.013,167.639 21.132,185.758 43.449,185.758C65.767,185.758 83.886,167.639 83.886,145.322C83.886,135.742 77.504,121.047 69.732,106.889C69.067,107.069 55.367,111.072 43.035,111.287C31.719,111.485 16.904,106.823 17.166,106.889Z"/></clipPath><g clip-path="url(#_clip1)"><path d="M60.109,100.462C59.621,100.5 59.497,100.499 59.013,100.578C53.257,101.517 49.209,108.364 51.491,113.979C52.137,115.567 52.429,115.832 52.833,116.584C57.734,125.743 62.753,135.06 64.576,145.327C67.351,160.96 53.469,178.613 35.501,179.297C34.601,179.331 33.73,179.337 33.73,179.337C27.017,179.924 22.389,187.936 25.726,193.928C29.499,200.704 40.209,199.527 49.253,196.711C70.123,190.214 86.111,168.702 84.485,146.265C83.793,136.719 80.026,127.596 75.91,118.747C73.944,114.518 71.817,110.366 69.599,106.264C69.599,106.264 68.185,103.461 65.879,101.991C64.178,100.906 62.173,100.417 60.109,100.462Z" style="fill:#0e334f;fill-opacity:0.2;fill-rule:nonzero;"/><path d="M32.144,100.462C32.633,100.5 32.756,100.499 33.24,100.578C38.996,101.517 43.044,108.364 40.762,113.979C40.116,115.567 39.824,115.832 39.42,116.584C34.519,125.743 29.5,135.06 27.678,145.327C24.902,160.96 38.784,178.613 56.752,179.297C57.652,179.331 58.523,179.337 58.523,179.337C65.236,179.924 69.864,187.936 66.527,193.928C62.754,200.704 52.044,199.527 43.001,196.711C22.13,190.214 6.142,168.702 7.768,146.265C8.46,136.719 12.227,127.596 16.343,118.747C18.31,114.518 20.436,110.366 22.654,106.264C22.654,106.264 24.068,103.461 26.375,101.991C28.075,100.906 30.08,100.417 32.144,100.462Z" style="fill:#f7fff7;fill-opacity:0.35;fill-rule:nonzero;"/></g></g><path d="M17.166,106.889C9.439,121.071 3.013,135.742 3.013,145.322C3.013,167.639 21.132,185.758 43.449,185.758C65.767,185.758 83.886,167.639 83.886,145.322C83.886,135.742 77.46,121.071 69.732,106.889" style="fill:none;stroke:#c5d4e0;stroke-width:5px;stroke-dasharray:160,25,10,25;"/><path d="M55.735,185.48C65.025,182.118 22.411,181.96 31.099,185.469C35.074,187.074 38.619,187.575 43.464,187.575C47.865,187.575 52.03,186.822 55.735,185.48Z" style="fill:none;stroke:#c5d4e0;stroke-width:5px;"/><ellipse cx="43.449" cy="107.236" rx="26.012" ry="3.509" style="fill:none;stroke:#c5d4e0;stroke-width:5px;stroke-dasharray:25,15,10,15;"/><ellipse cx="43.449" cy="249.698" rx="32.925" ry="3.423" style="fill:none;stroke:#c5d4e0;stroke-width:5px;"/><ellipse cx="43.449" cy="246.298" rx="12.549" ry="1.42" style="fill:none;stroke:#c5d4e0;stroke-width:5px;"/></g><g id="Bottle"><path d="M151.224,12.151L147.744,12.151L147.744,5.53C147.744,1.909 179.887,1.909 179.887,5.53L179.887,12.158L176.064,12.157L176.064,47.878C176.324,50.123 176.627,55.725 177.132,57.739C184.644,87.668 199.3,97.148 199.3,117.489C199.3,118.899 199.272,120.298 199.217,121.684C199.275,122.602 199.304,123.528 199.304,124.462L199.304,233.513C199.304,255.474 181.301,259.679 163.061,259.679C144.821,259.679 126.818,255.474 126.818,233.513L126.818,124.462C126.818,123.528 126.847,122.602 126.905,121.684C126.85,120.298 126.822,118.899 126.822,117.489C126.822,96.848 141.995,87.9 149.645,57.59C150.396,54.618 150.755,50.926 151.224,47.464L151.224,12.151Z" style="fill:#154d78;"/><path d="M126.818,214.606C126.818,214.415 145.318,209.594 163.625,209.604C181.557,209.615 199.304,214.454 199.304,214.606L199.304,233.513C199.304,255.474 183.064,259.679 163.061,259.679C143.058,259.679 126.818,255.474 126.818,233.513L126.818,214.606Z" style="fill:#eb4034;"/><path d="M126.818,214.606C126.818,214.415 145.318,209.594 163.625,209.604C181.557,209.615 199.304,214.454 199.304,214.606L199.304,233.513C199.304,255.474 183.064,259.679 163.061,259.679C143.058,259.679 126.818,255.474 126.818,233.513L126.818,214.606Z" style="fill:#0e334f;fill-opacity:0.5;"/><path d="M197.949,242.324C197.949,253.823 181.301,259.679 163.061,259.679C144.821,259.679 128.851,255.269 128.851,242.324C128.851,242.324 139.856,233.889 162.557,233.513C184.491,233.149 197.949,242.324 197.949,242.324Z" style="fill:#0e334f;fill-opacity:0.2;"/><g><g><clipPath id="_clip2"><path d="M151.224,12.151L147.744,12.151L147.744,5.53C147.744,1.909 179.887,1.909 179.887,5.53L179.887,12.158L176.064,12.157L176.064,47.878C176.324,50.123 176.627,55.725 177.132,57.739C184.644,87.668 199.3,97.148 199.3,117.489C199.3,118.899 199.272,120.298 199.217,121.684C199.275,122.602 199.304,123.528 199.304,124.462L199.304,233.513C199.304,255.474 181.301,259.679 163.061,259.679C144.821,259.679 126.818,255.474 126.818,233.513L126.818,124.462C126.818,123.528 126.847,122.602 126.905,121.684C126.85,120.298 126.822,118.899 126.822,117.489C126.822,96.848 141.995,87.9 149.645,57.59C150.396,54.618 150.755,50.926 151.224,47.464L151.224,12.151Z"/></clipPath><g clip-path="url(#_clip2)"><path d="M157.679,53.906L163.786,53.303C163.212,61.889 160.911,70.168 158.368,78.475C152.559,97.454 149.076,101.173 147.936,120.968C147.582,127.113 148.106,217.774 148.191,247.005C148.225,250.921 148.845,255.261 152.313,257.227C156.955,259.859 167.502,259.865 172.895,260.022C174.631,260.072 176.367,260.089 178.103,260.095L179.018,260.096L181.451,260.393C186.724,262.397 190.747,267.999 188.515,273.874C187.34,276.967 184.599,279.358 181.438,280.135C180.032,280.481 178.577,280.433 177.09,280.424C164.048,280.35 149.947,279.899 140.486,269.802C134.917,263.858 132.673,255.333 132.603,247.123C132.518,217.825 132.512,122.428 132.866,118.577C133.752,108.926 136.309,102.614 146.625,84.623C151.259,76.543 157.215,61.494 157.679,53.906Z" style="fill:#f7fff7;fill-opacity:0.34;fill-rule:nonzero;"/><path d="M181.211,28.413C181.211,24.301 179.906,20.963 175.795,20.963L150.969,20.963C146.858,20.963 146.231,24.301 146.231,28.413L146.231,43.311C146.231,47.423 146.858,50.761 150.969,50.761L176.472,50.761C180.584,50.761 181.211,47.423 181.211,43.311L181.211,28.413Z" style="fill:#a7daf2;"/><path d="M181.211,28.413C181.211,24.301 179.906,20.963 175.795,20.963C175.795,20.963 167.774,20.963 163.636,20.963C159.499,20.963 150.969,20.963 150.969,20.963C146.858,20.963 146.231,24.301 146.231,28.413L146.231,43.311C146.231,47.423 146.858,50.761 150.969,50.761C150.969,50.761 159.321,52.116 163.571,52.116C167.822,52.116 176.472,50.761 176.472,50.761C180.584,50.761 181.211,47.423 181.211,43.311L181.211,28.413Z" style="fill:none;stroke:#0e334f;stroke-width:5px;"/><path d="M154.695,204.714C154.695,210.629 149.246,213.868 144.362,215.431C138.784,217.218 126.392,217.218 121.226,215.431C116.861,213.922 113.364,210.629 113.364,204.714L113.364,154.059C113.364,148.144 116.861,144.851 121.226,143.342C126.392,141.556 138.784,141.556 144.362,143.342C149.246,144.906 154.695,148.144 154.695,154.059L154.695,204.714Z" style="fill:#a7daf2;"/><path d="M158.762,210.136C158.762,216.051 153.313,219.29 148.429,220.854C142.851,222.64 130.459,222.64 125.293,220.854C120.928,219.344 117.431,216.051 117.431,210.136L117.431,159.481C117.431,153.566 120.928,150.273 125.293,148.764C130.459,146.978 142.851,146.978 148.429,148.764C153.313,150.328 158.762,153.566 158.762,159.481L158.762,210.136Z" style="fill:none;stroke:#0e334f;stroke-width:5px;"/><path d="M140.817,80.683C147.95,83.35 150.602,93.91 146.735,104.25C142.869,114.59 133.939,120.819 126.807,118.152C119.674,115.485 117.022,104.925 120.889,94.585C124.755,84.245 133.685,78.016 140.817,80.683Z" style="fill:#ffd70d;"/><path d="M142.851,84.072C149.983,86.739 152.635,97.299 148.769,107.639C144.902,117.978 135.972,124.208 128.84,121.541C121.707,118.873 119.056,108.313 122.922,97.974C126.788,87.634 135.718,81.405 142.851,84.072Z" style="fill:none;stroke:#0e334f;stroke-width:5px;"/><path d="M179.669,3.329C181.121,4.091 182.594,4.875 183.674,6.093C185.295,7.924 185.929,10.355 186.23,12.835L186.23,47.314L186.196,47.009C186.48,49.736 186.539,52.444 186.986,55.192C186.994,55.238 186.999,55.287 187.01,55.332C190.307,68.416 197.115,80.059 203.234,92.725C207.357,101.259 209.65,110.549 209.438,120.084C209.432,120.371 209.424,120.658 209.416,120.945C209.413,121.04 209.41,121.135 209.407,121.231C209.401,121.415 209.374,120.841 209.437,122.534C209.456,123.105 209.467,123.676 209.471,124.248C209.539,160.675 209.471,197.102 209.471,233.529C209.432,245.622 204.148,257.56 192.766,263.826C183.728,268.802 172.964,269.828 163.079,269.846L160.645,269.554C158.627,268.793 157.986,268.76 156.333,267.301C152.034,263.506 151.85,256.043 156.306,252.081C162.214,246.829 172.45,250.544 181.258,246.834C184.944,245.281 187.939,242.056 188.748,237.929C189.02,236.538 189.124,235.12 189.137,233.704C189.255,197.2 189.353,160.695 189.137,124.192C189.131,123.562 189.108,122.932 189.069,122.303L189.058,121.293C189.191,117.847 189.178,114.39 188.434,111.05C186.437,102.093 180.929,94.235 176.955,86.216C172.102,76.425 167.602,66.003 166.526,55.347C166.324,53.355 166.195,51.362 165.998,49.361C165.98,49.182 165.98,49.183 165.96,49.005L165.897,47.878L165.897,12.835L166.193,10.402C167.071,8.085 168.299,5.841 170.288,4.468C172.301,3.078 174.791,2.742 177.289,2.742C178.082,2.938 178.876,3.133 179.669,3.329ZM209.387,121.802C209.387,121.802 209.406,121.272 209.387,121.802ZM209.389,121.469C209.389,121.469 209.425,121.953 209.377,121.257C209.372,121.186 209.385,121.398 209.389,121.469Z" style="fill:#0e334f;fill-opacity:0.2;fill-rule:nonzero;"/></g></g><path d="M151.224,12.829L147.744,12.151L147.744,5.53C147.744,1.909 179.887,1.909 179.887,5.53L179.887,12.158L176.064,12.835L176.064,47.878C176.324,50.123 176.627,55.725 177.132,57.739C184.644,87.668 199.3,97.148 199.3,117.489C199.3,118.899 199.272,120.298 199.217,121.684C199.275,122.602 199.304,123.528 199.304,124.462L199.304,233.513C199.304,255.474 181.301,259.679 163.061,259.679C144.821,259.679 126.818,255.474 126.818,233.513L126.818,124.462C126.818,123.528 126.847,122.602 126.905,121.684C126.85,120.298 126.822,118.899 126.822,117.489C126.822,96.848 141.995,87.9 149.645,57.59C150.396,54.618 150.755,50.926 151.224,47.464L151.224,12.829Z" style="fill:none;stroke:#0e334f;stroke-width:5px;stroke-dasharray:500,25,10,25;stroke-dashoffset:375;"/><path d="M179.887,12.158C179.887,12.158 169.248,12.156 163.891,12.154C158.534,12.153 147.744,12.151 147.744,12.151" style="fill:none;stroke:#0e334f;stroke-width:5px;stroke-dasharray:250,25,10,25;"/></g></g></g></svg>