<?xml version="1.0" encoding="UTF-8" standalone="no"?>
<!-- Created with Keyshape -->
<svg xmlns="http://www.w3.org/2000/svg" xmlns:xlink="http://www.w3.org/1999/xlink" width="100%" height="100%" viewBox="0 0 267 190" clip-rule="evenodd" fill-rule="evenodd" stroke-linecap="round" stroke-linejoin="round" stroke-miterlimit="1.5" style="white-space: preserve-spaces; background: rgba(23,84,130,0.00);">
    <defs>
        <clipPath id="_clip3">
            <path d="M19.895,98.8C19.176,97.376,17.717,96.478,16.122,96.478C14.526,96.478,13.067,97.376,12.348,98.8C8.629,105.392,3.499,115.472,3.499,120.921C3.499,127.887,9.155,133.543,16.122,133.543C23.088,133.543,28.744,127.887,28.744,120.921C28.744,115.472,23.614,105.392,19.895,98.8Z"/>
        </clipPath>
        <clipPath id="_clip1">
            <path d="M83.337,38.644L86.283,53.365L71.255,55.711L26.011,82.175C26.011,82.175,23.111,83.742,20.192,82.921C14.662,81.364,12.932,72.724,18.438,69.227L66.134,41.329L83.337,38.644Z" clip-rule="nonzero"/>
        </clipPath>
        <clipPath id="_clip2">
            <path d="M177.887,1.281C181.503,0.76,185.311,1.891,188.093,4.673C202.923,19.502,240.385,55.964,255.214,70.793C259.9,75.48,259.9,83.077,255.214,87.764C253.367,89.611,251.302,91.675,249.108,93.87C248.29,94.688,247.451,95.471,246.592,96.22L199.462,51.805C199.462,51.805,167.499,83.971,167.397,83.87C167.397,83.87,156.116,72.589,147.786,64.259C142.137,58.61,134.694,55.11,126.741,54.362C112.214,52.997,90.005,50.909,90.005,50.909L85.256,25.799L178.114,0.84L177.887,1.281Z"/>
        </clipPath>
    </defs>
    <g id="drip" opacity="1" transform="translate(14.9726,72.0891) translate(0,0) scale(0.3,0.3) translate(-15.9726,-95.09)">
        <path d="M19.895,98.8C19.176,97.376,17.717,96.478,16.122,96.478C14.526,96.478,13.067,97.376,12.348,98.8C8.629,105.392,3.499,115.472,3.499,120.921C3.499,127.887,9.155,133.543,16.122,133.543C23.088,133.543,28.744,127.887,28.744,120.921C28.744,115.472,23.614,105.392,19.895,98.8Z" fill="#ffd70d"/>
        <g>
            <g clip-path="url(#_clip3)">
                <path d="M26.383,113.321C31.541,113.55,33.512,120.806,30.341,126.811C27.445,132.298,21.087,136.517,14.931,135.271C9.521,134.176,7.89,123.869,16.387,123.382C18.494,123.235,20.155,121.35,20.197,119.129C20.197,119.129,21.234,113.225,26.383,113.321Z" fill="#0e334f" fill-opacity="0.301961" fill-rule="nonzero"/>
                <path d="M16.308,94.688C22.37,94.854,29.261,101.805,24.369,107.162C22.423,109.292,18.854,109.705,16.483,108.019C16.281,108.406,16.081,108.793,15.884,109.182C14.228,112.458,12.075,115.878,12.049,119.363C12.049,119.363,11.191,123.983,7.861,125.038C3.999,126.261,-0.296,122.861,0.1,118.138C0.623,111.919,3.848,106.089,6.961,100.381C6.961,100.381,7.706,98.93,8.708,97.874C10.651,95.823,13.46,94.662,16.308,94.688Z" fill="#f7fff7" fill-opacity="0.8" fill-rule="nonzero"/>
            </g>
        </g>
        <path d="M19.895,98.8C19.176,97.376,17.717,96.478,16.122,96.478C14.526,96.478,13.067,97.376,12.348,98.8C8.629,105.392,3.499,115.472,3.499,120.921C3.499,127.887,9.155,133.543,16.122,133.543C23.088,133.543,28.744,127.887,28.744,120.921C28.744,115.472,23.614,105.392,19.895,98.8Z" fill="none" stroke="#0e334f" stroke-dasharray="40,15,25,15" stroke-width="5px"/>
    </g>
    <g id="bowser" transform="translate(-3,0)">
        <path d="M162.405,92.218C159.676,89.559,168.059,85.176,169.109,86.178C181.519,97.877,200.137,103.018,216.891,99.197C222.902,97.826,228.702,95.136,233.149,90.729C233.149,90.729,241.089,95.698,238.37,98.186C229.334,106.456,216.357,109.643,204.55,109.352C189.039,108.969,173.629,103.151,162.405,92.218Z" fill="#0e334f" fill-rule="nonzero"/>
        <path d="M83.337,38.644L86.283,53.365L71.255,55.711L26.011,82.175C26.011,82.175,23.111,83.742,20.192,82.921C14.662,81.364,12.932,72.724,18.438,69.227L66.134,41.329L83.337,38.644Z" fill="#a7daf2" fill-rule="nonzero"/>
        <g clip-path="url(#_clip1)">
            <path d="M78.751,31.718L81.697,46.44L66.669,48.785L21.425,75.249C21.425,75.249,18.525,76.817,15.606,75.995C10.076,74.438,8.346,65.798,13.852,62.302L61.549,34.403L78.751,31.718Z" fill="#f7fff7" fill-rule="nonzero"/>
        </g>
        <path d="M83.337,38.644L86.658,53.307L71.255,55.711L26.011,82.175C26.011,82.175,23.111,83.742,20.192,82.921C14.662,81.364,12.932,72.724,18.438,69.227L66.134,41.329L83.337,38.644Z" fill="none" stroke="#0e334f" stroke-dasharray="400,25,10,25" stroke-width="5px"/>
        <path d="M207.072,86.778L193.791,76.018L180.579,73.435" fill="none" stroke="#0e334f" stroke-linejoin="miter" stroke-width="8px"/>
        <path d="M246.379,99.861C245.378,98.565,255.727,89.253,257.519,91.323C269.543,105.213,272.249,125.386,265.08,141.124C261.957,147.979,257.172,154.009,251.15,158.641C246.808,161.98,237.928,158.036,239.956,151.254C240.845,148.282,244.015,146.634,246.344,144.188C257.284,132.692,258.194,113.005,246.904,100.449L246.379,99.861Z" fill="#0e334f" fill-rule="nonzero"/>
        <path d="M177.887,1.281C181.503,0.76,185.311,1.891,188.093,4.673C202.923,19.502,240.385,55.964,255.214,70.793C259.9,75.48,259.9,83.077,255.214,87.764C253.367,89.611,251.302,91.675,249.108,93.87C248.29,94.688,247.451,95.471,246.592,96.22L199.462,51.805C199.462,51.805,167.499,83.971,167.397,83.87C167.397,83.87,156.116,72.589,147.786,64.259C142.137,58.61,134.694,55.11,126.741,54.362C112.214,52.997,90.005,50.909,90.005,50.909L85.256,25.799L178.114,0.84L177.887,1.281Z" fill="#eb4034"/>
        <path d="M174.887,8.281C178.503,7.76,182.311,8.891,185.093,11.673C199.923,26.502,237.385,62.964,252.214,77.793C256.9,82.48,256.9,90.077,252.214,94.764C250.367,96.611,248.302,98.675,246.108,100.87C245.29,101.688,244.451,102.471,243.592,103.22L196.462,58.805C196.462,58.805,164.499,90.971,164.397,90.87C164.397,90.87,153.116,79.589,144.786,71.259C139.137,65.61,131.694,62.11,123.741,61.362C109.214,59.997,87.005,57.909,87.005,57.909L82.256,32.799L175.114,7.84L174.887,8.281Z" fill="none" stroke="#0e334f" stroke-dasharray="400,25,10,25" stroke-width="5px"/>
        <g clip-path="url(#_clip2)">
            <path d="M246.522,87.849L249.911,84.46C249.911,84.46,255.185,80.653,259.452,83.576C263.052,86.042,263.568,91.721,260.517,95.067C257.651,97.933,254.856,100.904,251.892,103.547C251.892,103.547,246.408,108.352,246.408,108.352L199.632,64.271C190.754,73.195,181.968,82.305,172.965,90.94C172.011,91.854,170.888,92.517,169.764,93.171L164.607,93.686C157.163,86.243,149.782,78.737,142.275,71.357C137.927,67.124,132.186,64.457,126.185,63.843C126.185,63.843,89.303,60.376,89.303,60.376C89.303,60.376,85.892,59.915,84.014,57.421C81.665,54.301,82.31,49.315,85.494,46.918C86.603,46.082,87.94,45.566,89.323,45.44C89.938,45.384,90.093,45.412,90.707,45.442C103.028,46.6,115.352,47.727,127.669,48.917C137.165,49.888,146.169,54.151,152.927,60.794C152.927,60.794,167.44,75.306,167.44,75.306C178.065,64.708,188.682,54.011,199.292,43.338C215.035,58.175,230.779,73.012,246.522,87.849Z" fill="#0e334f" fill-opacity="0.2" fill-rule="nonzero"/>
        </g>
        <path d="M97.026,41.538L171.266,21.889C174.882,21.368,178.69,22.498,181.472,25.28" fill="none" stroke="#f7fff7" stroke-linejoin="miter" stroke-opacity="0.2" stroke-width="15px"/>
    </g>
    <script><![CDATA[if(KeyshapeJS.version.indexOf('1.')!=0)throw Error('Expected KeyshapeJS v1.*.*');window.ks=document.ks=KeyshapeJS;(function(ks){
ks.animate("#drip",[{p:'mpath',t:[0,2233,2516],v:['0%','4.152026%','100%'],e:[[0],[0],[0]],mp:"M14.9726,72.0892L15.9726,75.0892L15.9726,148.089"},{p:'skewX',t:[583,700,816,933,1050,1166,1283,1400,1516,1633,1750,1866,1983,2066,2150,2233],v:[0,-3,0,3,-3,-5,3,-3,0,3,-3,5,3,-3,0,0],e:[[0],[0],[0],[0],[0],[0],[0],[0],[0],[0],[0],[0],[0],[0],[0],[0]]},{p:'skewY',t:[583,700,816,933,1050,1166,1283,1400,1516,1633,1750,1866,1983,2066,2150,2233],v:[0,0,0,0,0,0,0,0,0,0,0,0,0,0,0,0],e:[[0],[0],[0],[0],[0],[0],[0],[0],[0],[0],[0],[0],[0],[0],[0],[0]]},{p:'scaleX',t:[0,2233],v:[0.3,1],e:[[0],[0]]},{p:'scaleY',t:[0,2233],v:[0.3,1],e:[[0],[0]]},{p:'opacity',t:[2350,2516],v:[1,0],e:[[0],[0]]}],
{autoremove:false}).range(0,2516).loop(true);
if(document.location.search.substr(1).split('&').indexOf('global=paused')>=0)ks.globalPause()})(KeyshapeJS);
]]></script>
</svg>
