<?xml version="1.0" encoding="UTF-8" standalone="no"?><!DOCTYPE svg PUBLIC "-//W3C//DTD SVG 1.1//EN" "http://www.w3.org/Graphics/SVG/1.1/DTD/svg11.dtd"><svg width="100%" height="100%" viewBox="0 0 141 183" version="1.1" xmlns="http://www.w3.org/2000/svg" xmlns:xlink="http://www.w3.org/1999/xlink" xml:space="preserve" xmlns:serif="http://www.serif.com/" style="fill-rule:evenodd;clip-rule:evenodd;stroke-linecap:round;stroke-linejoin:round;stroke-miterlimit:1.5;"><g id="Colour"><path d="M22.771,22.603C28.8,21.629 35,26.448 35.17,32.642C35.275,36.49 32.295,39.463 32.048,43.512C31.656,49.94 35.261,56.005 39.01,61.263C41.979,65.429 45.342,69.809 50.003,71.639C50.003,71.639 57.09,74.737 57.662,80.768C58.329,87.788 50.939,94.162 43.243,91.523C29.943,86.962 19.836,73.186 14.502,60.605C9.911,49.778 9.12,36.616 16.158,26.785C16.158,26.785 19.676,23.244 22.771,22.603ZM49.963,71.63C49.85,71.596 49.392,71.478 49.963,71.63ZM33.118,39.169C33.377,38.819 33.177,39.086 33.118,39.169Z" style="fill:#ffd70d;fill-rule:nonzero;"/><path d="M22.771,22.603C28.8,21.629 35,26.448 35.17,32.642C35.275,36.49 32.295,39.463 32.048,43.512C31.656,49.94 35.261,56.005 39.01,61.263C41.979,65.429 45.342,69.809 50.003,71.639C50.003,71.639 57.09,74.737 57.662,80.768C58.329,87.788 50.939,94.162 43.243,91.523C29.943,86.962 19.836,73.186 14.502,60.605C9.911,49.778 9.12,36.616 16.158,26.785C16.158,26.785 19.676,23.244 22.771,22.603ZM49.963,71.63C49.85,71.596 49.392,71.478 49.963,71.63ZM33.118,39.169C33.377,38.819 33.177,39.086 33.118,39.169Z" style="fill:none;stroke:#0e334f;stroke-width:5px;"/><path d="M21.134,23.33C22.372,21.621 26.358,22.393 30.03,25.053C33.702,27.713 35.678,31.26 34.44,32.969C33.202,34.678 29.216,33.906 25.544,31.247C21.872,28.587 19.896,25.04 21.134,23.33Z" style="fill:#0e334f;fill-opacity:0.501961;"/><path d="M21.134,23.33C22.372,21.621 26.358,22.393 30.03,25.053C33.702,27.713 35.678,31.26 34.44,32.969C33.202,34.678 29.216,33.906 25.544,31.247C21.872,28.587 19.896,25.04 21.134,23.33Z" style="fill:none;stroke:#0e334f;stroke-width:5px;"/><path d="M58.715,50.952C67.957,28.66 94.592,23.096 111.137,35.758C127.682,48.42 134.135,79.31 127.27,112.982C124.194,130.214 114.221,148.887 102.853,165.249C94.127,177.846 77.067,181.41 64.027,173.36C47.06,162.918 30.445,149.799 20.728,135.24C0.957,107.133 -4.065,83.095 6.026,64.868C16.117,46.641 41.321,34.225 58.715,50.952Z" style="fill:#eb4034;"/><path d="M47.411,49.115C55.594,49.233 64.018,53.192 68.505,59.805C72.952,66.36 67.11,77.615 58.028,76.046C54.071,75.363 51.644,71.046 48.288,70.245C44.277,69.288 40.779,72.647 38.623,75.385C38.093,76.059 37.608,76.77 37.173,77.51C34.735,81.661 34.171,86.731 34.675,91.538C34.675,91.538 34.924,96.233 32.269,99.391C26.998,105.66 14.613,102.534 13.716,92.995C13.668,92.485 13.627,91.974 13.593,91.463C12.831,79.777 16.456,67.841 24.941,59.188C30.705,53.309 38.521,49.233 46.917,49.115C47.164,49.114 47.163,49.114 47.411,49.115Z" style="fill:#f7fff7;fill-opacity:0.2;fill-rule:nonzero;"/><path d="M98.69,22.993C100.922,23.292 101.272,23.53 102.201,23.976C103.916,24.8 105.358,26.102 106.783,27.393C122.32,41.47 129.793,64.568 129.985,86.711C130.264,119.077 117.927,143.667 100.274,168.523C100.274,168.523 94.63,174.877 88.348,172.987C81.93,171.056 78.912,162.488 83.004,156.574C83.259,156.206 83.512,155.838 83.764,155.469C93.528,141.147 103.41,125.583 106.477,108.686C110.183,90.369 107.885,70.963 100.406,54.195C98.329,49.538 95.511,45.148 91.532,41.98L90.678,41.288C90.207,40.838 90.077,40.737 89.654,40.24C84.897,34.641 88.231,23.926 96.495,23.006C97.897,22.85 98.237,22.964 98.69,22.993Z" style="fill:#0e334f;fill-opacity:0.2;fill-rule:nonzero;"/><path d="M65.715,52.952C74.957,30.66 101.592,25.096 118.137,37.758C134.682,50.42 141.135,81.31 134.27,114.982C131.194,132.214 121.221,150.887 109.853,167.249C101.127,179.846 84.067,183.41 71.027,175.36C54.06,164.918 37.445,151.799 27.728,137.24C7.957,109.133 2.935,85.095 13.026,66.868C23.117,48.641 48.321,36.225 65.715,52.952Z" style="fill:none;stroke:#0e334f;stroke-width:5px;stroke-dasharray:400,25,10,25;stroke-dashoffset:275;"/><path d="M64.176,150.314C29.946,120.251 18.711,83.406 28.802,65.179" style="fill:none;stroke:#0e334f;stroke-width:5px;stroke-dasharray:40,15,25,15;"/><path d="M88.197,83.192C106.804,100.226 114.817,117.671 111.724,134.654" style="fill:none;stroke:#0e334f;stroke-width:5px;stroke-dasharray:40,15,25,15;"/><path d="M90.157,21.187C89.186,17.351 88.623,13.282 88.373,10.08C88.126,6.912 89.554,3.966 93.198,3.206C96.782,2.59 100.039,5.435 100.357,9.395C100.688,13.253 101.165,17.224 102.367,20.783C103.296,21.025 104.2,21.337 105.074,21.722C112.197,24.857 123.216,30.58 128.451,38.581L72.147,74.353C66.946,65.139 65.468,56.529 66.459,49.004C61.956,45.844 57.998,41.755 54.967,37.357C52.719,34.096 54.293,28.927 58.861,28.043C59.554,27.932 59.77,27.938 60.188,27.958C64.326,28.152 66.775,32.66 70.672,36.679C71.761,34.807 73.015,33.067 74.396,31.473C70.957,27.263 68.331,22.317 66.418,17.249C65.164,13.928 66.972,9.925 71.098,9.203C73.982,8.799 76.597,10.604 77.836,13.444C79.461,17.111 81.286,20.858 83.706,23.892C85.799,22.729 87.971,21.819 90.157,21.187Z" style="fill:#4ecdc4;"/><path d="M90.157,21.187C89.186,17.351 88.623,13.282 88.373,10.08C88.126,6.912 89.554,3.966 93.198,3.206C96.782,2.59 100.039,5.435 100.357,9.395C100.688,13.253 101.165,17.224 102.367,20.783C103.296,21.025 104.2,21.337 105.074,21.722C112.197,24.857 123.216,30.58 128.451,38.581L72.147,74.353C66.946,65.139 65.468,56.529 66.459,49.004C61.956,45.844 57.998,41.755 54.967,37.357C52.719,34.096 54.293,28.927 58.861,28.043C59.554,27.932 59.77,27.938 60.188,27.958C64.326,28.152 66.775,32.66 70.672,36.679C71.761,34.807 73.015,33.067 74.396,31.473C70.957,27.263 68.331,22.317 66.418,17.249C65.164,13.928 66.972,9.925 71.098,9.203C73.982,8.799 76.597,10.604 77.836,13.444C79.461,17.111 81.286,20.858 83.706,23.892C85.799,22.729 87.971,21.819 90.157,21.187Z" style="fill:none;stroke:#0e334f;stroke-width:5px;"/><path d="M122.46,50.08C126.444,58.081 128.914,68.007 129.705,79.068C115.99,87.267 104.269,99.073 95.797,112.25C94.193,114.745 94.204,114.753 93.695,115.358C88.458,121.589 77.695,122.067 71.965,115.889C67.502,111.078 67.138,103.42 70.721,97.647C75.614,89.763 81.528,82.554 87.985,75.866C97.975,65.522 109.622,56.614 122.46,50.08Z" style="fill:#0e334f;fill-opacity:0.3;fill-rule:nonzero;"/><path d="M121.099,23.29C131.777,21.622 141.943,33.942 136.455,44.337C135.019,47.056 132.826,48.779 129.788,50.93C109.799,65.18 97.037,88.843 92.657,112.592C92.119,115.509 92.132,115.513 91.891,116.265C89.408,124.017 79.63,128.541 71.985,124.998C66.031,122.239 62.79,115.291 63.916,108.591C65.453,99.44 68.191,90.526 71.63,81.889C80.477,59.671 95.072,39.39 115.067,25.852C115.067,25.852 118.451,23.817 121.099,23.29Z" style="fill:#eb4034;fill-rule:nonzero;"/><path d="M127.593,24.471C130.099,23.348 133.922,26.427 136.125,31.343C138.328,36.259 138.082,41.162 135.576,42.286C133.07,43.409 129.246,40.329 127.043,35.413C124.84,30.497 125.086,25.594 127.593,24.471Z" style="fill:#0e334f;fill-opacity:0.501961;"/><path d="M127.593,24.471C130.099,23.348 133.922,26.427 136.125,31.343C138.328,36.259 138.082,41.162 135.576,42.286C133.07,43.409 129.246,40.329 127.043,35.413C124.84,30.497 125.086,25.594 127.593,24.471Z" style="fill:none;stroke:#0e334f;stroke-width:5px;"/><path d="M63.856,82.136C69.598,81.421 73.28,77.879 74.176,75.901C83.166,56.051 96.884,38.163 115.067,25.852C115.067,25.852 118.451,23.817 121.099,23.29C131.777,21.622 141.943,33.942 136.455,44.337C135.019,47.056 132.826,48.779 129.788,50.93C109.799,65.18 97.037,88.843 92.657,112.592C92.119,115.509 92.132,115.513 91.891,116.265" style="fill:none;stroke:#0e334f;stroke-width:5px;"/><path d="M74.79,61.438C74.79,61.438 70.152,43.702 85.118,31.779" style="fill:none;stroke:#0e334f;stroke-width:5px;stroke-dasharray:15,10,15,5;"/></g></svg>