<?xml version="1.0" encoding="UTF-8" standalone="no"?>
<!-- Created with Keyshape -->
<svg xmlns="http://www.w3.org/2000/svg" xmlns:xlink="http://www.w3.org/1999/xlink" width="100%" height="100%" viewBox="0 0 140 183" clip-rule="evenodd" fill-rule="evenodd" stroke-linejoin="round" stroke-miterlimit="1.41421" style="white-space: preserve-spaces; background: rgba(23,84,130,0.00);">
    <g id="all" transform="translate(69.0462,86.1841) translate(-68.2329,-83.6404)">
        <g id="yellow-pipe" transform="translate(32.8069,54.7329) translate(-33.6202,-57.2766)">
            <path d="M22.057,22.603C28.086,21.629,34.287,26.448,34.456,32.642C34.561,36.49,31.581,39.463,31.334,43.512C30.942,49.94,34.548,56.005,38.296,61.263C41.266,65.429,44.629,69.809,49.289,71.639C49.289,71.639,56.377,74.737,56.949,80.768C57.615,87.788,50.225,94.162,42.529,91.523C29.229,86.962,19.122,73.186,13.788,60.605C9.198,49.778,8.406,36.616,15.445,26.785C15.445,26.785,18.963,23.244,22.057,22.603ZM49.25,71.63C49.136,71.596,48.678,71.478,49.25,71.63ZM32.405,39.169C32.663,38.819,32.464,39.086,32.405,39.169Z" fill="#ffd70d" fill-rule="nonzero" stroke="#0e334f" stroke-width="5px"/>
            <path d="M20.42,23.33C21.658,21.621,25.645,22.393,29.317,25.053C32.989,27.713,34.965,31.26,33.727,32.969C32.488,34.678,28.502,33.906,24.83,31.247C21.158,28.587,19.182,25.04,20.42,23.33Z" fill="#0e334f" fill-opacity="0.501961" stroke="#0e334f" stroke-linecap="round" stroke-miterlimit="1.5" stroke-width="5px"/>
        </g>
        <path id="heart" d="M58.001,50.952C67.243,28.66,93.879,23.096,110.423,35.758C126.968,48.42,133.421,79.31,126.556,112.982C123.48,130.214,113.508,148.887,102.14,165.249C93.413,177.846,76.354,181.41,63.314,173.36C55.795,168.733,48.346,163.581,41.535,158.01C32.976,151.009,25.426,143.348,20.014,135.24C0.243,107.133,-4.778,83.095,5.313,64.868C15.404,46.641,40.608,34.225,58.001,50.952Z" fill="#eb4034" transform="translate(-0.813342,-2.54368)"/>
        <path id="shine" d="M46.697,49.115C54.88,49.233,63.305,53.192,67.791,59.805C72.238,66.36,66.397,77.615,57.315,76.046C53.357,75.363,50.931,71.046,47.574,70.245C43.564,69.288,40.065,72.647,37.91,75.385C37.379,76.059,36.894,76.77,36.459,77.51C34.021,81.661,33.457,86.731,33.962,91.538C33.962,91.538,34.211,96.233,31.556,99.391C26.285,105.66,13.899,102.534,13.002,92.995C12.954,92.485,12.913,91.974,12.88,91.463C12.117,79.777,15.742,67.841,24.227,59.188C29.991,53.309,37.807,49.233,46.203,49.115C46.45,49.114,46.45,49.114,46.697,49.115Z" fill="#f7fff7" fill-opacity="0.2" fill-rule="nonzero" transform="translate(-0.813342,-2.54368)"/>
        <path id="shadow" d="M97.976,22.993C100.208,23.292,100.558,23.53,101.488,23.976C103.203,24.8,104.645,26.102,106.07,27.393C121.606,41.47,129.08,64.568,129.271,86.711C129.551,119.077,117.213,143.667,99.56,168.523C99.56,168.523,93.917,174.877,87.634,172.987C81.216,171.056,78.199,162.488,82.291,156.574C82.545,156.206,82.798,155.838,83.051,155.469C92.814,141.147,102.697,125.583,105.763,108.686C109.47,90.369,107.172,70.963,99.692,54.195C97.615,49.538,94.797,45.148,90.819,41.98L89.965,41.288C89.494,40.838,89.363,40.737,88.941,40.24C84.184,34.641,87.518,23.926,95.781,23.006C97.184,22.85,97.523,22.964,97.976,22.993Z" fill="#0e334f" fill-opacity="0.2" fill-rule="nonzero" transform="translate(-0.813342,-2.54368)"/>
        <path id="outline" d="M65.001,52.952C74.243,30.66,100.879,25.096,117.423,37.758C133.968,50.42,140.421,81.31,133.556,114.982C130.48,132.214,120.508,150.887,109.14,167.249C100.413,179.846,83.354,183.41,70.314,175.36C60.77,169.487,51.337,162.766,43.181,155.418C36.837,149.704,31.266,143.61,27.014,137.24C7.243,109.133,2.222,85.095,12.313,66.868C22.404,48.641,47.608,36.225,65.001,52.952Z" fill="none" stroke="#0e334f" stroke-dasharray="400,25,10,25" stroke-dashoffset="275" stroke-linecap="round" stroke-miterlimit="1.5" stroke-width="5px" transform="translate(-0.813342,-2.54368)"/>
        <path id="line-1" d="M63.462,150.314C29.233,120.251,17.998,83.406,28.089,65.179" fill="none" stroke="#0e334f" stroke-dasharray="40,15,25,15" stroke-linecap="round" stroke-miterlimit="1.5" stroke-width="5px" transform="translate(-0.813342,-2.54368)"/>
        <path id="line-2" d="M87.484,83.192C106.09,100.226,114.104,117.671,111.011,134.654" fill="none" stroke="#0e334f" stroke-dasharray="40,15,25,15" stroke-linecap="round" stroke-miterlimit="1.5" stroke-width="5px" transform="translate(-0.813342,-2.54368)"/>
        <g id="green-pipe" clip-rule="evenodd" fill-rule="evenodd" stroke-linejoin="round" stroke-miterlimit="1.41421" transform="translate(95.8348,40.5687) rotate(-15) translate(-96.6481,-43.1123)">
            <path d="M99.656,19.137C99.71,15.181,100.22,11.105,100.807,7.947C101.388,4.823,103.53,2.347,107.246,2.556C110.869,2.888,113.278,6.479,112.56,10.386C111.881,14.199,111.314,18.159,111.554,21.907C112.388,22.381,113.181,22.917,113.926,23.514C119.995,28.387,129.157,36.767,132.143,45.85C132.143,45.85,121.703,42.19,110.861,53.658C101.161,63.919,93.078,83.911,90.427,83.679C74.976,82.326,69.772,70.39,68.499,65.83C66.491,58.644,66.66,46.885,69.566,39.872C66.034,35.655,63.27,30.681,61.479,25.648C60.152,21.917,63.011,17.331,67.651,17.66C68.35,17.731,68.557,17.794,68.955,17.921C72.902,19.18,74.101,24.168,76.825,29.058C78.362,27.532,80.023,26.175,81.769,24.993C79.537,20.037,78.281,14.58,77.744,9.19C77.393,5.656,80.175,2.258,84.348,2.629C87.238,2.985,89.297,5.405,89.759,8.469C90.379,12.431,91.172,16.523,92.724,20.08C95.047,19.498,97.381,19.181,99.656,19.137Z" fill="#4ecdc4" stroke="#0e334f" stroke-linecap="round" stroke-miterlimit="1.5" stroke-width="5px"/>
            <path d="M74.394,54.039C74.394,54.039,74.504,35.707,92.047,28.064" fill="none" stroke="#0e334f" stroke-dasharray="15,10,15,5" stroke-linecap="round" stroke-miterlimit="1.5" stroke-width="5px"/>
        </g>
        <path id="red-pipe-shadow" d="M121.747,50.08C125.731,58.081,128.201,68.007,128.991,79.068C115.277,87.267,103.555,99.073,95.084,112.25C93.48,114.745,93.49,114.753,92.982,115.358C87.745,121.589,76.982,122.067,71.251,115.889C66.789,111.078,66.424,103.42,70.007,97.647C74.901,89.763,80.814,82.554,87.272,75.866C97.261,65.522,108.908,56.614,121.747,50.08Z" fill="#0e334f" fill-opacity="0.3" fill-rule="nonzero" transform="translate(-0.813342,-2.54368)"/>
        <g id="red-pipe" transform="translate(-0.813342,-2.54368)">
            <path d="M120.385,23.29C131.064,21.622,141.23,33.942,135.742,44.337C134.306,47.056,132.112,48.779,129.075,50.93C109.085,65.18,96.323,88.843,91.943,112.592C91.405,115.509,91.418,115.513,91.177,116.265C88.694,124.017,78.917,128.541,71.271,124.998C65.317,122.239,62.076,115.291,63.202,108.591C64.74,99.44,67.477,90.526,70.916,81.889C79.763,59.671,94.359,39.39,114.354,25.852C114.354,25.852,117.738,23.817,120.385,23.29Z" fill="#eb4034" fill-rule="nonzero"/>
            <path d="M126.879,24.471C129.385,23.348,133.209,26.427,135.412,31.343C137.615,36.259,137.369,41.162,134.862,42.286C132.356,43.409,128.533,40.329,126.33,35.413C124.127,30.497,124.373,25.594,126.879,24.471Z" fill="#0e334f" fill-opacity="0.501961" stroke="#0e334f" stroke-linecap="round" stroke-miterlimit="1.5" stroke-width="5px"/>
            <path d="M63.142,82.136C68.884,81.421,72.567,77.879,73.463,75.901C82.453,56.051,96.171,38.163,114.354,25.852C114.354,25.852,117.738,23.817,120.385,23.29C131.064,21.622,141.23,33.942,135.742,44.337C134.306,47.056,132.112,48.779,129.075,50.93C109.085,65.18,96.323,88.843,91.943,112.592C91.405,115.509,91.418,115.513,91.177,116.265" fill="none" stroke="#0e334f" stroke-linecap="round" stroke-miterlimit="1.5" stroke-width="5px"/>
        </g>
    </g>
</svg>
