<?xml version="1.0" encoding="UTF-8" standalone="no"?><!DOCTYPE svg PUBLIC "-//W3C//DTD SVG 1.1//EN" "http://www.w3.org/Graphics/SVG/1.1/DTD/svg11.dtd"><svg width="100%" height="100%" viewBox="0 0 275 173" version="1.1" xmlns="http://www.w3.org/2000/svg" xmlns:xlink="http://www.w3.org/1999/xlink" xml:space="preserve" xmlns:serif="http://www.serif.com/" style="fill-rule:evenodd;clip-rule:evenodd;stroke-linecap:round;stroke-linejoin:round;stroke-miterlimit:1.5;"><g id="Colour"><g><path d="M169.234,131.854L63.079,166.527C60.499,167.369 57.772,165.788 56.993,162.997L31.581,71.98C30.801,69.189 32.264,66.239 34.844,65.396L230.881,1.366C233.461,0.523 236.189,2.105 236.968,4.895L262.38,95.913C263.159,98.703 261.697,101.653 259.117,102.496L198.022,122.451C193.081,120.335 188.682,115.276 186.346,106.91C182.461,92.993 187.39,82.259 194.045,72.453C197.825,66.884 206.239,54.827 202.354,40.91C198.468,26.994 188.264,19.313 179.965,22.024C171.667,24.734 142.879,34.137 151.178,31.426C159.477,28.716 169.681,36.397 173.566,50.313C177.452,64.23 169.037,76.287 165.258,81.856C158.603,91.662 153.673,102.396 157.558,116.312C159.894,124.679 164.294,129.738 169.234,131.854Z" style="fill:#ffdf42;"/><path d="M190.632,16.69C198.931,13.98 209.135,21.66 213.021,35.577C216.906,49.493 208.491,61.551 204.712,67.119C198.057,76.925 193.127,87.66 197.013,101.576C200.898,115.492 210.493,120.259 218.792,117.549L203.237,122.629C194.938,125.34 185.343,120.573 181.457,106.657C177.572,92.74 182.502,82.006 189.157,72.2C192.936,66.631 201.351,54.574 197.465,40.658C193.58,26.741 183.376,19.06 175.077,21.771C166.778,24.481 182.333,19.401 190.632,16.69Z" style="fill:#4ecdc4;"/><path d="M146.289,31.174C154.588,28.463 164.792,36.144 168.678,50.06C172.563,63.977 164.148,76.034 160.369,81.603C153.714,91.409 148.784,102.143 152.67,116.059C156.555,129.976 166.15,134.743 174.449,132.032L160.903,136.456C152.605,139.167 143.01,134.4 139.124,120.484C135.239,106.567 140.169,95.833 146.824,86.027C150.603,80.458 159.018,68.401 155.132,54.484C151.247,40.568 141.042,32.887 132.744,35.598C124.445,38.308 137.99,33.884 146.289,31.174Z" style="fill:#4ecdc4;"/><path d="M132.744,35.598C141.042,32.887 151.247,40.568 155.132,54.484C159.018,68.401 150.603,80.458 146.824,86.027C140.169,95.833 135.239,106.567 139.124,120.484C143.01,134.4 152.605,139.167 160.903,136.456L129.935,146.571C121.637,149.282 112.042,144.515 108.156,130.599C104.271,116.682 109.2,105.948 115.855,96.142C119.635,90.573 128.049,78.516 124.164,64.599C120.279,50.683 110.074,43.002 101.776,45.713C93.477,48.423 124.445,38.308 132.744,35.598Z" style="fill:#ef8076;"/><g><path d="M93.411,65.814C84.112,68.851 79.408,81.509 82.913,94.063C86.418,106.617 96.813,114.344 106.112,111.306C115.411,108.269 120.115,95.611 116.61,83.057C113.105,70.503 102.71,62.776 93.411,65.814Z" style="fill:#0e334f;"/><path d="M138.934,129.925C133.036,108.801 116.85,95.373 102.811,99.958C88.773,104.544 82.163,125.417 88.061,146.541C90.454,155.112 141.203,138.051 138.934,129.925Z" style="fill:#0e334f;"/></g><path d="M70.721,118.357C62.31,121.104 57.544,130.72 60.084,139.817C62.624,148.913 71.514,154.068 79.924,151.321C88.335,148.574 93.101,138.959 90.561,129.862C88.021,120.765 79.131,115.61 70.721,118.357Z" style="fill:#175482;stroke:#ffd70d;stroke-width:5px;"/><g><path d="M236.258,75.634C239.794,74.479 243.875,77.873 245.365,83.208C246.854,88.543 245.192,93.812 241.656,94.967C238.119,96.123 234.038,92.729 232.549,87.394C231.059,82.059 232.721,76.789 236.258,75.634Z" style="fill:none;stroke:#0e334f;stroke-width:7px;"/><path d="M223.263,80.239L215.132,83.387L216.614,90.968C216.614,90.968 219.854,90.592 222.413,89.757C224.972,88.921 227.197,89.782 228.382,93.015C230.77,99.531 222.587,101.367 220.028,102.203" style="fill:none;stroke:#0e334f;stroke-width:7px;"/></g><path d="M175.077,21.771C183.376,19.06 193.58,26.741 197.465,40.658C201.351,54.574 192.936,66.631 189.157,72.2C182.502,82.006 177.572,92.74 181.457,106.657C185.343,120.573 194.938,125.34 203.237,122.629L174.449,132.032C166.15,134.743 156.555,129.976 152.67,116.059C148.784,102.143 153.714,91.409 160.369,81.603C164.148,76.034 172.563,63.977 168.678,50.06C164.792,36.144 154.588,28.463 146.289,31.174C137.99,33.884 166.778,24.481 175.077,21.771Z" style="fill:none;stroke:#0e334f;stroke-width:5px;"/><path d="M30.838,74.126C30.058,71.336 31.66,68.34 34.412,67.441L229.828,3.614C232.579,2.715 235.446,4.251 236.225,7.042L261.637,98.06C262.416,100.85 260.815,103.846 258.063,104.745L62.647,168.572C59.896,169.471 57.029,167.935 56.25,165.144L30.838,74.126Z" style="fill:none;stroke:#0e334f;stroke-width:5px;"/></g><g><path d="M164.156,141.322L54.268,157.405C51.597,157.795 49.135,155.767 48.774,152.878L36.987,58.66C36.625,55.771 38.5,53.108 41.171,52.717L244.103,23.017C246.774,22.627 249.236,24.655 249.597,27.544L261.384,121.762C261.746,124.651 259.871,127.313 257.2,127.705L193.957,136.961C189.387,134.026 185.783,128.278 184.699,119.618C182.897,105.212 189.334,95.456 197.339,86.911C201.884,82.059 211.956,71.592 210.154,57.186C208.352,42.78 199.398,33.451 190.808,34.708C182.217,35.966 152.417,40.327 161.008,39.07C169.598,37.812 178.551,47.142 180.354,61.548C182.156,75.953 172.084,86.42 167.539,91.273C159.534,99.817 153.097,109.573 154.899,123.979C155.983,132.64 159.587,138.388 164.156,141.322Z" style="fill:#ffdf42;"/><path d="M203.019,30.938C211.61,29.68 220.563,39.01 222.365,53.415C224.167,67.821 214.096,78.288 209.55,83.14C201.545,91.685 195.108,101.441 196.911,115.847C198.713,130.253 207.49,136.6 216.081,135.343L199.978,137.7C191.388,138.957 182.61,132.609 180.808,118.204C179.006,103.798 185.443,94.042 193.448,85.497C197.993,80.645 208.065,70.178 206.263,55.772C204.46,41.366 195.507,32.037 186.917,33.294C178.326,34.552 194.428,32.195 203.019,30.938Z" style="fill:#4ecdc4;"/><path d="M157.117,37.656C165.707,36.398 174.66,45.728 176.463,60.133C178.265,74.539 168.193,85.006 163.648,89.858C155.643,98.403 149.206,108.159 151.008,122.565C152.81,136.971 161.588,143.318 170.178,142.061L156.157,144.113C147.566,145.371 138.789,139.023 136.986,124.617C135.184,110.211 141.621,100.455 149.626,91.911C154.171,87.058 164.243,76.591 162.441,62.186C160.638,47.78 151.685,38.451 143.095,39.708C134.504,40.965 148.526,38.913 157.117,37.656Z" style="fill:#4ecdc4;"/><path d="M143.095,39.708C151.685,38.451 160.638,47.78 162.441,62.186C164.243,76.591 154.171,87.058 149.626,91.911C141.621,100.455 135.184,110.211 136.986,124.617C138.789,139.023 147.566,145.371 156.157,144.113L124.099,148.805C115.509,150.062 106.731,143.715 104.929,129.309C103.127,114.903 109.564,105.147 117.568,96.602C122.114,91.75 132.186,81.283 130.383,66.877C128.581,52.472 119.628,43.142 111.038,44.4C102.447,45.657 134.504,40.965 143.095,39.708Z" style="fill:#ef8076;"/><g><path d="M99.84,62.817C90.214,64.226 83.719,75.92 85.344,88.916C86.97,101.912 96.105,111.319 105.731,109.91C115.357,108.501 121.852,96.807 120.226,83.811C118.6,70.815 109.465,61.408 99.84,62.817Z" style="fill:#0e334f;"/><path d="M135.418,133.907C132.682,112.04 118.663,96.013 104.13,98.14C89.598,100.267 80.021,119.747 82.756,141.615C83.866,150.487 136.47,142.319 135.418,133.907Z" style="fill:#0e334f;"/></g><path d="M69.754,110.819C61.048,112.094 54.936,120.773 56.114,130.19C57.292,139.607 65.317,146.217 74.023,144.943C82.729,143.669 88.841,134.989 87.663,125.573C86.485,116.156 78.46,109.545 69.754,110.819Z" style="fill:#175482;stroke:#ffd70d;stroke-width:5px;"/><g><path d="M239.454,96.943C243.115,96.407 246.649,100.456 247.339,105.979C248.03,111.501 245.619,116.42 241.958,116.956C238.297,117.492 234.763,113.443 234.073,107.92C233.382,102.398 235.793,97.479 239.454,96.943Z" style="fill:none;stroke:#0e334f;stroke-width:7px;"/><path d="M225.95,99.268L217.461,100.986L217.816,108.724C217.816,108.724 221.07,108.908 223.719,108.52C226.368,108.132 228.439,109.363 229.137,112.759C230.542,119.601 222.193,120.014 219.545,120.402" style="fill:none;stroke:#0e334f;stroke-width:7px;"/></g><path d="M186.917,33.294C195.507,32.037 204.46,41.366 206.263,55.772C208.065,70.178 197.993,80.645 193.448,85.497C185.443,94.042 179.006,103.798 180.808,118.204C182.61,132.609 191.388,138.957 199.978,137.7L170.178,142.061C161.588,143.318 152.81,136.971 151.008,122.565C149.206,108.159 155.643,98.403 163.648,89.858C168.193,85.006 178.265,74.539 176.463,60.133C174.66,45.728 165.707,36.398 157.117,37.656C148.526,38.913 178.326,34.552 186.917,33.294Z" style="fill:none;stroke:#0e334f;stroke-width:5px;"/><path d="M36.831,60.323C36.47,57.434 38.515,54.747 41.395,54.325L243.568,24.736C246.449,24.315 249.08,26.318 249.442,29.207L261.229,123.425C261.59,126.314 259.545,129.002 256.665,129.423L54.492,159.012C51.612,159.434 48.98,157.431 48.618,154.542L36.831,60.323Z" style="fill:none;stroke:#0e334f;stroke-width:5px;"/></g><g><clipPath id="_clip1"><path d="M100.039,44.102L230.881,1.366C233.461,0.523 236.189,2.105 236.968,4.895L242.109,23.309L244.103,23.017C246.774,22.627 249.236,24.655 249.597,27.544L254.717,68.466L262.38,95.913C263.159,98.703 261.697,101.653 259.117,102.496L258.98,102.541L261.384,121.762C261.746,124.651 259.871,127.313 257.2,127.705L193.957,136.961C189.387,134.026 185.783,128.278 184.699,119.618C184.013,114.128 184.522,109.313 185.859,104.984C182.924,91.995 187.701,81.802 194.045,72.453C197.825,66.884 206.239,54.827 202.354,40.91C202.14,40.145 201.907,39.398 201.656,38.671C198.39,35.633 194.564,34.159 190.808,34.708L167.478,38.123C168.273,39.103 169.027,40.174 169.731,41.33C174.931,44.864 179.174,52.118 180.354,61.548C182.156,75.953 172.084,86.42 167.539,91.273C162.727,96.409 158.481,101.983 156.252,108.742C156.404,111.162 156.823,113.68 157.558,116.312C159.894,124.679 164.294,129.738 169.234,131.854L158.538,135.348C160.093,137.962 162.019,139.95 164.156,141.322L120.836,147.662L63.079,166.527C60.499,167.369 57.772,165.788 56.993,162.997L55.385,157.241L54.268,157.405C51.597,157.795 49.135,155.767 48.774,152.878L44.395,117.877L31.581,71.98C30.801,69.189 32.264,66.239 34.844,65.396L37.712,64.459L36.987,58.66C36.625,55.771 38.5,53.108 41.171,52.717L100.039,44.102ZM197.162,29.888C192.323,23.23 185.691,20.154 179.965,22.024C171.667,24.734 142.879,34.137 151.178,31.426C155.363,30.06 160.033,31.335 164.132,34.722L197.162,29.888Z"/></clipPath><g clip-path="url(#_clip1)"><path d="M51.56,35.301C51.979,35.307 52.397,35.323 52.816,35.35C120.746,40.6 188.607,46.703 256.503,52.38C266.749,53.304 275.29,63.085 274.6,73.491L274.484,74.596C274.306,75.566 274.289,75.817 274.001,76.762C271.645,84.486 262.057,89.188 254.339,85.824C252.64,85.084 251.088,84.016 249.79,82.695C248.637,81.522 248.221,80.789 248.221,80.789L56.602,64.767L55.849,65.489C55.087,66.115 54.912,66.296 54.081,66.832C45.014,72.679 30.174,65.012 31.888,52.365C33.129,43.204 41.413,35.54 51.059,35.304C51.31,35.301 51.309,35.301 51.56,35.301ZM245.661,71.61C245.596,72.869 245.669,71.483 245.661,71.61ZM60.604,56.404C60.784,55.255 60.636,56.139 60.604,56.404Z" style="fill:#0e334f;fill-opacity:0.301961;fill-rule:nonzero;"/></g></g><g><path d="M159.802,164.32L49.242,155.075C46.555,154.851 44.542,152.308 44.749,149.402L51.525,54.608C51.732,51.701 54.083,49.524 56.77,49.748L260.942,66.82C263.629,67.045 265.642,69.587 265.434,72.493L258.659,167.287C258.451,170.194 256.101,172.371 253.414,172.147L189.784,166.826C185.886,162.919 183.479,156.481 184.102,147.767C185.138,133.274 193.326,125.198 202.811,118.662C208.198,114.951 220.078,107.006 221.114,92.512C222.15,78.019 215.208,66.863 206.565,66.141C197.922,65.418 167.94,62.911 176.583,63.634C185.226,64.356 192.168,75.512 191.132,90.006C190.096,104.499 178.216,112.444 172.829,116.155C163.343,122.691 155.155,130.767 154.119,145.26C153.497,153.974 155.904,160.413 159.802,164.32Z" style="fill:#ffdf42;"/><g><clipPath id="_clip2"><path d="M153.802,159.32L43.242,150.075C40.555,149.851 38.542,147.308 38.749,144.402L45.525,49.608C45.732,46.701 48.083,44.524 50.77,44.748L254.942,61.82C257.629,62.045 259.642,64.587 259.434,67.493L252.659,162.287C252.451,165.194 250.101,167.371 247.414,167.147L183.784,161.826C179.886,157.919 177.479,151.481 178.102,142.767C179.138,128.274 187.326,120.198 196.811,113.662C202.198,109.951 214.078,102.006 215.114,87.512C216.15,73.019 209.208,61.863 200.565,61.141C191.922,60.418 161.94,57.911 170.583,58.634C179.226,59.356 186.168,70.512 185.132,85.006C184.096,99.499 172.216,107.444 166.829,111.155C157.343,117.691 149.155,125.767 148.119,140.26C147.497,148.974 149.904,155.413 153.802,159.32Z"/></clipPath><g clip-path="url(#_clip2)"><path d="M12.815,91.253L156.559,41.833" style="fill:none;stroke:#f7fff7;stroke-opacity:0.3;stroke-width:25px;"/><path d="M32.763,111.443L176.507,62.023" style="fill:none;stroke:#f7fff7;stroke-opacity:0.3;stroke-width:13px;"/></g></g><path d="M214.409,58.676C223.052,59.399 229.993,70.554 228.957,85.048C227.921,99.542 216.042,107.487 210.655,111.198C201.169,117.733 192.981,125.809 191.945,140.303C190.909,154.797 198.258,162.997 206.901,163.72L190.7,162.365C182.057,161.643 174.709,153.442 175.745,138.948C176.78,124.455 184.969,116.379 194.454,109.843C199.841,106.132 211.721,98.187 212.757,83.693C213.793,69.2 206.851,58.044 198.208,57.322C189.565,56.599 205.766,57.953 214.409,58.676Z" style="fill:#4ecdc4;"/><path d="M168.226,54.815C176.869,55.537 183.81,66.693 182.774,81.187C181.739,95.68 169.859,103.625 164.472,107.336C154.986,113.872 146.798,121.948 145.762,136.441C144.726,150.935 152.075,159.136 160.718,159.858L146.611,158.679C137.968,157.956 130.619,149.756 131.655,135.262C132.691,120.768 140.879,112.692 150.365,106.157C155.751,102.446 167.631,94.501 168.667,80.007C169.703,65.513 162.762,54.358 154.118,53.635C145.475,52.912 159.583,54.092 168.226,54.815Z" style="fill:#4ecdc4;"/><path d="M154.118,53.635C162.762,54.358 169.703,65.513 168.667,80.007C167.631,94.501 155.751,102.446 150.365,106.157C140.879,112.692 132.691,120.768 131.655,135.262C130.619,149.756 137.968,157.956 146.611,158.679L114.358,155.982C105.714,155.259 98.366,147.059 99.402,132.565C100.438,118.071 108.626,109.995 118.111,103.46C123.498,99.749 135.378,91.804 136.414,77.31C137.45,62.816 130.508,51.661 121.865,50.938C113.222,50.216 145.475,52.912 154.118,53.635Z" style="fill:#ef8076;"/><path d="M65.475,103.38C56.716,102.647 49.055,109.745 48.377,119.219C47.7,128.693 54.262,136.979 63.022,137.712C71.781,138.444 79.442,131.347 80.119,121.873C80.797,112.399 74.235,104.112 65.475,103.38Z" style="fill:#175482;stroke:#f9f1a8;stroke-width:5px;"/><g><path d="M237.211,131.487C240.895,131.795 243.563,136.556 243.166,142.113C242.769,147.669 239.456,151.93 235.772,151.622C232.089,151.315 229.421,146.553 229.818,140.997C230.215,135.44 233.528,131.179 237.211,131.487Z" style="fill:none;stroke:#0e334f;stroke-width:5px;"/><path d="M223.557,130.692L214.924,130.443L213.768,138.089C213.768,138.089 216.914,139.008 219.579,139.231C222.244,139.454 224.03,141.127 224.052,144.606C224.098,151.615 215.855,150.121 213.19,149.899" style="fill:none;stroke:#0e334f;stroke-width:5px;"/></g><path d="M198.208,57.322C206.851,58.044 213.793,69.2 212.757,83.693C211.721,98.187 199.841,106.132 194.454,109.843C184.969,116.379 176.78,124.455 175.745,138.948C174.709,153.442 182.057,161.643 190.7,162.365L160.718,159.858C152.075,159.136 144.726,150.935 145.762,136.441C146.798,121.948 154.986,113.872 164.472,107.336C169.859,103.625 181.739,95.68 182.774,81.187C183.81,66.693 176.869,55.537 168.226,54.815C159.583,54.092 189.565,56.599 198.208,57.322Z" style="fill:none;stroke:#0e334f;stroke-width:5px;"/><path d="M46.222,49.646C46.43,46.74 48.956,44.577 51.859,44.82L255.247,61.825C258.151,62.068 260.34,64.625 260.132,67.532L253.357,162.326C253.149,165.233 250.623,167.395 247.719,167.152L44.331,150.147C41.428,149.904 39.239,147.347 39.447,144.44L46.222,49.646Z" style="fill:none;stroke:#0e334f;stroke-width:5px;stroke-dasharray:300,25,10,25;"/><path d="M57.09,57.338L99.428,60.536" style="fill:none;stroke:#0e334f;stroke-width:5px;stroke-dasharray:20,10,25,15;"/><path d="M250.123,81.538L247.808,112.902" style="fill:none;stroke:#0e334f;stroke-width:5px;stroke-dasharray:15,10,15,10;"/></g></g></svg>