<?xml version="1.0" encoding="UTF-8" standalone="no"?>
<!-- Created with Keyshape -->
<svg xmlns="http://www.w3.org/2000/svg" xmlns:xlink="http://www.w3.org/1999/xlink" viewBox="0 0 260.145 223" clip-rule="evenodd" fill-rule="evenodd" stroke-linecap="round" stroke-linejoin="round" stroke-miterlimit="1.5" style="white-space: preserve-spaces; background: rgba(23,84,130,0.00);">
    <g transform="translate(124.121,128.721) translate(-113.021,-63.717)">
        <g id="Money" transform="translate(118.021,48.7169) translate(0,0) translate(-113.021,-63.717)">
            <g id="Bottom" transform="translate(-2.10231,-2.00422) translate(0,0) translate(0,0)">
                <path d="M171.841,20.664L224.639,25.098C227.326,25.324,229.338,27.867,229.13,30.773L222.321,125.565C222.112,128.471,219.761,130.648,217.073,130.422L154.055,125.13C148.357,120.182,143.735,111.679,144.416,102.196C145.457,87.703,153.648,79.63,163.136,73.098C168.524,69.389,180.407,61.448,181.448,46.954C182.282,35.347,177.591,26.049,171.841,20.664ZM123.396,122.556L12.908,113.278C10.221,113.052,8.208,110.509,8.417,107.603L15.226,12.811C15.435,9.905,17.786,7.728,20.473,7.954L140.829,18.06C146.953,24.1,152.17,34.648,151.467,44.437C150.426,58.93,138.543,66.871,133.155,70.58C123.667,77.112,115.476,85.185,114.435,99.678C113.689,110.064,117.967,117.955,123.396,122.556ZM34.158,64.59C25.399,63.854,17.735,70.949,17.055,80.423C16.374,89.897,22.933,98.185,31.692,98.921C40.452,99.656,48.115,92.562,48.796,83.088C49.476,73.614,42.918,65.325,34.158,64.59Z" fill="#ffdf42" transform="translate(-5,-5)"/>
                <path d="M34.158,64.59C25.399,63.854,17.735,70.949,17.055,80.423C16.374,89.897,22.933,98.185,31.692,98.921C40.452,99.656,48.115,92.562,48.796,83.088C49.476,73.614,42.918,65.325,34.158,64.59Z" fill="none" stroke="#f9f1a8" stroke-width="5px" transform="translate(-5,-5)"/>
                <path d="M129.42,17.102L140.829,18.06C142.511,19.719,144.125,21.718,145.565,23.949C144.845,25.014,144.354,25.612,142.317,26.418L30.922,64.672C28.983,64.937,27.141,65.584,25.47,66.545L11.01,71.511L12.022,57.418L129.42,17.102ZM113.144,15.736L12.534,50.286L14.481,23.184L51.296,10.542L113.144,15.736Z" fill="#f7fff7" fill-opacity="0.3" fill-rule="nonzero" transform="translate(-5,-5)"/>
                <path d="M178.109,16.938C186.752,17.663,193.689,28.821,192.648,43.315C191.607,57.808,179.725,65.749,174.336,69.458C164.848,75.99,156.657,84.063,155.616,98.556C154.575,113.05,161.921,121.253,170.564,121.979L154.364,120.618C145.721,119.893,138.375,111.69,139.416,97.196C140.457,82.703,148.648,74.63,158.136,68.098C163.524,64.389,175.407,56.448,176.448,41.954C177.489,27.461,170.552,16.303,161.909,15.577C153.266,14.852,169.466,16.212,178.109,16.938Z" fill="#4ecdc4"/>
                <path d="M131.928,13.06C140.57,13.785,147.508,24.943,146.467,39.437C145.426,53.93,133.543,61.871,128.155,65.58C118.667,72.112,110.476,80.185,109.435,94.678C108.394,109.172,115.739,117.375,124.382,118.101L110.275,116.916C101.632,116.19,94.287,107.987,95.328,93.494C96.369,79,104.56,70.927,114.048,64.396C119.436,60.686,131.318,52.746,132.36,38.252C133.401,23.759,126.463,12.601,117.82,11.875C109.178,11.149,123.285,12.334,131.928,13.06Z" fill="#4ecdc4"/>
                <path d="M117.82,11.875C126.463,12.601,133.401,23.759,132.36,38.252C131.318,52.746,119.436,60.686,114.048,64.396C104.56,70.927,96.369,79,95.328,93.494C94.287,107.987,101.632,116.19,110.275,116.916L78.023,114.208C69.38,113.482,62.034,105.279,63.075,90.786C64.117,76.292,72.308,68.219,81.796,61.687C87.184,57.978,99.066,50.037,100.107,35.544C101.148,21.05,94.211,9.893,85.568,9.167C76.925,8.441,109.178,11.149,117.82,11.875Z" fill="#ef8076"/>
                <g>
                    <path d="M200.885,89.757C204.569,90.066,207.235,94.828,206.836,100.385C206.437,105.941,203.122,110.201,199.439,109.892C195.756,109.582,193.089,104.82,193.488,99.264C193.888,93.707,197.202,89.447,200.885,89.757Z" fill="none" stroke="#0e334f" stroke-width="5px"/>
                    <path d="M187.231,88.957L178.598,88.704L177.439,96.35C177.439,96.35,180.585,97.27,183.25,97.494C185.915,97.718,187.7,99.392,187.722,102.871C187.765,109.88,179.522,108.384,176.857,108.16" fill="none" stroke="#0e334f" stroke-width="5px"/>
                </g>
                <path d="M9.925,7.848C10.134,4.941,12.661,2.779,15.565,3.023L218.946,20.102C221.85,20.345,224.038,22.903,223.829,25.81L217.02,120.601C216.811,123.508,214.284,125.67,211.381,125.426L7.999,108.347C5.095,108.104,2.908,105.546,3.116,102.639L9.925,7.848Z" fill="none" stroke="#0e334f" stroke-dasharray="300,25,10,25" stroke-width="5px"/>
                <path d="M20.79,15.543L63.127,18.757" fill="none" stroke="#0e334f" stroke-dasharray="20,10,25,15" stroke-width="5px"/>
                <path d="M213.815,39.813L211.489,71.176" fill="none" stroke="#0e334f" stroke-dasharray="15,10,15,10" stroke-width="5px"/>
            </g>
            <g id="Mid" transform="translate(-2.10231,-2.00422) translate(0,0) translate(0,0)">
                <path d="M171.841,20.664L224.639,25.098C227.326,25.324,229.338,27.867,229.13,30.773L222.321,125.565C222.112,128.471,219.761,130.648,217.073,130.422L154.055,125.13C148.357,120.182,143.735,111.679,144.416,102.196C145.457,87.703,153.648,79.63,163.136,73.098C168.524,69.389,180.407,61.448,181.448,46.954C182.282,35.347,177.591,26.049,171.841,20.664ZM123.396,122.556L12.908,113.278C10.221,113.052,8.208,110.509,8.417,107.603L15.226,12.811C15.435,9.905,17.786,7.728,20.473,7.954L140.829,18.06C146.953,24.1,152.17,34.648,151.467,44.437C150.426,58.93,138.543,66.871,133.155,70.58C123.667,77.112,115.476,85.185,114.435,99.678C113.689,110.064,117.967,117.955,123.396,122.556ZM34.158,64.59C25.399,63.854,17.735,70.949,17.055,80.423C16.374,89.897,22.933,98.185,31.692,98.921C40.452,99.656,48.115,92.562,48.796,83.088C49.476,73.614,42.918,65.325,34.158,64.59Z" fill="#ffdf42" transform="translate(-5,-5)"/>
                <path d="M34.158,64.59C25.399,63.854,17.735,70.949,17.055,80.423C16.374,89.897,22.933,98.185,31.692,98.921C40.452,99.656,48.115,92.562,48.796,83.088C49.476,73.614,42.918,65.325,34.158,64.59Z" fill="none" stroke="#f9f1a8" stroke-width="5px" transform="translate(-5,-5)"/>
                <path d="M129.42,17.102L140.829,18.06C142.511,19.719,144.125,21.718,145.565,23.949C144.845,25.014,144.354,25.612,142.317,26.418L30.922,64.672C28.983,64.937,27.141,65.584,25.47,66.545L11.01,71.511L12.022,57.418L129.42,17.102ZM113.144,15.736L12.534,50.286L14.481,23.184L51.296,10.542L113.144,15.736Z" fill="#f7fff7" fill-opacity="0.3" fill-rule="nonzero" transform="translate(-5,-5)"/>
                <path d="M178.109,16.938C186.752,17.663,193.689,28.821,192.648,43.315C191.607,57.808,179.725,65.749,174.336,69.458C164.848,75.99,156.657,84.063,155.616,98.556C154.575,113.05,161.921,121.253,170.564,121.979L154.364,120.618C145.721,119.893,138.375,111.69,139.416,97.196C140.457,82.703,148.648,74.63,158.136,68.098C163.524,64.389,175.407,56.448,176.448,41.954C177.489,27.461,170.552,16.303,161.909,15.577C153.266,14.852,169.466,16.212,178.109,16.938Z" fill="#4ecdc4"/>
                <path d="M131.928,13.06C140.57,13.785,147.508,24.943,146.467,39.437C145.426,53.93,133.543,61.871,128.155,65.58C118.667,72.112,110.476,80.185,109.435,94.678C108.394,109.172,115.739,117.375,124.382,118.101L110.275,116.916C101.632,116.19,94.287,107.987,95.328,93.494C96.369,79,104.56,70.927,114.048,64.396C119.436,60.686,131.318,52.746,132.36,38.252C133.401,23.759,126.463,12.601,117.82,11.875C109.178,11.149,123.285,12.334,131.928,13.06Z" fill="#4ecdc4"/>
                <path d="M117.82,11.875C126.463,12.601,133.401,23.759,132.36,38.252C131.318,52.746,119.436,60.686,114.048,64.396C104.56,70.927,96.369,79,95.328,93.494C94.287,107.987,101.632,116.19,110.275,116.916L78.023,114.208C69.38,113.482,62.034,105.279,63.075,90.786C64.117,76.292,72.308,68.219,81.796,61.687C87.184,57.978,99.066,50.037,100.107,35.544C101.148,21.05,94.211,9.893,85.568,9.167C76.925,8.441,109.178,11.149,117.82,11.875Z" fill="#ef8076"/>
                <g>
                    <path d="M200.885,89.757C204.569,90.066,207.235,94.828,206.836,100.385C206.437,105.941,203.122,110.201,199.439,109.892C195.756,109.582,193.089,104.82,193.488,99.264C193.888,93.707,197.202,89.447,200.885,89.757Z" fill="none" stroke="#0e334f" stroke-width="5px"/>
                    <path d="M187.231,88.957L178.598,88.704L177.439,96.35C177.439,96.35,180.585,97.27,183.25,97.494C185.915,97.718,187.7,99.392,187.722,102.871C187.765,109.88,179.522,108.384,176.857,108.16" fill="none" stroke="#0e334f" stroke-width="5px"/>
                </g>
                <path d="M9.925,7.848C10.134,4.941,12.661,2.779,15.565,3.023L218.946,20.102C221.85,20.345,224.038,22.903,223.829,25.81L217.02,120.601C216.811,123.508,214.284,125.67,211.381,125.426L7.999,108.347C5.095,108.104,2.908,105.546,3.116,102.639L9.925,7.848Z" fill="none" stroke="#0e334f" stroke-dasharray="300,25,10,25" stroke-width="5px"/>
                <path d="M20.79,15.543L63.127,18.757" fill="none" stroke="#0e334f" stroke-dasharray="20,10,25,15" stroke-width="5px"/>
                <path d="M213.815,39.813L211.489,71.176" fill="none" stroke="#0e334f" stroke-dasharray="15,10,15,10" stroke-width="5px"/>
            </g>
            <g id="Top" transform="translate(-3.10231,-3.00422)">
                <path d="M171.841,20.664L224.639,25.098C227.326,25.324,229.338,27.867,229.13,30.773L222.321,125.565C222.112,128.471,219.761,130.648,217.073,130.422L154.055,125.13C148.357,120.182,143.735,111.679,144.416,102.196C145.457,87.703,153.648,79.63,163.136,73.098C168.524,69.389,180.407,61.448,181.448,46.954C182.282,35.347,177.591,26.049,171.841,20.664ZM123.396,122.556L12.908,113.278C10.221,113.052,8.208,110.509,8.417,107.603L15.226,12.811C15.435,9.905,17.786,7.728,20.473,7.954L140.829,18.06C146.953,24.1,152.17,34.648,151.467,44.437C150.426,58.93,138.543,66.871,133.155,70.58C123.667,77.112,115.476,85.185,114.435,99.678C113.689,110.064,117.967,117.955,123.396,122.556ZM34.158,64.59C25.399,63.854,17.735,70.949,17.055,80.423C16.374,89.897,22.933,98.185,31.692,98.921C40.452,99.656,48.115,92.562,48.796,83.088C49.476,73.614,42.918,65.325,34.158,64.59Z" fill="#ffdf42"/>
                <path d="M34.158,64.59C25.399,63.854,17.735,70.949,17.055,80.423C16.374,89.897,22.933,98.185,31.692,98.921C40.452,99.656,48.115,92.562,48.796,83.088C49.476,73.614,42.918,65.325,34.158,64.59Z" fill="none" stroke="#f9f1a8" stroke-width="5px"/>
                <path d="M129.42,17.102L140.829,18.06C142.511,19.719,144.125,21.718,145.565,23.949C144.845,25.014,144.354,25.612,142.317,26.418L30.922,64.672C28.983,64.937,27.141,65.584,25.47,66.545L11.01,71.511L12.022,57.418L129.42,17.102ZM113.144,15.736L12.534,50.286L14.481,23.184L51.296,10.542L113.144,15.736Z" fill="#f7fff7" fill-opacity="0.3" fill-rule="nonzero"/>
                <path d="M178.109,16.938C186.752,17.663,193.689,28.821,192.648,43.315C191.607,57.808,179.725,65.749,174.336,69.458C164.848,75.99,156.657,84.063,155.616,98.556C154.575,113.05,161.921,121.253,170.564,121.979L154.364,120.618C145.721,119.893,138.375,111.69,139.416,97.196C140.457,82.703,148.648,74.63,158.136,68.098C163.524,64.389,175.407,56.448,176.448,41.954C177.489,27.461,170.552,16.303,161.909,15.577C153.266,14.852,169.466,16.212,178.109,16.938Z" fill="#4ecdc4"/>
                <path d="M131.928,13.06C140.57,13.785,147.508,24.943,146.467,39.437C145.426,53.93,133.543,61.871,128.155,65.58C118.667,72.112,110.476,80.185,109.435,94.678C108.394,109.172,115.739,117.375,124.382,118.101L110.275,116.916C101.632,116.19,94.287,107.987,95.328,93.494C96.369,79,104.56,70.927,114.048,64.396C119.436,60.686,131.318,52.746,132.36,38.252C133.401,23.759,126.463,12.601,117.82,11.875C109.178,11.149,123.285,12.334,131.928,13.06Z" fill="#4ecdc4"/>
                <path d="M117.82,11.875C126.463,12.601,133.401,23.759,132.36,38.252C131.318,52.746,119.436,60.686,114.048,64.396C104.56,70.927,96.369,79,95.328,93.494C94.287,107.987,101.632,116.19,110.275,116.916L78.023,114.208C69.38,113.482,62.034,105.279,63.075,90.786C64.117,76.292,72.308,68.219,81.796,61.687C87.184,57.978,99.066,50.037,100.107,35.544C101.148,21.05,94.211,9.893,85.568,9.167C76.925,8.441,109.178,11.149,117.82,11.875Z" fill="#ef8076"/>
                <g>
                    <path d="M200.885,89.757C204.569,90.066,207.235,94.828,206.836,100.385C206.437,105.941,203.122,110.201,199.439,109.892C195.756,109.582,193.089,104.82,193.488,99.264C193.888,93.707,197.202,89.447,200.885,89.757Z" fill="none" stroke="#0e334f" stroke-width="5px"/>
                    <path d="M187.231,88.957L178.598,88.704L177.439,96.35C177.439,96.35,180.585,97.27,183.25,97.494C185.915,97.718,187.7,99.392,187.722,102.871C187.765,109.88,179.522,108.384,176.857,108.16" fill="none" stroke="#0e334f" stroke-width="5px"/>
                </g>
                <path d="M9.925,7.848C10.134,4.941,12.661,2.779,15.565,3.023L218.946,20.102C221.85,20.345,224.038,22.903,223.829,25.81L217.02,120.601C216.811,123.508,214.284,125.67,211.381,125.426L7.999,108.347C5.095,108.104,2.908,105.546,3.116,102.639L9.925,7.848Z" fill="none" stroke="#0e334f" stroke-dasharray="300,25,10,25" stroke-width="5px"/>
                <path d="M20.79,15.543L63.127,18.757" fill="none" stroke="#0e334f" stroke-dasharray="20,10,25,15" stroke-width="5px"/>
                <path d="M213.815,39.813L211.489,71.176" fill="none" stroke="#0e334f" stroke-dasharray="15,10,15,10" stroke-width="5px"/>
            </g>
        </g>
    </g>
    <script xlink:href="keyshapejs-1.0.0.min.js"/>
    <script><![CDATA[if(KeyshapeJS.version.indexOf('1.')!=0)throw Error('Expected KeyshapeJS v1.*.*');window.ks=document.ks=KeyshapeJS;(function(ks){
ks.animate("#Money",[{p:'mpath',t:[0,700,3000,3700,6000],v:['0%','49.996928%','49.997627%','100%','100%'],e:[[1,0.42,0,1,1],[1,0.42,0,1,1],[1,0.42,0,1,1],[1,0.42,0,1,1],[0]],iterations:Infinity,mp:"M118.021,48.717L134.024,79.717L134.024,79.7168L118.021,48.7127L118.021,48.7127"},{p:'rotate',t:[0,700,1100,3000,3400,3700,6000],v:[0,-15,-15,-15,-15,0,0],e:[[1,0.42,0,1,1],[1,0.42,0,1,1],[1,0.42,0,1,1],[1,0.42,0,1,1],[1,0.42,0,1,1],[1,0.42,0,1,1],[0]],iterations:Infinity}],
"#Bottom",[{p:'mpath',t:[0,700,3000,3700,6000],v:['0%','50.000017%','50.000017%','100%','100%'],e:[[1,0.42,0,1,1],[1,0.42,0,1,1],[1,0.42,0,1,1],[1,0.42,0,1,1],[0]],iterations:Infinity,mp:"M-2.10231,-2.00422L-22.1023,-22.0042L-22.1023,-22.0042L-2.10231,-2.00422L-2.10231,-2.00422"},{p:'rotate',t:[0,700,3000,3700,6000],v:[0,-15,-15,0,0],e:[[1,0.42,0,1,1],[1,0.42,0,1,1],[1,0.42,0,1,1],[1,0.42,0,1,1],[0]],iterations:Infinity}],
"#Mid",[{p:'mpath',t:[0,700,3000,3700,6000],v:['0%','50.00004%','50.00004%','100%','100%'],e:[[1,0.42,0,1,1],[1,0.42,0,1,1],[1,0.42,0,1,1],[1,0.42,0,1,1],[0]],iterations:Infinity,mp:"M-2.10231,-2.00422L-12.1023,-12.0042L-12.1023,-12.0042L-2.10231,-2.00422L-2.10231,-2.00422"},{p:'rotate',t:[0,700,3000,3700,6000],v:[0,-5,-5,0,0],e:[[1,0.42,0,1,1],[1,0.42,0,1,1],[1,0.42,0,1,1],[1,0.42,0,1,1],[0]],iterations:Infinity}],
"#Top",[{p:'rotate',t:[0,700,3000,3700,6000],v:[0,5,5,0,0],e:[[0],[0],[0],[0],[0]]}],
{autoremove:false}).range(0,6000).loop(true);
if(document.location.search.substr(1).split('&').indexOf('global=paused')>=0)ks.globalPause()})(KeyshapeJS);
]]></script>
</svg>
