<?xml version="1.0" encoding="UTF-8" standalone="no"?>
<!-- Created with Keyshape -->
<svg xmlns="http://www.w3.org/2000/svg" xmlns:xlink="http://www.w3.org/1999/xlink" width="100%" height="100%" viewBox="0 0 291 214" clip-rule="evenodd" fill-rule="evenodd" stroke-linecap="round" stroke-linejoin="round" stroke-miterlimit="1.5" style="white-space: preserve-spaces; background: rgba(23,84,130,0.00);">
    <defs>
        <clipPath id="_clip1">
            <path d="M219.32,63.937C219.32,63.937,218.372,76.172,217.359,89.26C215.866,108.544,203.384,125.238,185.309,132.124C175.787,135.792,165.52,139.683,157.047,142.728C147.13,146.292,137.048,146.741,127.304,142.728C118.698,139.184,108.329,135.143,98.758,131.486C80.81,124.541,68.442,107.909,66.956,88.722C65.953,75.839,65.031,63.937,65.031,63.937L219.32,63.937Z"/>
        </clipPath>
        <clipPath id="_clip2">
            <path d="M141.352,8.858L282.372,58.401L141.352,107.945L0.332,58.401L141.352,8.858Z"/>
        </clipPath>
    </defs>
    <path d="M219.32,63.937C219.32,63.937,218.372,76.172,217.359,89.26C215.866,108.544,203.384,125.238,185.309,132.124C175.787,135.792,165.52,139.683,157.047,142.728C147.13,146.292,137.048,146.741,127.304,142.728C118.698,139.184,108.329,135.143,98.758,131.486C80.81,124.541,68.442,107.909,66.956,88.722C65.953,75.839,65.031,63.937,65.031,63.937L219.32,63.937Z" fill="#4ecdc4"/>
    <path d="M219.32,63.937C219.32,63.937,218.372,76.172,217.359,89.26C215.866,108.544,203.384,125.238,185.309,132.124C175.787,135.792,165.52,139.683,157.047,142.728C147.13,146.292,137.048,146.741,127.304,142.728C118.698,139.184,108.329,135.143,98.758,131.486C80.81,124.541,68.442,107.909,66.956,88.722C65.953,75.839,65.031,63.937,65.031,63.937L219.32,63.937Z" fill="#0e334f" fill-opacity="0.2"/>
    <path d="M223.693,68.311C223.693,68.311,222.758,80.199,221.752,92.99C220.233,112.297,207.702,128.991,189.586,135.839C179.986,139.542,169.701,143.405,161.42,146.227C151.446,149.626,141.497,150.051,131.677,146.227C122.647,142.71,112.475,138.79,103.205,135.233C85.225,128.318,72.817,111.69,71.306,92.486C70.315,79.889,69.404,68.311,69.404,68.311L223.693,68.311Z" fill="none" stroke="#0e334f" stroke-width="5px"/>
    <g clip-path="url(#_clip1)">
        <path d="M215.747,50.227C217.586,50.422,218.085,50.628,219.044,51.037C222.702,52.599,225.295,56.381,225.415,60.377C225.43,60.883,225.413,61.009,225.387,61.513C224.678,70.528,223.989,79.544,223.259,88.557C221.502,109.001,207.568,127.634,188.041,134.911C177.631,138.738,167.26,142.72,157.583,147.872C157.583,147.872,152.443,150.067,148.26,148.14C141.679,145.11,140.162,134.41,146.745,129.93C149.502,128.054,152.526,126.859,155.486,125.48C163.812,121.604,172.392,118.385,181.041,115.117C192.737,110.637,201.329,99.3,202.353,86.649L204.46,59.867C204.655,58.028,204.861,57.528,205.271,56.569C206.758,53.085,210.247,50.551,214.043,50.232C215.141,50.139,215.397,50.209,215.747,50.227Z" fill="#0e334f" fill-opacity="0.301961" fill-rule="nonzero"/>
    </g>
    <path d="M141.352,8.858L282.372,58.401L141.352,107.945L0.332,58.401L141.352,8.858Z" fill="#4ecdc4"/>
    <g>
        <g clip-path="url(#_clip2)">
            <path d="M38.293,76.321L199.329,13.428" fill="none" stroke="#f7fff7" stroke-opacity="0.3" stroke-width="25px"/>
            <path d="M62.642,95.814L223.678,32.921" fill="none" stroke="#f7fff7" stroke-opacity="0.3" stroke-width="13px"/>
        </g>
    </g>
    <path d="M146.6,13.231L287.62,62.775L146.6,112.318L5.58,62.775L146.6,13.231Z" fill="none" stroke="#0e334f" stroke-dasharray="200,25,10,25" stroke-dashoffset="400" stroke-width="5px"/>
    <path d="M287.62,69.772L146.6,119.315L5.58,69.772" fill="none" stroke="#0e334f" stroke-dasharray="500,25,10,25" stroke-dashoffset="450" stroke-width="5px"/>
    <ellipse rx="12.015" ry="6.99" fill="#ffd70d" stroke="#0e334f" stroke-width="5px" transform="translate(0,0) translate(146.6,62.775)"/>
    <path id="_a0" d="M146.011,63.029C146.011,63.029,245.862,77.127,245.921,77.127C245.98,77.127,245.921,165.328,245.921,165.328" fill="none" stroke="#0e334f" stroke-width="7.5px"/>
    <g id="tassle" transform="translate(246.405,187.06) translate(0,0) translate(-10.284,-24.224)">
        <path d="M253.117,211.284L239.287,211.284L242.745,179.858L249.66,179.858L253.117,211.284Z" fill="#ffd70d" stroke="#0e334f" stroke-width="5px" transform="translate(-236.121,-162.836)"/>
        <ellipse rx="10.284" ry="10.284" fill="#eb4034" stroke="#0e334f" stroke-width="5px" transform="translate(-236.121,-162.836) translate(246.405,173.12)"/>
    </g>
</svg>

