<?xml version="1.0" encoding="UTF-8" standalone="no"?>
<!-- Created with Keyshape -->
<svg xmlns="http://www.w3.org/2000/svg" xmlns:xlink="http://www.w3.org/1999/xlink" width="100%" height="100%" viewBox="0 0 279 175" clip-rule="evenodd" fill-rule="evenodd" stroke-linecap="round" stroke-linejoin="round" stroke-miterlimit="1.5" style="background: rgba(23,84,130,0.00); white-space: preserve-spaces;">
    <defs>
        <symbol id="Bling" preserveAspectRatio="none" width="138.152" height="131.567" viewBox="0 0 138.152 131.567" overflow="visible">
            <g id="sparkles" transform="translate(69.076,65.7836) translate(-57.0552,-53.7628)">
                <path id="sparkle-5" d="M86.644,29.648L113.055,3.237" fill="none" stroke="#ffd70d" stroke-dasharray="10 40 10 40" stroke-width="17px" stroke-dashoffset="0" opacity="0" clip-rule="evenodd" fill-rule="evenodd" stroke-linecap="round" stroke-miterlimit="1.5" transform="translate(1.05534,-3.237)"/>
                <path id="sparkle-6" d="M86.644,29.648L113.055,3.237" fill="none" stroke="#ffd70d" stroke-dasharray="10 40 10 40" stroke-width="17px" stroke-dashoffset="0" opacity="0" clip-rule="evenodd" fill-rule="evenodd" stroke-linecap="round" stroke-miterlimit="1.5" transform="translate(113.055,-3.237) scale(-1,1)"/>
                <path id="sparkle-7" d="M86.644,29.648L113.055,3.237" fill="none" stroke="#ffd70d" stroke-dasharray="10 40 10 40" stroke-width="17px" stroke-dashoffset="0" opacity="0" clip-rule="evenodd" fill-rule="evenodd" stroke-linecap="round" stroke-miterlimit="1.5" transform="translate(113.055,110.763) rotate(180) scale(0.999997,0.999997)"/>
                <path id="sparkle-8" d="M86.644,29.648L113.055,3.237" fill="none" stroke="#ffd70d" stroke-dasharray="10 40 10 40" stroke-width="17px" stroke-dashoffset="0" opacity="0" clip-rule="evenodd" fill-rule="evenodd" stroke-linecap="round" stroke-miterlimit="1.5" transform="translate(0.055339,110.763) rotate(180) scale(-0.999997,0.999997)"/>
            </g>
            <path id="circle-2" d="M133.611,91.096C137.03,91.096,140.289,91.784,143.258,93.028C146.322,94.312,149.076,96.189,151.378,98.515C153.631,100.791,155.45,103.498,156.7,106.5C157.931,109.455,158.611,112.697,158.611,116.096C158.611,119.841,157.786,123.394,156.308,126.584C155.121,129.145,153.514,131.472,151.574,133.476C149.146,135.986,146.197,137.988,142.902,139.31C140.029,140.462,136.894,141.096,133.611,141.096C130.526,141.096,127.57,140.536,124.841,139.512C121.991,138.443,119.388,136.869,117.141,134.898C114.491,132.575,112.336,129.701,110.855,126.456C109.414,123.299,108.611,119.791,108.611,116.096C108.611,112.88,109.219,109.805,110.327,106.981C111.535,103.902,113.336,101.12,115.589,98.777C117.864,96.41,120.6,94.49,123.652,93.161C126.704,91.833,130.072,91.096,133.611,91.096Z" fill="#ffd70d" opacity="1" clip-rule="evenodd" fill-rule="evenodd" stroke-linecap="round" stroke-miterlimit="1.5" transform="translate(69.0208,63.0208) translate(0,0) scale(0,0) translate(-133.611,-116.096)"/>
        </symbol>
        <clipPath id="_clip2">
            <path d="M36.298,81.92C50.974,70.67,76.121,78.798,92.418,100.059C108.716,121.321,110.032,147.716,95.356,158.965C80.68,170.215,55.533,162.087,39.235,140.826C22.938,119.564,21.621,93.169,36.298,81.92ZM245.821,81.92C231.145,70.67,205.998,78.798,189.701,100.059C173.403,121.321,172.087,147.716,186.763,158.965C201.439,170.215,226.586,162.087,242.884,140.826C259.181,119.564,260.498,93.169,245.821,81.92Z"/>
        </clipPath>
        <clipPath id="_clip1">
            <path d="M231.017,10.901C237.834,24.936,241.658,40.689,241.658,57.327C241.658,116.102,193.94,163.82,135.166,163.82C76.391,163.82,28.673,116.102,28.673,57.327C28.673,40.496,32.587,24.571,39.553,10.414L39.636,10.467C39.636,5.148,43.916,0.83,49.188,0.83C54.46,0.83,58.74,5.148,58.74,10.467C58.74,5.148,63.021,0.83,68.293,0.83C73.565,0.83,77.845,5.148,77.845,10.467C77.845,5.148,82.126,0.83,87.398,0.83C92.67,0.83,96.95,5.148,96.95,10.467C96.95,5.148,101.23,0.83,106.503,0.83C111.775,0.83,116.055,5.148,116.055,10.467C116.055,5.148,120.335,0.83,125.607,0.83C130.88,0.83,135.16,5.148,135.16,10.467C135.16,5.148,139.44,0.83,144.712,0.83C149.984,0.83,154.265,5.148,154.265,10.467C154.265,5.148,158.545,0.83,163.817,0.83C169.089,0.83,173.37,5.148,173.37,10.467C173.37,5.148,177.65,0.83,182.922,0.83C188.194,0.83,192.474,5.148,192.474,10.467C192.474,5.148,196.755,0.83,202.027,0.83C207.299,0.83,211.579,5.148,211.579,10.467C211.579,5.148,215.86,0.83,221.132,0.83C226.404,0.83,230.684,5.148,230.684,10.467"/>
        </clipPath>
        <clipPath id="_clip3">
            <path d="M235.017,14.901C241.834,28.936,245.658,44.689,245.658,61.327C245.658,120.102,197.94,167.82,139.166,167.82C80.391,167.82,32.673,120.102,32.673,61.327C32.673,44.496,36.587,28.571,43.553,14.414L43.636,14.467C43.636,9.148,47.916,4.83,53.188,4.83C58.46,4.83,62.74,9.148,62.74,14.467C62.74,9.148,67.021,4.83,72.293,4.83C77.565,4.83,81.845,9.148,81.845,14.467C81.845,9.148,86.126,4.83,91.398,4.83C96.67,4.83,100.95,9.148,100.95,14.467C100.95,9.148,105.23,4.83,110.503,4.83C115.775,4.83,120.055,9.148,120.055,14.467C120.055,9.148,124.335,4.83,129.607,4.83C134.88,4.83,139.16,9.148,139.16,14.467C139.16,9.148,143.44,4.83,148.712,4.83C153.984,4.83,158.265,9.148,158.265,14.467C158.265,9.148,162.545,4.83,167.817,4.83C173.089,4.83,177.37,9.148,177.37,14.467C177.37,9.148,181.65,4.83,186.922,4.83C192.194,4.83,196.474,9.148,196.474,14.467C196.474,9.148,200.755,4.83,206.027,4.83C211.299,4.83,215.579,9.148,215.579,14.467C215.579,9.148,219.86,4.83,225.132,4.83C230.404,4.83,234.684,9.148,234.684,14.467"/>
        </clipPath>
    </defs>
    <path d="M231.017,10.901C237.834,24.936,241.658,40.689,241.658,57.327C241.658,116.102,193.94,163.82,135.166,163.82C76.391,163.82,28.673,116.102,28.673,57.327C28.673,40.496,32.587,24.571,39.553,10.414L39.636,10.467C39.636,5.148,43.916,0.83,49.188,0.83C54.46,0.83,58.74,5.148,58.74,10.467C58.74,5.148,63.021,0.83,68.293,0.83C73.565,0.83,77.845,5.148,77.845,10.467C77.845,5.148,82.126,0.83,87.398,0.83C92.67,0.83,96.95,5.148,96.95,10.467C96.95,5.148,101.23,0.83,106.503,0.83C111.775,0.83,116.055,5.148,116.055,10.467C116.055,5.148,120.335,0.83,125.607,0.83C130.88,0.83,135.16,5.148,135.16,10.467C135.16,5.148,139.44,0.83,144.712,0.83C149.984,0.83,154.265,5.148,154.265,10.467C154.265,5.148,158.545,0.83,163.817,0.83C169.089,0.83,173.37,5.148,173.37,10.467C173.37,5.148,177.65,0.83,182.922,0.83C188.194,0.83,192.474,5.148,192.474,10.467C192.474,5.148,196.755,0.83,202.027,0.83C207.299,0.83,211.579,5.148,211.579,10.467C211.579,5.148,215.86,0.83,221.132,0.83C226.404,0.83,230.684,5.148,230.684,10.467" fill="#f7fff7"/>
    <path d="M224.807,0.125C228.328,0.614,231.049,2.915,232.641,6.275C233.136,7.32,233.615,8.373,234.077,9.433C247.311,39.796,246.194,76.184,230.602,105.894C213.907,137.707,181.246,160.643,145.189,165.111C134.235,166.468,123.084,166.217,112.173,164.341C107.606,163.555,103.937,159.534,104.015,155.058C104.108,149.685,109.61,145.295,115.027,146.242C115.278,146.286,115.53,146.329,115.782,146.371C143.296,150.912,172.749,142.536,193.675,123.879C215.111,104.766,227.013,75.371,224.731,46.566C223.833,35.227,220.82,24.072,215.946,13.826L215.66,13.234L215.372,12.575C215.164,11.971,215.093,11.824,214.956,11.199C213.889,6.326,217.489,0.878,222.654,0.166C224.023,-0.022,224.361,0.099,224.807,0.125Z" fill="#0e334f" fill-opacity="0.2" fill-rule="nonzero"/>
    <g clip-path="url(#_clip1)">
        <path d="M36.298,81.92C50.974,70.67,76.121,78.798,92.418,100.059C108.716,121.321,110.032,147.716,95.356,158.965C80.68,170.215,55.533,162.087,39.235,140.826C22.938,119.564,21.621,93.169,36.298,81.92ZM245.821,81.92C231.145,70.67,205.998,78.798,189.701,100.059C173.403,121.321,172.087,147.716,186.763,158.965C201.439,170.215,226.586,162.087,242.884,140.826C259.181,119.564,260.498,93.169,245.821,81.92Z" fill="#a7daf2"/>
        <path id="Tab2-shadow" d="M210.699,41.456C210.699,38.157,205.788,35.479,208.107,35.479L247.773,35.479C250.092,35.479,251.975,38.157,251.975,41.456L253.87,53.409C253.87,56.708,251.987,59.386,249.668,59.386L207.623,59.386C205.304,59.386,210.699,56.708,210.699,53.409L206.682,47.23L210.699,41.456Z" fill="#0e334f" fill-opacity="0.2" opacity="1"/>
        <g>
            <path d="M228.405,57.486C237.558,57.594,246.747,60.404,254.091,65.905L254.944,66.575C261.615,72.383,263.011,83.092,257.856,90.158C254.333,94.988,248.179,97.77,242.22,97.218C238.787,96.9,235.646,95.176,232.769,93.372C228.492,90.718,222.577,92.532,217.417,95.091C202.996,102.243,191.824,117.873,191.935,133.619C191.939,134.214,191.965,134.81,192.015,135.403C192.054,135.86,192.108,136.316,192.179,136.769C192.561,139.212,193.428,141.711,195.363,143.202L195.946,143.671C201.075,148.177,203.323,155.535,201.408,161.941C199.052,169.82,190.511,175.318,182.341,174.168C169.394,172.345,160.768,156.688,158.281,144.523C151.646,112.062,175.375,76.821,202.614,63.654C210.428,59.877,219.047,57.567,227.707,57.485C228.056,57.484,228.056,57.484,228.405,57.486Z" fill="#0e334f" fill-opacity="0.101961" fill-rule="nonzero"/>
            <g clip-path="url(#_clip2)">
                <path d="M45.74,57.486C36.588,57.594,27.399,60.404,20.054,65.905L19.201,66.575C12.53,72.383,11.134,83.092,16.29,90.158C19.813,94.988,25.967,97.77,31.926,97.218C35.358,96.9,38.499,95.176,41.377,93.372C45.653,90.718,51.569,92.532,56.728,95.091C71.149,102.243,82.321,117.873,82.211,133.619C82.206,134.214,82.181,134.81,82.13,135.403C82.091,135.86,82.037,136.316,81.966,136.769C81.585,139.212,80.718,141.711,78.782,143.202L78.2,143.671C73.07,148.177,70.823,155.535,72.738,161.941C75.093,169.82,83.634,175.318,91.804,174.168C104.751,172.345,113.378,156.688,115.864,144.523C122.499,112.062,98.771,76.821,71.532,63.654C63.718,59.877,55.099,57.567,46.439,57.485C46.089,57.484,46.089,57.484,45.74,57.486Z" fill="#0e334f" fill-opacity="0.101961" fill-rule="nonzero"/>
            </g>
        </g>
    </g>
    <g clip-path="url(#_clip3)">
        <path d="M36.298,81.92C50.974,70.67,76.121,78.798,92.418,100.059C108.716,121.321,110.032,147.716,95.356,158.965C80.68,170.215,55.533,162.087,39.235,140.826C22.938,119.564,21.621,93.169,36.298,81.92ZM245.821,81.92C231.145,70.67,205.998,78.798,189.701,100.059C173.403,121.321,172.087,147.716,186.763,158.965C201.439,170.215,226.586,162.087,242.884,140.826C259.181,119.564,260.498,93.169,245.821,81.92Z" fill="none" stroke="#0e334f" stroke-dasharray="400,25,10,25" stroke-width="5px"/>
    </g>
    <path d="M215.344,6.826C215.444,6.727,215.615,6.54,215.899,6.214C218.227,3.596,221.287,2.098,225.077,2.122C228.886,2.195,232.429,4.213,234.641,7.255C235.899,8.872,236.741,10.902,236.939,13.328C236.939,13.328,238.552,16.714,239.672,19.414C254.391,54.89,248.695,98.04,224.486,128.65C207.631,149.961,182.639,164.621,155.881,168.801C130.18,172.815,103.176,167.314,81.057,153.456C81.057,153.456,80.024,152.685,79.884,151.66C79.652,149.954,81.354,148.402,83.308,149.009C88.209,151.533,93.006,154.591,98.204,156.81C132.963,171.647,175.778,165.542,205.087,141.351C230.181,120.64,244.657,87.771,242.775,55.065C242,41.602,238.574,28.329,232.714,16.106C232.714,16.106,232.072,15.155,231.946,13.613C231.935,13.493,231.92,13.375,231.901,13.257L231.895,13.219L231.892,13.199C231.712,12.127,231.238,11.135,230.564,10.283L230.557,10.274L230.542,10.256C228.142,7.256,223.253,6.019,220.066,9.085C220.027,9.122,219.989,9.16,219.951,9.198C218.651,10.509,217.901,12.321,217.87,14.203C217.87,14.226,217.87,14.249,217.87,14.272L217.87,14.272L217.87,14.274L217.869,14.275C217.853,14.359,217.47,16.26,216.052,16.662C215.893,16.707,215.743,16.731,215.601,16.737C214.999,16.912,214.307,16.766,213.559,15.981C212.49,14.858,212.967,12.879,212.211,11.243L212.208,11.238C212.196,11.211,212.183,11.184,212.171,11.158C212.107,11.026,212.038,10.898,211.965,10.773L211.964,10.772L211.948,10.743C211.747,10.407,211.514,10.096,211.251,9.812L211.247,9.807L211.222,9.78L211.2,9.756L211.194,9.75C207.582,5.941,198.855,6.967,198.765,14.222C198.765,14.239,198.765,14.255,198.765,14.272L198.765,14.272L198.765,14.274L198.763,14.276C198.731,14.388,198.097,16.522,196.495,16.738C195.894,16.912,195.201,16.765,194.454,15.981C193.384,14.857,193.863,12.875,193.104,11.238C190.75,6.16,181.2,6.119,179.825,12.673C179.815,12.747,179.802,12.823,179.787,12.9L179.74,13.157C179.69,13.512,179.662,13.884,179.66,14.274C179.66,14.274,179.577,14.679,179.351,15.161C179.188,15.826,179.044,15.968,178.662,16.256C178.433,16.427,178.189,16.549,177.94,16.623C177.821,16.668,177.695,16.703,177.562,16.724C175.976,16.982,174.813,15.521,174.637,13.679L174.637,13.675L174.637,13.672C174.635,13.652,174.633,13.633,174.632,13.613L174.629,13.583C174.539,12.705,174.163,11.784,173.749,11.001C171.617,7.484,166.211,5.755,162.752,9.084C161.364,10.419,160.568,12.311,160.555,14.274C160.555,14.274,160.355,15.877,159.211,16.473C157.462,17.385,155.369,15.984,155.624,12.978C155.458,12.7,155.318,12.388,155.21,12.046C153.969,8.275,149.33,6.05,145.611,7.747C143.128,8.88,141.469,11.493,141.45,14.274C141.45,14.274,141.272,15.64,140.451,16.256C138.878,17.436,136.638,16.261,136.422,13.613C135.937,8.474,128.756,5.033,124.541,9.085C123.155,10.418,122.358,12.31,122.345,14.274C122.345,14.274,121.977,16.252,120.526,16.662C118.148,17.335,117.717,13.399,116.647,11.158C114.056,5.732,103.293,6.329,103.24,14.274C103.24,14.274,102.499,16.93,100.51,16.746C98.376,16.549,98.563,13.363,97.579,11.237C95.052,5.779,84.184,6.16,84.136,14.272C84.136,14.272,83.769,16.25,82.318,16.662C80.688,17.124,79.283,15.746,79.107,13.614C78.624,8.492,71.439,5.032,67.227,9.085C65.838,10.421,65.042,12.319,65.031,14.272C65.031,14.272,64.854,15.638,64.033,16.255C62.459,17.438,60.219,16.262,60.002,13.613C59.52,8.5,52.334,5.032,48.122,9.085C46.733,10.421,45.938,12.319,45.926,14.272L45.286,15.923C31.72,43.863,31.752,77.92,45.087,105.899C45.087,105.899,45.615,107.255,45.194,108.185C44.377,109.991,41.588,110.188,40.434,107.758C40.245,107.36,40.058,106.96,39.874,106.559C26.528,77.532,26.775,42.6,40.933,13.44C40.933,13.44,41.717,8.17,44.867,5.282C49.758,0.799,58.416,1.511,62.531,6.859C62.612,6.753,62.694,6.649,62.778,6.546C67.397,0.97,77.093,0.956,81.636,6.859C81.717,6.753,81.8,6.649,81.883,6.545C86.5,0.972,96.198,0.956,100.74,6.859C100.822,6.753,100.904,6.649,100.988,6.545C105.554,1.033,115.048,0.632,119.845,6.859C119.927,6.753,120.009,6.649,120.093,6.545C124.709,0.973,134.408,0.956,138.95,6.859C141.27,3.844,144.658,2.096,148.658,2.122C152.407,2.194,155.962,4.158,158.192,7.148C162.481,2.125,171.058,0.302,176.374,5.937C176.662,6.182,176.928,6.469,177.175,6.785C177.278,6.678,177.44,6.499,177.689,6.214C182.339,0.986,191.521,0.839,196.198,6.772C196.198,6.772,195.79,7.367,196.794,6.214C197.889,4.983,199.235,4.034,200.715,3.379C201.695,2.849,202.785,2.446,203.982,2.261C208.101,1.626,212.475,3.333,215.136,6.565L215.149,6.582L215.165,6.601C215.212,6.657,215.258,6.715,215.303,6.772L215.303,6.773C215.317,6.791,215.331,6.808,215.344,6.826ZM56.754,125.76C57.766,126.048,58.444,126.917,59.121,127.729C60.91,129.864,62.778,131.93,64.728,133.92C64.728,133.92,65.928,135.792,64.974,137.124C62.924,139.989,58.222,134.537,54.451,129.926C54.451,129.926,52.849,125.357,56.754,125.76Z" fill="#0e334f" fill-rule="nonzero"/>
    <g id="Creases">
        <path d="M139.386,25.986L139.386,70.981" fill="none" stroke="#0e334f" stroke-dasharray="20,10,25,15" stroke-width="5px"/>
        <path d="M181.949,36.509L159.452,75.476" fill="none" stroke="#0e334f" stroke-dasharray="10,15,40,25" stroke-width="5px"/>
        <path d="M98.796,36.509L121.293,75.476" fill="none" stroke="#0e334f" stroke-dasharray="10,15,40,25" stroke-width="5px"/>
    </g>
    <path id="Tab1-shadow" d="M74.807,41.456C74.807,38.157,79.717,35.479,77.398,35.479L37.732,35.479C35.413,35.479,33.531,38.157,33.531,41.456L31.635,53.409C31.635,56.708,33.518,59.386,35.837,59.386L77.883,59.386C80.202,59.386,74.807,56.708,74.807,53.409L78.823,47.23L74.807,41.456Z" fill="#0e334f" fill-opacity="0.2" opacity="1"/>
    <path id="Tab1" d="M72.345,30.425L37.272,30.414C34.953,30.414,32.248,33.164,31.635,36.402L29.74,48.355C29.27,51.595,30.641,54.332,32.96,54.332L72.829,54.332C75.148,54.332,69.753,51.654,69.753,48.355L73.769,42.177L69.753,36.402C69.753,36.402,74.664,30.425,72.345,30.425Z" fill="#4ecdc4" stroke="#0e334f" stroke-dasharray="500,25,10,25" stroke-width="5px"/>
    <path id="Tab2" d="M72.345,30.425L37.272,30.414C34.953,30.414,32.248,33.164,31.635,36.402L29.74,48.355C29.27,51.595,30.641,54.332,32.96,54.332L72.829,54.332C75.148,54.332,69.753,51.654,69.753,48.355L73.769,42.177L69.753,36.402C69.753,36.402,74.664,30.425,72.345,30.425Z" fill="#4ecdc4" stroke="#0e334f" stroke-dasharray="500,25,10,25" stroke-width="5px" transform="translate(226.709,42.373) scale(-1,1) translate(-51.7085,-42.373)"/>
    <g id="bling" xlink:href="#Bling" transform="translate(25.0552,28.7628) scale(0.331141,0.331141) translate(-69.076,-65.7835)">
        <g id="sparkles-2" transform="translate(69.076,65.7836) translate(-57.0552,-53.7628)"/>
    </g>
    <script><![CDATA[if(KeyshapeJS.version.indexOf('1.')!=0)throw Error('Expected KeyshapeJS v1.*.*');window.ks=document.ks=KeyshapeJS;(function(ks){
ks.animate("#sparkle-5",[{p:'opacity',t:[200,216,283,383],v:[0,1,1,0],e:[[0],[0],[0],[0]]},{p:'strokeDashoffset',t:[216,383],v:[0,-35],e:[[0],[0]]}],
"#sparkle-6",[{p:'opacity',t:[200,216,283,383],v:[0,1,1,0],e:[[0],[0],[0],[0]]},{p:'strokeDashoffset',t:[216,383],v:[0,-35],e:[[0],[0]]}],
"#sparkle-7",[{p:'opacity',t:[200,216,283,383],v:[0,1,1,0],e:[[0],[0],[0],[0]]},{p:'strokeDashoffset',t:[216,383],v:[0,-35],e:[[0],[0]]}],
"#sparkle-8",[{p:'opacity',t:[200,216,283,383],v:[0,1,1,0],e:[[0],[0],[0],[0]]},{p:'strokeDashoffset',t:[216,383],v:[0,-35],e:[[0],[0]]}],
"#circle-2",[{p:'mpath',t:[0,150,250],v:['0%','37.489395%','100%'],e:[[0],[0],[0]],mp:"M69.0208,63.0208L69.0463,63.0124L69.0888,62.9983"},{p:'scaleX',t:[0,250],v:[0,1],e:[[0],[0]]},{p:'scaleY',t:[0,250],v:[0,1],e:[[0],[0]]},{p:'anchorX',t:[0,150,250],v:[-133.611,-133.611,-42.679],e:[[0],[0],[0]]},{p:'anchorY',t:[0,150,250],v:[-116.096,-116.096,-77.0735],e:[[0],[0],[0]]},{p:'opacity',t:[250,383],v:[1,0],e:[[0],[0]]},{p:'d',t:[0,150,250],v:["path('M133.611,91.096C137.03,91.096,140.289,91.784,143.258,93.028C146.322,94.312,149.076,96.189,151.378,98.515C153.631,100.791,155.45,103.498,156.7,106.5C157.931,109.455,158.611,112.697,158.611,116.096C158.611,119.841,157.786,123.394,156.308,126.584C155.121,129.145,153.514,131.472,151.574,133.476C149.146,135.986,146.197,137.988,142.902,139.31C140.029,140.462,136.894,141.096,133.611,141.096C130.526,141.096,127.57,140.536,124.841,139.512C121.991,138.443,119.388,136.869,117.141,134.898C114.491,132.575,112.336,129.701,110.855,126.456C109.414,123.299,108.611,119.791,108.611,116.096C108.611,112.88,109.219,109.805,110.327,106.981C111.535,103.902,113.336,101.12,115.589,98.777C117.864,96.41,120.6,94.49,123.652,93.161C126.704,91.833,130.072,91.096,133.611,91.096Z')","path('M133.611,91.096C137.03,91.096,140.289,91.784,143.258,93.028C146.322,94.312,149.076,96.189,151.378,98.515C153.631,100.791,155.45,103.498,156.7,106.5C157.931,109.455,158.611,112.697,158.611,116.096C158.611,119.841,157.786,123.394,156.308,126.584C155.121,129.145,153.514,131.472,151.574,133.476C149.146,135.986,146.197,137.988,142.902,139.31C140.029,140.462,136.894,141.096,133.611,141.096C130.526,141.096,127.57,140.536,124.841,139.512C121.991,138.443,119.388,136.869,117.141,134.898C114.491,132.575,112.336,129.701,110.855,126.456C109.414,123.299,108.611,119.791,108.611,116.096C108.611,112.88,109.219,109.805,110.327,106.981C111.535,103.902,113.336,101.12,115.589,98.777C117.864,96.41,120.6,94.49,123.652,93.161C126.704,91.833,130.072,91.096,133.611,91.096Z')","path('M42.659,34.779C44.934,34.779,46.897,36.378,47.356,38.607C49.565,49.907,52.665,58.661,56.878,62.874C61.059,67.055,69.832,70.145,81.146,72.356C83.374,72.816,84.973,74.778,84.973,77.053C84.973,79.329,83.374,81.291,81.146,81.751C69.845,83.96,61.092,87.059,56.878,91.272C52.697,95.453,49.607,104.226,47.397,115.54C46.937,117.769,44.975,119.368,42.699,119.368C40.424,119.368,38.461,117.769,38.002,115.54C35.793,104.239,32.693,95.486,28.48,91.272C24.299,87.092,15.526,84.001,4.212,81.791C1.984,81.331,0.385,79.369,0.385,77.093C0.385,74.818,1.984,72.856,4.212,72.396C15.513,70.187,24.267,67.088,28.48,62.874C32.661,58.694,35.751,49.92,37.961,38.606C38.421,36.378,40.383,34.779,42.659,34.779Z')"],e:[[1,0,0,1,1],[1,0,0,1,1],[0]]}],
"#Tab2-shadow",[{p:'opacity',t:[1100,1250,3650,3800],v:[1,0,0,1],e:[[0],[0],[0],[0]]},{p:'d',t:[1100,1250,3650,3800],v:["path('M210.699,41.456C210.699,38.157,205.788,35.479,208.107,35.479L247.773,35.479C250.092,35.479,251.975,38.157,251.975,41.456L253.87,53.409C253.87,56.708,251.987,59.386,249.668,59.386L207.623,59.386C205.304,59.386,210.699,56.708,210.699,53.409L206.682,47.23L210.699,41.456Z')","path('M234.83,41.456C234.83,38.157,232.664,35.479,233.686,35.479L251.181,35.479C252.204,35.479,253.034,38.157,253.034,41.456L253.87,53.409C253.87,56.708,253.04,59.386,252.017,59.386L233.473,59.386C232.45,59.386,234.83,56.708,234.83,53.409L233.058,47.23L234.83,41.456Z')","path('M234.83,41.456C234.83,38.157,232.664,35.479,233.686,35.479L251.181,35.479C252.204,35.479,253.034,38.157,253.034,41.456L253.87,53.409C253.87,56.708,253.04,59.386,252.017,59.386L233.473,59.386C232.45,59.386,234.83,56.708,234.83,53.409L233.058,47.23L234.83,41.456Z')","path('M210.699,41.456C210.699,38.157,205.788,35.479,208.107,35.479L247.773,35.479C250.092,35.479,251.975,38.157,251.975,41.456L253.87,53.409C253.87,56.708,251.987,59.386,249.668,59.386L207.623,59.386C205.304,59.386,210.699,56.708,210.699,53.409L206.682,47.23L210.699,41.456Z')"],e:[[0],[0],[0],[0]]}],
"#Tab1-shadow",[{p:'opacity',t:[0,150,2450,2600],v:[1,0,0,1],e:[[0],[0],[0],[0]]},{p:'d',t:[0,150,2450,2600],v:["path('M74.807,41.456C74.807,38.157,79.717,35.479,77.398,35.479L37.732,35.479C35.413,35.479,33.531,38.157,33.531,41.456L31.635,53.409C31.635,56.708,33.518,59.386,35.837,59.386L77.883,59.386C80.202,59.386,74.807,56.708,74.807,53.409L78.823,47.23L74.807,41.456Z')","path('M51.0197,41.456C51.0197,38.157,53.2244,35.479,52.1832,35.479L34.3727,35.479C33.3314,35.479,32.4863,38.157,32.4863,41.456L31.635,53.409C31.635,56.708,32.4805,59.386,33.5217,59.386L52.4009,59.386C53.4422,59.386,51.0197,56.708,51.0197,53.409L52.823,47.23L51.0197,41.456Z')","path('M51.0197,41.456C51.0197,38.157,53.2244,35.479,52.1832,35.479L34.3727,35.479C33.3314,35.479,32.4863,38.157,32.4863,41.456L31.635,53.409C31.635,56.708,32.4805,59.386,33.5217,59.386L52.4009,59.386C53.4422,59.386,51.0197,56.708,51.0197,53.409L52.823,47.23L51.0197,41.456Z')","path('M74.807,41.456C74.807,38.157,79.717,35.479,77.398,35.479L37.732,35.479C35.413,35.479,33.531,38.157,33.531,41.456L31.635,53.409C31.635,56.708,33.518,59.386,35.837,59.386L77.883,59.386C80.202,59.386,74.807,56.708,74.807,53.409L78.823,47.23L74.807,41.456Z')"],e:[[0],[0],[0],[0]]}],
"#Tab1",[{p:'d',t:[0,150,300,2300,2450,2600,4700],v:["path('M72.345,30.425L37.272,30.414C34.953,30.414,32.248,33.164,31.635,36.402L29.74,48.355C29.27,51.595,30.641,54.332,32.96,54.332L72.829,54.332C75.148,54.332,69.753,51.654,69.753,48.355L73.769,42.177L69.753,36.402C69.753,36.402,74.664,30.425,72.345,30.425Z')","path('M32.145,30.425L36.272,30.414C36.272,30.414,35.113,33.262,34.5,36.5L32.605,48.453C32.135,51.693,32.96,54.832,32.96,54.332L32.629,54.332C34.948,54.332,29.553,51.654,29.553,48.355L33.569,42.177L29.553,36.402C29.553,36.402,34.464,30.425,32.145,30.425Z')","path('M5.345,30.425L36.27,30.414C36.27,30.414,35.113,33.262,34.5,36.5L32.61,48.45C32.14,51.69,32.96,54.332,32.96,54.332L5.829,54.332C4.329,54.332,6.753,51.654,6.753,48.355L2.769,42.177L6.753,36.402C6.753,36.402,3.845,30.425,5.345,30.425Z')","path('M5.345,30.425L36.27,30.414C36.27,30.414,35.113,33.262,34.5,36.5L32.61,48.45C32.14,51.69,32.96,54.332,32.96,54.332L5.829,54.332C4.329,54.332,6.753,51.654,6.753,48.355L2.769,42.177L6.753,36.402C6.753,36.402,3.845,30.425,5.345,30.425Z')","path('M32.145,30.425L36.272,30.414C36.272,30.414,35.113,33.262,34.5,36.5L32.605,48.453C32.135,51.693,32.96,54.832,32.96,54.332L32.629,54.332C34.948,54.332,29.553,51.654,29.553,48.355L33.569,42.177L29.553,36.402C29.553,36.402,34.464,30.425,32.145,30.425Z')","path('M72.345,30.425L37.272,30.414C34.953,30.414,32.248,33.164,31.635,36.402L29.74,48.355C29.27,51.595,30.641,54.332,32.96,54.332L72.829,54.332C75.148,54.332,69.753,51.654,69.753,48.355L73.769,42.177L69.753,36.402C69.753,36.402,74.664,30.425,72.345,30.425Z')","path('M72.345,30.425L37.272,30.414C34.953,30.414,32.248,33.164,31.635,36.402L29.74,48.355C29.27,51.595,30.641,54.332,32.96,54.332L72.829,54.332C75.148,54.332,69.753,51.654,69.753,48.355L73.769,42.177L69.753,36.402C69.753,36.402,74.664,30.425,72.345,30.425Z')"],e:[[0],[0],[0],[0],[0],[0],[0]]}],
"#Tab2",[{p:'d',t:[1100,1250,1400,3500,3650,3800,5800],v:["path('M72.345,30.425L37.272,30.414C34.953,30.414,32.248,33.164,31.635,36.402L29.74,48.355C29.27,51.595,30.641,54.332,32.96,54.332L72.829,54.332C75.148,54.332,69.753,51.654,69.753,48.355L73.769,42.177L69.753,36.402C69.753,36.402,74.664,30.425,72.345,30.425Z')","path('M32.145,30.425L36.272,30.414C36.272,30.414,35.113,33.262,34.5,36.5L32.605,48.453C32.135,51.693,32.96,54.832,32.96,54.332L32.629,54.332C34.948,54.332,29.553,51.654,29.553,48.355L33.569,42.177L29.553,36.402C29.553,36.402,34.464,30.425,32.145,30.425Z')","path('M5.345,30.425L36.27,30.414C36.27,30.414,35.113,33.262,34.5,36.5L32.61,48.45C32.14,51.69,32.96,54.332,32.96,54.332L5.829,54.332C4.329,54.332,6.753,51.654,6.753,48.355L2.769,42.177L6.753,36.402C6.753,36.402,3.845,30.425,5.345,30.425Z')","path('M5.345,30.425L36.27,30.414C36.27,30.414,35.113,33.262,34.5,36.5L32.61,48.45C32.14,51.69,32.96,54.332,32.96,54.332L5.829,54.332C4.329,54.332,6.753,51.654,6.753,48.355L2.769,42.177L6.753,36.402C6.753,36.402,3.845,30.425,5.345,30.425Z')","path('M32.145,30.425L36.272,30.414C36.272,30.414,35.113,33.262,34.5,36.5L32.605,48.453C32.135,51.693,32.96,54.832,32.96,54.332L32.629,54.332C34.948,54.332,29.553,51.654,29.553,48.355L33.569,42.177L29.553,36.402C29.553,36.402,34.464,30.425,32.145,30.425Z')","path('M72.345,30.425L37.272,30.414C34.953,30.414,32.248,33.164,31.635,36.402L29.74,48.355C29.27,51.595,30.641,54.332,32.96,54.332L72.829,54.332C75.148,54.332,69.753,51.654,69.753,48.355L73.769,42.177L69.753,36.402C69.753,36.402,74.664,30.425,72.345,30.425Z')","path('M72.345,30.425L37.272,30.414C34.953,30.414,32.248,33.164,31.635,36.402L29.74,48.355C29.27,51.595,30.641,54.332,32.96,54.332L72.829,54.332C75.148,54.332,69.753,51.654,69.753,48.355L73.769,42.177L69.753,36.402C69.753,36.402,74.664,30.425,72.345,30.425Z')"],e:[[0],[0],[0],[0],[0],[0],[0]]}],
{autoremove:false}).range(0,5800).loop(true);
if(document.location.search.substr(1).split('&').indexOf('global=paused')>=0)ks.globalPause()})(KeyshapeJS);
]]></script>
</svg>
