<?xml version="1.0" encoding="UTF-8" standalone="no"?><!DOCTYPE svg PUBLIC "-//W3C//DTD SVG 1.1//EN" "http://www.w3.org/Graphics/SVG/1.1/DTD/svg11.dtd"><svg width="100%" height="100%" viewBox="0 0 248 175" version="1.1" xmlns="http://www.w3.org/2000/svg" xmlns:xlink="http://www.w3.org/1999/xlink" xml:space="preserve" xmlns:serif="http://www.serif.com/" style="fill-rule:evenodd;clip-rule:evenodd;stroke-linecap:round;stroke-linejoin:round;stroke-miterlimit:1.5;"><g id="Colour"><path d="M218.017,10.901C224.834,24.936 228.658,40.689 228.658,57.327C228.658,116.102 180.94,163.82 122.166,163.82C63.391,163.82 15.673,116.102 15.673,57.327C15.673,40.496 19.587,24.571 26.553,10.414L26.636,10.467C26.636,5.148 30.916,0.83 36.188,0.83C41.46,0.83 45.74,5.148 45.74,10.467C45.74,5.148 50.021,0.83 55.293,0.83C60.565,0.83 64.845,5.148 64.845,10.467C64.845,5.148 69.126,0.83 74.398,0.83C79.67,0.83 83.95,5.148 83.95,10.467C83.95,5.148 88.23,0.83 93.503,0.83C98.775,0.83 103.055,5.148 103.055,10.467C103.055,5.148 107.335,0.83 112.607,0.83C117.88,0.83 122.16,5.148 122.16,10.467C122.16,5.148 126.44,0.83 131.712,0.83C136.984,0.83 141.265,5.148 141.265,10.467C141.265,5.148 145.545,0.83 150.817,0.83C156.089,0.83 160.37,5.148 160.37,10.467C160.37,5.148 164.65,0.83 169.922,0.83C175.194,0.83 179.474,5.148 179.474,10.467C179.474,5.148 183.755,0.83 189.027,0.83C194.299,0.83 198.579,5.148 198.579,10.467C198.579,5.148 202.86,0.83 208.132,0.83C213.404,0.83 217.684,5.148 217.684,10.467" style="fill:#f7fff7;"/><path d="M211.807,0.125C215.328,0.614 218.049,2.915 219.641,6.275C220.136,7.32 220.615,8.373 221.077,9.433C234.311,39.796 233.194,76.184 217.602,105.894C200.907,137.707 168.246,160.643 132.189,165.111C121.235,166.468 110.084,166.217 99.173,164.341C94.606,163.555 90.937,159.534 91.015,155.058C91.108,149.685 96.61,145.295 102.027,146.242C102.278,146.286 102.53,146.329 102.782,146.371C130.296,150.912 159.749,142.536 180.675,123.879C202.111,104.766 214.013,75.371 211.731,46.566C210.833,35.227 207.82,24.072 202.946,13.826L202.66,13.234L202.372,12.575C202.164,11.971 202.093,11.824 201.956,11.199C200.889,6.326 204.489,0.878 209.654,0.166C211.023,-0.022 211.361,0.099 211.807,0.125Z" style="fill:#0e334f;fill-opacity:0.2;fill-rule:nonzero;"/><g><clipPath id="_clip1"><path d="M218.017,10.901C224.834,24.936 228.658,40.689 228.658,57.327C228.658,116.102 180.94,163.82 122.166,163.82C63.391,163.82 15.673,116.102 15.673,57.327C15.673,40.496 19.587,24.571 26.553,10.414L26.636,10.467C26.636,5.148 30.916,0.83 36.188,0.83C41.46,0.83 45.74,5.148 45.74,10.467C45.74,5.148 50.021,0.83 55.293,0.83C60.565,0.83 64.845,5.148 64.845,10.467C64.845,5.148 69.126,0.83 74.398,0.83C79.67,0.83 83.95,5.148 83.95,10.467C83.95,5.148 88.23,0.83 93.503,0.83C98.775,0.83 103.055,5.148 103.055,10.467C103.055,5.148 107.335,0.83 112.607,0.83C117.88,0.83 122.16,5.148 122.16,10.467C122.16,5.148 126.44,0.83 131.712,0.83C136.984,0.83 141.265,5.148 141.265,10.467C141.265,5.148 145.545,0.83 150.817,0.83C156.089,0.83 160.37,5.148 160.37,10.467C160.37,5.148 164.65,0.83 169.922,0.83C175.194,0.83 179.474,5.148 179.474,10.467C179.474,5.148 183.755,0.83 189.027,0.83C194.299,0.83 198.579,5.148 198.579,10.467C198.579,5.148 202.86,0.83 208.132,0.83C213.404,0.83 217.684,5.148 217.684,10.467"/></clipPath><g clip-path="url(#_clip1)"><path d="M23.298,81.92C37.974,70.67 63.121,78.798 79.418,100.059C95.716,121.321 97.032,147.716 82.356,158.965C67.68,170.215 42.533,162.087 26.235,140.826C9.938,119.564 8.621,93.169 23.298,81.92ZM232.821,81.92C218.145,70.67 192.998,78.798 176.701,100.059C160.403,121.321 159.087,147.716 173.763,158.965C188.439,170.215 213.586,162.087 229.884,140.826C246.181,119.564 247.498,93.169 232.821,81.92Z" style="fill:#a7daf2;"/><path d="M197.699,41.456C197.699,38.157 192.788,35.479 195.107,35.479L234.773,35.479C237.092,35.479 238.975,38.157 238.975,41.456L240.87,53.409C240.87,56.708 238.987,59.386 236.668,59.386L194.623,59.386C192.304,59.386 197.699,56.708 197.699,53.409L193.682,47.23L197.699,41.456Z" style="fill:#0e334f;fill-opacity:0.2;"/><g><path d="M215.405,57.486C224.558,57.594 233.747,60.404 241.091,65.905L241.944,66.575C248.615,72.383 250.011,83.092 244.856,90.158C241.333,94.988 235.179,97.77 229.22,97.218C225.787,96.9 222.646,95.176 219.769,93.372C215.492,90.718 209.577,92.532 204.417,95.091C189.996,102.243 178.824,117.873 178.935,133.619C178.939,134.214 178.965,134.81 179.015,135.403C179.054,135.86 179.108,136.316 179.179,136.769C179.561,139.212 180.428,141.711 182.363,143.202L182.946,143.671C188.075,148.177 190.323,155.535 188.408,161.941C186.052,169.82 177.511,175.318 169.341,174.168C156.394,172.345 147.768,156.688 145.281,144.523C138.646,112.062 162.375,76.821 189.614,63.654C197.428,59.877 206.047,57.567 214.707,57.485C215.056,57.484 215.056,57.484 215.405,57.486Z" style="fill:#0e334f;fill-opacity:0.101961;fill-rule:nonzero;"/><clipPath id="_clip2"><path d="M23.298,81.92C37.974,70.67 63.121,78.798 79.418,100.059C95.716,121.321 97.032,147.716 82.356,158.965C67.68,170.215 42.533,162.087 26.235,140.826C9.938,119.564 8.621,93.169 23.298,81.92ZM232.821,81.92C218.145,70.67 192.998,78.798 176.701,100.059C160.403,121.321 159.087,147.716 173.763,158.965C188.439,170.215 213.586,162.087 229.884,140.826C246.181,119.564 247.498,93.169 232.821,81.92Z"/></clipPath><g clip-path="url(#_clip2)"><path d="M32.74,57.486C23.588,57.594 14.399,60.404 7.054,65.905L6.201,66.575C-0.47,72.383 -1.866,83.092 3.29,90.158C6.813,94.988 12.967,97.77 18.926,97.218C22.358,96.9 25.499,95.176 28.377,93.372C32.653,90.718 38.569,92.532 43.728,95.091C58.149,102.243 69.321,117.873 69.211,133.619C69.206,134.214 69.181,134.81 69.13,135.403C69.091,135.86 69.037,136.316 68.966,136.769C68.585,139.212 67.718,141.711 65.782,143.202L65.2,143.671C60.07,148.177 57.823,155.535 59.738,161.941C62.093,169.82 70.634,175.318 78.804,174.168C91.751,172.345 100.378,156.688 102.864,144.523C109.499,112.062 85.771,76.821 58.532,63.654C50.718,59.877 42.099,57.567 33.439,57.485C33.089,57.484 33.089,57.484 32.74,57.486Z" style="fill:#0e334f;fill-opacity:0.101961;fill-rule:nonzero;"/></g></g></g></g><clipPath id="_clip3"><path d="M222.017,14.901C228.834,28.936 232.658,44.689 232.658,61.327C232.658,120.102 184.94,167.82 126.166,167.82C67.391,167.82 19.673,120.102 19.673,61.327C19.673,44.496 23.587,28.571 30.553,14.414L30.636,14.467C30.636,9.148 34.916,4.83 40.188,4.83C45.46,4.83 49.74,9.148 49.74,14.467C49.74,9.148 54.021,4.83 59.293,4.83C64.565,4.83 68.845,9.148 68.845,14.467C68.845,9.148 73.126,4.83 78.398,4.83C83.67,4.83 87.95,9.148 87.95,14.467C87.95,9.148 92.23,4.83 97.503,4.83C102.775,4.83 107.055,9.148 107.055,14.467C107.055,9.148 111.335,4.83 116.607,4.83C121.88,4.83 126.16,9.148 126.16,14.467C126.16,9.148 130.44,4.83 135.712,4.83C140.984,4.83 145.265,9.148 145.265,14.467C145.265,9.148 149.545,4.83 154.817,4.83C160.089,4.83 164.37,9.148 164.37,14.467C164.37,9.148 168.65,4.83 173.922,4.83C179.194,4.83 183.474,9.148 183.474,14.467C183.474,9.148 187.755,4.83 193.027,4.83C198.299,4.83 202.579,9.148 202.579,14.467C202.579,9.148 206.86,4.83 212.132,4.83C217.404,4.83 221.684,9.148 221.684,14.467"/></clipPath><g clip-path="url(#_clip3)"><path d="M23.298,81.92C37.974,70.67 63.121,78.798 79.418,100.059C95.716,121.321 97.032,147.716 82.356,158.965C67.68,170.215 42.533,162.087 26.235,140.826C9.938,119.564 8.621,93.169 23.298,81.92ZM232.821,81.92C218.145,70.67 192.998,78.798 176.701,100.059C160.403,121.321 159.087,147.716 173.763,158.965C188.439,170.215 213.586,162.087 229.884,140.826C246.181,119.564 247.498,93.169 232.821,81.92Z" style="fill:none;stroke:#0e334f;stroke-width:5px;stroke-dasharray:400,25,10,25;"/></g><path d="M221.807,14.692C228.624,28.726 232.448,44.479 232.448,61.118C232.448,119.892 184.731,167.61 125.956,167.61C67.181,167.61 19.464,119.892 19.464,61.118C19.464,44.286 23.377,28.361 30.343,14.204L30.426,14.257C30.426,8.938 34.706,4.621 39.978,4.621C45.25,4.621 49.531,8.938 49.531,14.257C49.531,8.938 53.811,4.621 59.083,4.621C64.355,4.621 68.636,8.938 68.636,14.257C68.636,8.938 72.916,4.621 78.188,4.621C83.46,4.621 87.74,8.938 87.74,14.257C87.74,8.938 92.021,4.621 97.293,4.621C102.565,4.621 106.845,8.938 106.845,14.257C106.845,8.938 111.126,4.621 116.398,4.621C121.67,4.621 125.95,8.938 125.95,14.257C125.95,8.938 130.23,4.621 135.503,4.621C140.775,4.621 145.055,8.938 145.055,14.257C145.055,8.938 149.335,4.621 154.607,4.621C159.88,4.621 164.16,8.938 164.16,14.257C164.16,8.938 168.44,4.621 173.712,4.621C178.984,4.621 183.265,8.938 183.265,14.257C183.265,8.938 187.545,4.621 192.817,4.621C198.089,4.621 202.37,8.938 202.37,14.257C202.37,8.938 206.65,4.621 211.922,4.621C217.194,4.621 221.474,8.938 221.474,14.257" style="fill:none;stroke:#0e334f;stroke-width:5px;stroke-dasharray:275,25,10,25;"/><path d="M145.055,14.257C145.055,8.938 149.335,4.621 154.607,4.621C159.88,4.621 164.16,8.938 164.16,14.257C164.16,8.938 168.44,4.621 173.712,4.621C178.984,4.621 183.265,8.938 183.265,14.257C183.265,8.938 187.545,4.621 192.817,4.621C198.089,4.621 202.37,8.938 202.37,14.257C202.37,8.938 206.65,4.621 211.922,4.621C217.194,4.621 221.474,8.938 221.474,14.257" style="fill:none;stroke:#0e334f;stroke-width:5px;"/><g id="Creases"><path d="M126.386,25.986L126.386,70.981" style="fill:none;stroke:#0e334f;stroke-width:5px;stroke-dasharray:20,10,25,15;"/><path d="M168.949,36.509L146.452,75.476" style="fill:none;stroke:#0e334f;stroke-width:5px;stroke-dasharray:10,15,40,25;"/><path d="M85.796,36.509L108.293,75.476" style="fill:none;stroke:#0e334f;stroke-width:5px;stroke-dasharray:10,15,40,25;"/></g><path d="M196.435,36.402C196.435,33.103 191.525,30.425 193.844,30.425L230.351,30.425C232.67,30.425 234.553,33.103 234.553,36.402L236.448,48.355C236.448,51.654 234.565,54.332 232.246,54.332L193.359,54.332C191.04,54.332 196.435,51.654 196.435,48.355L192.419,42.177L196.435,36.402Z" style="fill:#4ecdc4;"/><path d="M196.435,36.402C196.435,33.103 191.525,30.425 193.844,30.425L230.351,30.425C232.67,30.425 234.553,33.103 234.553,36.402L236.448,48.355C236.448,51.654 234.565,54.332 232.246,54.332L193.359,54.332C191.04,54.332 196.435,51.654 196.435,48.355L192.419,42.177L196.435,36.402Z" style="fill:none;stroke:#0e334f;stroke-width:5px;stroke-dasharray:500,25,10,25;"/><path d="M61.807,41.456C61.807,38.157 66.717,35.479 64.398,35.479L24.732,35.479C22.413,35.479 20.531,38.157 20.531,41.456L18.635,53.409C18.635,56.708 20.518,59.386 22.837,59.386L64.883,59.386C67.202,59.386 61.807,56.708 61.807,53.409L65.823,47.23L61.807,41.456Z" style="fill:#0e334f;fill-opacity:0.2;"/><path d="M56.753,36.402C56.753,33.103 61.664,30.425 59.345,30.425L22.837,30.425C20.518,30.425 18.635,33.103 18.635,36.402L16.74,48.355C16.74,51.654 18.623,54.332 20.942,54.332L59.829,54.332C62.148,54.332 56.753,51.654 56.753,48.355L60.769,42.177L56.753,36.402Z" style="fill:#4ecdc4;"/><path d="M56.753,36.402C56.753,33.103 61.664,30.425 59.345,30.425L22.837,30.425C20.518,30.425 18.635,33.103 18.635,36.402L16.74,48.355C16.74,51.654 18.623,54.332 20.942,54.332L59.829,54.332C62.148,54.332 56.753,51.654 56.753,48.355L60.769,42.177L56.753,36.402Z" style="fill:none;stroke:#0e334f;stroke-width:5px;stroke-dasharray:500,25,10,25;"/></g></svg>