<?xml version="1.0" encoding="UTF-8" standalone="no"?>
<!-- Created with Keyshape -->
<svg xmlns="http://www.w3.org/2000/svg" xmlns:xlink="http://www.w3.org/1999/xlink" width="100%" height="100%" viewBox="0 0 307 243.4578" clip-rule="evenodd" fill-rule="evenodd" stroke-linecap="round" stroke-linejoin="round" stroke-miterlimit="1.5" style="background: rgba(23,84,130,0.00); white-space: preserve-spaces;">
    <defs>
        <clipPath id="_clip1">
            <path d="M118.498,21.234C118.498,13.283,112.043,6.828,104.092,6.828L20.657,6.828C12.706,6.828,6.251,13.283,6.251,21.234L6.251,157.4C6.251,165.351,12.706,171.806,20.657,171.806L104.092,171.806C112.043,171.806,118.498,165.351,118.498,157.4L118.498,21.234Z"/>
        </clipPath>
        <clipPath id="ClipPath-1">
            <rect id="_a0" width="10" height="26" stroke="#000000" stroke-opacity="1" fill="none" stroke-width="5" stroke-miterlimit="1.5" stroke-linecap="round" stroke-linejoin="round" transform="translate(234.5,69.5) translate(-97,-13)"/>
        </clipPath>
    </defs>
    <g id="pad" transform="translate(0.000444,59.0005)">
        <path d="M118.498,20.234C118.498,12.283,112.043,5.828,104.092,5.828L20.657,5.828C12.706,5.828,6.251,12.283,6.251,20.234L6.251,156.4C6.251,164.351,12.706,170.806,20.657,170.806L104.092,170.806C112.043,170.806,118.498,164.351,118.498,156.4L118.498,20.234Z" fill="#a7daf2"/>
        <path d="M6.251,148.457L6.251,137.447L118.498,25.2L118.498,42.171L13.184,147.484C11.925,148.639,11.421,148.789,10.495,149.037C9.064,149.421,7.547,149.158,6.251,148.457ZM104.092,6.828C109.119,6.828,113.547,9.408,116.125,13.314L6.251,123.187L6.251,94.903L94.327,6.828L104.092,6.828Z" fill="#f7fff7" fill-opacity="0.501961" fill-rule="nonzero"/>
        <g>
            <g clip-path="url(#_clip1)">
                <path d="M102.047,0.851C102.738,0.925,102.914,0.926,103.594,1.074C111.321,2.755,115.114,14.262,108.437,20.048C106.467,21.754,103.896,22.628,101.266,22.722C76.05,22.722,50.834,22.722,25.618,22.722C23.779,22.722,22.163,24.335,22.146,26.158C22.146,26.158,22.146,154.574,22.146,154.574L22.118,155.355C21.578,160.373,17.669,164.706,12.754,165.412C7.114,166.223,1.186,161.892,0.358,156.132C0.259,155.444,0.271,155.268,0.247,154.574C0.247,111.72,0.093,68.867,0.247,26.013C0.372,12.961,11.635,0.865,25.586,0.823L101.266,0.823C101.527,0.833,101.787,0.842,102.047,0.851Z" fill="#f7fff7" fill-opacity="0.34" fill-rule="nonzero"/>
                <path d="M120.814,21.704C121.505,21.779,121.681,21.779,122.361,21.927C127.18,22.975,130.8,27.52,130.983,32.626C130.983,75.479,131.136,118.333,130.982,161.187C130.857,174.215,119.639,186.335,105.644,186.377L29.963,186.377C23.648,186.151,18.209,180.239,19.125,173.869C19.793,169.22,23.747,165.259,28.405,164.589C29.093,164.49,29.269,164.502,29.963,164.478C55.179,164.478,80.395,164.478,105.611,164.478C107.444,164.478,109.066,162.931,109.084,161.042C109.084,161.042,109.084,32.626,109.084,32.626L109.112,31.845C109.652,26.824,113.514,22.501,118.475,21.788C119.965,21.574,120.33,21.687,120.814,21.704Z" fill="#0e334f" fill-opacity="0.2" fill-rule="nonzero"/>
            </g>
        </g>
        <path d="M123.443,26.179C123.443,18.228,116.988,11.773,109.037,11.773L25.602,11.773C17.651,11.773,11.196,18.228,11.196,26.179L11.196,162.345C11.196,170.295,17.651,176.751,25.602,176.751L109.037,176.751C116.988,176.751,123.443,170.295,123.443,162.345L123.443,26.179Z" fill="none" stroke="#0e334f" stroke-dasharray="400,25,10,25" stroke-dashoffset="300" stroke-width="5px"/>
        <path d="M240.896,20.234C240.896,12.283,234.441,5.828,226.49,5.828L143.055,5.828C135.104,5.828,128.649,12.283,128.649,20.234L128.649,156.4C128.649,164.351,135.104,170.806,143.055,170.806L226.49,170.806C234.441,170.806,240.896,164.351,240.896,156.4L240.896,20.234Z" fill="#a7daf2"/>
        <path d="M245.841,26.179C245.841,18.228,239.386,11.773,231.435,11.773L148,11.773C140.049,11.773,133.594,18.228,133.594,26.179L133.594,162.345C133.594,170.295,140.049,176.751,148,176.751L231.435,176.751C239.386,176.751,245.841,170.295,245.841,162.345L245.841,26.179Z" fill="none" stroke="#0e334f" stroke-dasharray="500,25,10,25" stroke-dashoffset="100" stroke-width="5px"/>
        <path d="M240.248,22.893C240.248,15.747,234.446,9.944,227.299,9.944L152.301,9.944C145.154,9.944,139.352,15.747,139.352,22.893L139.352,153.062C139.352,160.208,145.154,166.011,152.301,166.011L227.299,166.011C234.446,166.011,240.248,160.208,240.248,153.062L240.248,22.893Z" fill="#f7fff7"/>
        <g>
            <ellipse rx="4.002" ry="4.002" fill="#a7daf2" transform="translate(0,0) translate(145.495,48.078)"/>
            <ellipse rx="4.002" ry="4.002" fill="#0e334f" fill-opacity="0.2" transform="translate(0,0) translate(145.495,48.078)"/>
            <ellipse rx="4.002" ry="4.002" fill="#175482" transform="translate(0,0) translate(115.17,48.078)"/>
            <path d="M115.227,47.853C115.227,39.505,122.005,32.727,130.352,32.727C138.7,32.727,145.478,39.505,145.478,47.853" fill="none" stroke="#0e334f" stroke-dasharray="600,30,12,30" stroke-width="6px"/>
        </g>
        <g>
            <ellipse rx="4.002" ry="4.002" fill="#a7daf2" transform="translate(0,0) translate(145.495,70.948)"/>
            <ellipse rx="4.002" ry="4.002" fill="#0e334f" fill-opacity="0.2" transform="translate(0,0) translate(145.495,70.948)"/>
            <ellipse rx="4.002" ry="4.002" fill="#175482" transform="translate(0,0) translate(115.17,70.948)"/>
            <path d="M115.227,70.722C115.227,62.374,122.005,55.597,130.352,55.597C138.7,55.597,145.478,62.374,145.478,70.722" fill="none" stroke="#0e334f" stroke-dasharray="600,30,12,30" stroke-width="6px"/>
        </g>
        <g>
            <ellipse rx="4.002" ry="4.002" fill="#a7daf2" transform="translate(0,0) translate(145.495,93.817)"/>
            <ellipse rx="4.002" ry="4.002" fill="#0e334f" fill-opacity="0.2" transform="translate(0,0) translate(145.495,93.817)"/>
            <ellipse rx="4.002" ry="4.002" fill="#175482" transform="translate(0,0) translate(115.17,93.817)"/>
            <path d="M115.227,93.592C115.227,85.244,122.005,78.466,130.352,78.466C138.7,78.466,145.478,85.244,145.478,93.592" fill="none" stroke="#0e334f" stroke-dasharray="600,30,12,30" stroke-width="6px"/>
        </g>
        <g>
            <ellipse rx="4.002" ry="4.002" fill="#a7daf2" transform="translate(0,0) translate(145.495,116.686)"/>
            <ellipse rx="4.002" ry="4.002" fill="#0e334f" fill-opacity="0.2" transform="translate(0,0) translate(145.495,116.686)"/>
            <ellipse rx="4.002" ry="4.002" fill="#175482" transform="translate(0,0) translate(115.17,116.686)"/>
            <path d="M115.227,116.461C115.227,108.113,122.005,101.335,130.352,101.335C138.7,101.335,145.478,108.113,145.478,116.461" fill="none" stroke="#0e334f" stroke-dasharray="600,30,12,30" stroke-width="6px"/>
        </g>
        <g>
            <ellipse rx="4.002" ry="4.002" fill="#a7daf2" transform="translate(0,0) translate(145.495,139.556)"/>
            <ellipse rx="4.002" ry="4.002" fill="#0e334f" fill-opacity="0.2" transform="translate(0,0) translate(145.495,139.556)"/>
            <ellipse rx="4.002" ry="4.002" fill="#175482" transform="translate(0,0) translate(115.17,139.556)"/>
            <path d="M115.227,139.33C115.227,130.982,122.005,124.205,130.352,124.205C138.7,124.205,145.478,130.982,145.478,139.33" fill="none" stroke="#0e334f" stroke-dasharray="600,30,12,30" stroke-width="6px"/>
        </g>
        <g id="text">
            <path d="M158.07,29.076L221.122,29.076" fill="none" stroke="#eb4034" stroke-dasharray="20,10,25,15" stroke-width="5px"/>
            <path d="M158.07,36.927L221.122,36.927" fill="none" stroke="#eb4034" stroke-dasharray="40,15,10,25" stroke-width="5px"/>
            <path d="M158.07,56.619L221.122,56.619" fill="none" stroke="#0e334f" stroke-dasharray="10,15,40,25" stroke-opacity="0.5" stroke-width="5px"/>
        </g>
    </g>
    <path id="line" d="M158.07,78.339L221.122,78.339" fill="none" stroke="#0e334f" stroke-dasharray="40,15,10,25" stroke-opacity="0.5" stroke-width="5px" opacity="1" clip-path="url(#ClipPath-1)" transform="translate(0.000444,59.0005)"/>
    <g id="pen" transform="translate(80.4234,193.481) translate(0,0) skewY(-20) translate(-80.423,-134.481)">
        <path d="M58.067,137.993C61.988,139.53,66.42,137.594,67.957,133.673C69.494,129.751,67.558,125.32,63.637,123.783C54.665,119.053,39.992,111.568,37.364,108.276C34.736,104.984,35.276,100.178,38.567,97.55C41.859,94.923,46.665,95.462,49.293,98.754" fill="none" stroke="#0e334f" stroke-dasharray="500,25,10,25" stroke-width="5px"/>
        <path d="M29.231,70.35L38.962,82.541" fill="none" stroke="#eb4034" stroke-linejoin="miter" stroke-width="6px"/>
        <path d="M121.883,186.421L131.615,198.612" fill="none" stroke="#0e334f" stroke-linejoin="miter" stroke-width="6px"/>
        <path d="M115.588,186.121C115.186,185.841,114.818,185.5,114.497,185.098L36.965,87.969C35.177,85.73,35.167,69.077,36.955,71.316L122.61,178.621C122.931,179.023,123.183,179.458,123.366,179.912C123.753,180.186,124.108,180.518,124.418,180.907C126.185,183.12,127.997,188.01,129.245,191.871C129.584,192.771,129.305,193.787,128.553,194.387C127.802,194.987,126.749,195.034,125.946,194.504C122.459,192.431,118.091,189.58,116.325,187.367C116.015,186.979,115.769,186.559,115.588,186.121Z" fill="#ffd70d"/>
        <path d="M104.879,171.31L111.886,165.717" fill="none" stroke="#0e334f" stroke-width="5px"/>
        <path d="M115.588,186.121C115.186,185.841,114.818,185.5,114.497,185.098L36.965,87.969C35.177,85.73,35.167,69.077,36.955,71.316L122.61,178.621C122.931,179.023,123.183,179.458,123.366,179.912C123.753,180.186,124.108,180.518,124.418,180.907C126.185,183.12,127.997,188.01,129.245,191.871C129.584,192.771,129.305,193.787,128.553,194.387C127.802,194.987,126.749,195.034,125.946,194.504C122.459,192.431,118.091,189.58,116.325,187.367C116.015,186.979,115.769,186.559,115.588,186.121Z" fill="none" stroke="#0e334f" stroke-dasharray="275,25,10,25" stroke-dashoffset="400" stroke-width="5px"/>
    </g>
</svg>
