<?xml version="1.0" encoding="UTF-8" standalone="no"?>
<!-- Created with Keyshape -->
<svg xmlns="http://www.w3.org/2000/svg" xmlns:xlink="http://www.w3.org/1999/xlink" viewBox="0 0 136 192" clip-rule="evenodd" fill-rule="evenodd" stroke-linecap="round" stroke-linejoin="round" stroke-miterlimit="1.5" style="white-space: preserve-spaces; background: rgba(23,84,130,0.00);">
    <defs>
        <clipPath id="_clip1">
            <path d="M49.145,172.738C49.145,181.878,55.657,189.298,63.677,189.298L68.912,189.298C76.932,189.298,83.444,181.878,83.444,172.738"/>
        </clipPath>
        <clipPath id="_clip2">
            <path d="M104.727,144.511C104.727,138.523,99.865,133.661,93.877,133.661L38.712,133.661C32.724,133.661,27.862,138.523,27.862,144.511C27.862,150.5,32.724,155.361,38.712,155.361L93.877,155.361C99.865,155.361,104.727,150.5,104.727,144.511Z"/>
        </clipPath>
        <clipPath id="_clip3">
            <path d="M97.041,162.891C97.041,156.903,92.179,152.041,86.191,152.041L46.399,152.041C40.41,152.041,35.548,156.903,35.548,162.891C35.548,168.88,40.41,173.742,46.399,173.742L86.191,173.742C92.179,173.742,97.041,168.88,97.041,162.891Z"/>
        </clipPath>
    </defs>
    <g id="on" opacity="0">
        <path d="M72.863,5.631C38.197,5.631,10.053,33.776,10.053,68.441C10.053,90.958,21.927,112.865,39.75,123.953C49.366,129.936,44.649,162.116,72.15,162.657C99.65,163.197,96.196,129.986,105.767,124.083C123.706,113.019,135.673,91.046,135.673,68.441C135.673,33.776,107.529,5.631,72.863,5.631Z" fill="#ffd70d"/>
        <ellipse rx="38.943" ry="38.943" fill="#fff" fill-opacity="0.6" transform="translate(0,0) translate(67.008,70.863)"/>
        <path d="M66.295,3.062C31.629,3.062,3.484,31.207,3.484,65.873C3.484,88.389,15.358,110.296,33.181,121.384C42.797,127.367,38.08,159.547,65.581,160.088C93.081,160.629,89.627,127.417,99.199,121.514C117.138,110.45,129.105,88.477,129.105,65.873C129.105,31.207,100.96,3.062,66.295,3.062Z" fill="none" stroke="#0e334f" stroke-dasharray="290,25,10,25" stroke-width="5px"/>
    </g>
    <path id="off" d="M66.295,3.062C31.629,3.062,3.484,31.207,3.484,65.873C3.484,88.389,15.358,110.296,33.181,121.384C42.797,127.367,38.08,159.547,65.581,160.088C93.081,160.629,89.627,127.417,99.199,121.514C117.138,110.45,129.105,88.477,129.105,65.873C129.105,31.207,100.96,3.062,66.295,3.062Z" fill="none" stroke="#c5d4e0" stroke-dasharray="290,25,10,25" stroke-width="5px" opacity="1"/>
    <path id="_a0" d="M74.775,134.701L79.296,71.415C80.353,65.848,82.822,61.899,88.337,61.899C93.852,61.899,97.377,65.9,97.377,71.415C97.377,76.93,92.81,80.418,87.385,81.408C78.281,83.069,63.474,78.978,59.806,71.798C59.083,70.617,58.409,67.753,58.409,66.2C58.409,61.857,61.936,58.33,66.28,58.33C70.624,58.33,74.151,61.857,74.151,66.2C74.151,67.753,73.676,69.964,72.754,71.798C69.085,78.978,54.308,83.069,45.204,81.408C39.779,80.418,35.212,76.93,35.212,71.415C35.212,65.9,38.737,61.899,44.252,61.899C49.767,61.899,52.236,65.848,53.293,71.415L57.814,134.701" fill="none" stroke="#0e334f" stroke-dasharray="500,25,10,25" stroke-linejoin="bevel" stroke-width="5px"/>
    <path id="shine" d="M57.345,17.789C34.315,17.789,15.618,41.601,15.618,70.93" fill="none" stroke="#fff" stroke-dasharray="40,15,25,15" stroke-width="5px"/>
    <g id="socket">
        <g>
            <path d="M52,174.879C52,184.019,58.512,191.439,66.532,191.439L71.767,191.439C79.787,191.439,86.299,184.019,86.299,174.879" fill="#a7daf2"/>
            <path d="M107.582,147.366C107.582,141.378,102.72,136.516,96.732,136.516L41.567,136.516C35.579,136.516,30.717,141.378,30.717,147.366C30.717,153.355,35.579,158.216,41.567,158.216L96.732,158.216C102.72,158.216,107.582,153.355,107.582,147.366Z" fill="#a7daf2"/>
            <path d="M99.896,165.746C99.896,159.758,95.034,154.896,89.046,154.896L49.254,154.896C43.265,154.896,38.403,159.758,38.403,165.746C38.403,171.735,43.265,176.597,49.254,176.597L89.046,176.597C95.034,176.597,99.896,171.735,99.896,165.746Z" fill="#a7daf2"/>
        </g>
        <g>
            <g opacity="0.4">
                <g>
                    <g clip-path="url(#_clip1)">
                        <path d="M44.064,173.024C44.064,182.164,51.621,189.584,60.93,189.584L67.005,189.584C76.314,189.584,83.871,182.164,83.871,173.024" fill="none" stroke="#0e334f" stroke-linejoin="miter" stroke-width="17px"/>
                    </g>
                </g>
                <g>
                    <g clip-path="url(#_clip2)">
                        <path d="M25.434,143.084C25.434,149.072,30.296,153.934,36.284,153.934L91.45,153.934C97.438,153.934,102.3,149.072,102.3,143.084" fill="none" stroke="#0e334f" stroke-linejoin="miter" stroke-width="17px"/>
                    </g>
                </g>
                <g>
                    <g clip-path="url(#_clip3)">
                        <path d="M33.835,161.464C33.835,167.452,38.696,172.314,44.685,172.314L84.477,172.314C90.465,172.314,95.327,167.452,95.327,161.464" fill="none" stroke="#0e334f" stroke-linejoin="miter" stroke-width="17px"/>
                    </g>
                </g>
            </g>
        </g>
        <path d="M49.145,172.024C49.145,181.164,55.657,188.584,63.677,188.584L68.912,188.584C76.932,188.584,83.444,181.164,83.444,172.024" fill="none" stroke="#0e334f" stroke-linejoin="miter" stroke-width="5px"/>
        <path d="M94.017,133.662L94.157,133.665L94.296,133.669L94.435,133.675L94.573,133.683L94.711,133.693L94.849,133.704L94.986,133.717L95.122,133.732L95.258,133.748L95.394,133.766L95.528,133.786L95.663,133.808L95.797,133.831L95.93,133.855L96.063,133.882L96.195,133.91L96.326,133.939L96.457,133.97L96.587,134.003L96.717,134.037L96.846,134.073L96.974,134.11L97.102,134.149L97.229,134.19L97.355,134.232L97.481,134.275L97.606,134.32L97.73,134.366L97.854,134.414L97.977,134.464L98.099,134.514L98.22,134.567L98.341,134.62L98.46,134.675L98.579,134.732L98.697,134.79L98.815,134.849L98.931,134.91L99.047,134.972L99.162,135.035L99.276,135.1L99.389,135.166L99.501,135.233L99.613,135.302L99.723,135.371L99.833,135.443L99.942,135.515L100.049,135.589L100.156,135.664L100.262,135.74L100.367,135.818L100.471,135.897L100.574,135.977L100.676,136.058L100.777,136.14L100.877,136.224L100.976,136.308L101.074,136.394L101.171,136.481L101.267,136.569L101.361,136.659L101.455,136.749L101.548,136.841L101.639,136.933L101.73,137.027L101.819,137.122L101.907,137.217L101.994,137.314L102.08,137.412L102.165,137.511L102.248,137.611L102.331,137.712L102.412,137.814L102.492,137.917L102.57,138.021L102.648,138.126L102.724,138.232L102.799,138.339L102.873,138.447L102.946,138.555L103.017,138.665L103.087,138.775L103.155,138.887L103.223,138.999L103.289,139.112L103.353,139.226L103.417,139.341L103.479,139.457L103.539,139.573L103.599,139.691L103.657,139.809L103.713,139.928L103.768,140.048L103.822,140.168L103.874,140.29L103.925,140.412L103.974,140.534L104.022,140.658L104.068,140.782L104.113,140.907L104.157,141.033L104.199,141.159L104.239,141.286L104.278,141.414L104.315,141.542L104.351,141.671L104.385,141.801L104.418,141.931L104.449,142.062L104.479,142.194L104.507,142.326L104.533,142.458L104.558,142.592L104.581,142.725L104.602,142.86L104.622,142.995L104.64,143.13L104.656,143.266L104.671,143.403L104.684,143.54L104.695,143.677L104.705,143.815L104.713,143.953L104.719,144.092L104.724,144.231L104.726,144.371L104.727,144.511L104.726,144.651L104.724,144.791L104.719,144.93L104.713,145.069L104.705,145.208L104.695,145.346L104.684,145.483L104.671,145.62L104.656,145.756L104.64,145.892L104.622,146.028L104.602,146.163L104.581,146.297L104.558,146.431L104.533,146.564L104.507,146.697L104.479,146.829L104.449,146.96L104.418,147.091L104.385,147.222L104.351,147.351L104.315,147.48L104.278,147.609L104.239,147.736L104.199,147.863L104.157,147.99L104.113,148.115L104.068,148.24L104.022,148.365L103.974,148.488L103.925,148.611L103.874,148.733L103.822,148.854L103.768,148.975L103.713,149.095L103.657,149.213L103.599,149.332L103.539,149.449L103.479,149.566L103.417,149.681L103.353,149.796L103.289,149.91L103.223,150.023L103.155,150.136L103.087,150.247L103.017,150.358L102.946,150.467L102.873,150.576L102.799,150.684L102.724,150.791L102.648,150.896L102.57,151.001L102.492,151.105L102.412,151.208L102.331,151.31L102.248,151.411L102.165,151.511L102.08,151.61L101.994,151.708L101.907,151.805L101.819,151.901L101.73,151.996L101.639,152.089L101.548,152.182L101.455,152.273L101.361,152.364L101.267,152.453L101.171,152.541L101.074,152.628L100.976,152.714L100.877,152.799L100.777,152.882L100.676,152.965L100.574,153.046L100.471,153.126L100.367,153.205L100.262,153.282L100.156,153.358L100.049,153.434L99.942,153.507L99.833,153.58L99.723,153.651L99.613,153.721L99.501,153.79L99.389,153.857L99.276,153.923L99.162,153.988L99.047,154.051L98.931,154.113L98.815,154.174L98.697,154.233L98.579,154.291L98.46,154.347L98.341,154.402L98.22,154.456L98.099,154.508L97.977,154.559L97.854,154.608L97.73,154.656L97.606,154.703L97.481,154.747L97.355,154.791L97.229,154.833L97.102,154.873L96.974,154.912L96.846,154.949L96.717,154.985L96.587,155.02L96.457,155.052L96.326,155.083L96.195,155.113L96.063,155.141L95.93,155.167L95.797,155.192L95.663,155.215L95.528,155.236L95.394,155.256L95.258,155.274L95.122,155.291L94.986,155.305L94.849,155.318L94.711,155.33L94.573,155.339L94.435,155.347L94.296,155.353L94.157,155.358L94.017,155.36L93.877,155.361L38.712,155.361L38.572,155.36L38.432,155.358L38.293,155.353L38.154,155.347L38.016,155.339L37.878,155.33L37.74,155.318L37.603,155.305L37.467,155.291L37.331,155.274L37.195,155.256L37.061,155.236L36.926,155.215L36.792,155.192L36.659,155.167L36.526,155.141L36.394,155.113L36.263,155.083L36.132,155.052L36.002,155.02L35.872,154.985L35.743,154.949L35.615,154.912L35.487,154.873L35.36,154.833L35.234,154.791L35.108,154.747L34.983,154.703L34.859,154.656L34.735,154.608L34.612,154.559L34.49,154.508L34.369,154.456L34.248,154.402L34.129,154.347L34.01,154.291L33.892,154.233L33.774,154.174L33.658,154.113L33.542,154.051L33.427,153.988L33.313,153.923L33.2,153.857L33.088,153.79L32.976,153.721L32.866,153.651L32.756,153.58L32.647,153.507L32.54,153.434L32.433,153.358L32.327,153.282L32.222,153.205L32.118,153.126L32.015,153.046L31.913,152.965L31.812,152.882L31.712,152.799L31.613,152.714L31.515,152.628L31.418,152.541L31.322,152.453L31.228,152.364L31.134,152.273L31.041,152.182L30.95,152.089L30.859,151.996L30.77,151.901L30.682,151.805L30.595,151.708L30.509,151.61L30.424,151.511L30.341,151.411L30.258,151.31L30.177,151.208L30.097,151.105L30.019,151.001L29.941,150.896L29.865,150.791L29.79,150.684L29.716,150.576L29.643,150.467L29.572,150.358L29.502,150.247L29.434,150.136L29.366,150.023L29.3,149.91L29.236,149.796L29.172,149.681L29.11,149.566L29.05,149.449L28.99,149.332L28.932,149.213L28.876,149.095L28.821,148.975L28.767,148.854L28.715,148.733L28.664,148.611L28.615,148.488L28.567,148.365L28.521,148.24L28.476,148.115L28.432,147.99L28.39,147.863L28.35,147.736L28.311,147.609L28.274,147.48L28.238,147.351L28.204,147.222L28.171,147.091L28.14,146.96L28.11,146.829L28.082,146.697L28.056,146.564L28.031,146.431L28.008,146.297L27.987,146.163L27.967,146.028L27.949,145.892L27.933,145.756L27.918,145.62L27.905,145.483L27.894,145.346L27.884,145.208L27.876,145.069L27.87,144.93L27.865,144.791L27.863,144.651L27.862,144.511L27.863,144.371L27.865,144.231L27.87,144.092L27.876,143.953L27.884,143.815L27.894,143.677L27.905,143.54L27.918,143.403L27.933,143.266L27.949,143.13L27.967,142.995L27.987,142.86L28.008,142.725L28.031,142.592L28.056,142.458L28.082,142.326L28.11,142.194L28.14,142.062L28.171,141.931L28.204,141.801L28.238,141.671L28.274,141.542L28.311,141.414L28.35,141.286L28.39,141.159L28.432,141.033L28.476,140.907L28.521,140.782L28.567,140.658L28.615,140.534L28.664,140.412L28.715,140.29L28.767,140.168L28.821,140.048L28.876,139.928L28.932,139.809L28.99,139.691L29.05,139.573L29.11,139.457L29.172,139.341L29.236,139.226L29.3,139.112L29.366,138.999L29.434,138.887L29.502,138.775L29.572,138.665L29.643,138.555L29.716,138.447L29.79,138.339L29.865,138.232L29.941,138.126L30.019,138.021L30.097,137.917L30.177,137.814L30.258,137.712L30.341,137.611L30.424,137.511L30.509,137.412L30.595,137.314L30.682,137.217L30.77,137.122L30.859,137.027L30.95,136.933L31.041,136.841L31.134,136.749L31.228,136.659L31.322,136.569L31.418,136.481L31.515,136.394L31.613,136.308L31.712,136.224L31.812,136.14L31.913,136.058L32.015,135.977L32.118,135.897L32.222,135.818L32.327,135.74L32.433,135.664L32.54,135.589L32.647,135.515L32.756,135.443L32.866,135.371L32.976,135.302L33.088,135.233L33.2,135.166L33.313,135.1L33.427,135.035L33.542,134.972L33.658,134.91L33.774,134.849L33.892,134.79L34.01,134.732L34.129,134.675L34.248,134.62L34.369,134.567L34.49,134.514L34.612,134.464L34.735,134.414L34.859,134.366L34.983,134.32L35.108,134.275L35.234,134.232L35.36,134.19L35.487,134.149L35.615,134.11L35.743,134.073L35.872,134.037L36.002,134.003L36.132,133.97L36.263,133.939L36.394,133.91L36.526,133.882L36.659,133.855L36.792,133.831L36.926,133.808L37.061,133.786L37.195,133.766L37.331,133.748L37.467,133.732L37.603,133.717L37.74,133.704L37.878,133.693L38.016,133.683L38.154,133.675L38.293,133.669L38.432,133.665L38.572,133.662L38.712,133.661L93.877,133.661L94.017,133.662ZM38.728,138.661L38.635,138.662L38.558,138.663L38.483,138.666L38.408,138.669L38.332,138.673L38.257,138.678L38.183,138.685L38.109,138.692L38.036,138.7L37.962,138.708L37.889,138.718L37.817,138.729L37.745,138.74L37.672,138.753L37.601,138.766L37.53,138.78L37.459,138.795L37.389,138.811L37.318,138.828L37.249,138.845L37.18,138.863L37.11,138.883L37.042,138.902L36.974,138.923L36.905,138.945L36.837,138.968L36.77,138.991L36.704,139.015L36.637,139.04L36.57,139.066L36.504,139.092L36.439,139.119L36.375,139.147L36.31,139.176L36.245,139.206L36.181,139.236L36.119,139.266L36.054,139.299L35.992,139.331L35.93,139.365L35.867,139.399L35.807,139.433L35.746,139.469L35.684,139.506L35.625,139.543L35.565,139.58L35.506,139.619L35.448,139.657L35.389,139.698L35.331,139.738L35.274,139.78L35.216,139.822L35.161,139.864L35.106,139.907L35.05,139.951L34.994,139.997L34.94,140.042L34.888,140.087L34.834,140.134L34.781,140.182L34.729,140.229L34.678,140.277L34.627,140.326L34.577,140.376L34.527,140.426L34.479,140.477L34.43,140.528L34.381,140.581L34.334,140.634L34.289,140.686L34.242,140.74L34.197,140.794L34.153,140.848L34.108,140.905L34.064,140.961L34.023,141.016L33.981,141.072L33.939,141.131L33.899,141.188L33.859,141.246L33.819,141.305L33.781,141.365L33.743,141.424L33.706,141.484L33.669,141.546L33.634,141.605L33.599,141.668L33.565,141.73L33.533,141.789L33.5,141.853L33.467,141.918L33.436,141.981L33.407,142.043L33.377,142.109L33.347,142.175L33.319,142.239L33.293,142.303L33.266,142.369L33.24,142.436L33.216,142.502L33.191,142.571L33.168,142.637L33.146,142.703L33.124,142.772L33.103,142.841L33.083,142.909L33.064,142.98L33.045,143.049L33.028,143.117L33.011,143.188L32.996,143.258L32.981,143.328L32.967,143.401L32.953,143.473L32.941,143.543L32.93,143.616L32.919,143.69L32.909,143.76L32.901,143.833L32.892,143.91L32.885,143.982L32.879,144.055L32.874,144.132L32.87,144.209L32.866,144.282L32.864,144.356L32.862,144.436L32.862,144.511L32.862,144.587L32.864,144.666L32.866,144.74L32.87,144.814L32.874,144.891L32.879,144.967L32.885,145.04L32.892,145.113L32.901,145.189L32.909,145.262L32.919,145.333L32.93,145.406L32.941,145.48L32.953,145.55L32.967,145.621L32.981,145.695L32.996,145.765L33.012,145.834L33.028,145.905L33.045,145.973L33.064,146.043L33.083,146.113L33.103,146.181L33.124,146.251L33.146,146.319L33.168,146.385L33.191,146.452L33.216,146.521L33.24,146.586L33.266,146.653L33.293,146.72L33.319,146.783L33.347,146.848L33.377,146.914L33.407,146.979L33.436,147.042L33.467,147.104L33.499,147.169L33.533,147.233L33.565,147.293L33.599,147.355L33.635,147.418L33.669,147.477L33.706,147.539L33.743,147.598L33.781,147.658L33.82,147.718L33.859,147.776L33.899,147.835L33.939,147.892L33.981,147.95L34.023,148.007L34.065,148.062L34.108,148.117L34.153,148.174L34.197,148.229L34.242,148.282L34.289,148.337L34.334,148.389L34.381,148.441L34.43,148.494L34.478,148.545L34.527,148.595L34.577,148.646L34.628,148.697L34.679,148.746L34.729,148.794L34.781,148.841L34.834,148.889L34.887,148.935L34.94,148.98L34.995,149.026L35.05,149.071L35.106,149.115L35.161,149.158L35.216,149.2L35.274,149.243L35.331,149.284L35.389,149.325L35.447,149.365L35.506,149.404L35.565,149.442L35.625,149.48L35.685,149.517L35.745,149.553L35.807,149.589L35.868,149.624L35.93,149.658L35.992,149.691L36.055,149.724L36.118,149.756L36.181,149.787L36.246,149.817L36.31,149.847L36.375,149.876L36.438,149.903L36.504,149.931L36.571,149.957L36.637,149.983L36.704,150.008L36.77,150.032L36.837,150.055L36.905,150.077L36.974,150.099L37.042,150.12L37.11,150.14L37.179,150.159L37.249,150.178L37.319,150.195L37.388,150.211L37.458,150.227L37.531,150.243L37.602,150.257L37.672,150.27L37.744,150.282L37.817,150.294L37.89,150.304L37.962,150.314L38.035,150.323L38.109,150.331L38.184,150.338L38.257,150.344L38.332,150.349L38.407,150.354L38.483,150.357L38.559,150.359L38.635,150.361L38.728,150.361L93.861,150.361L93.954,150.361L94.03,150.359L94.106,150.357L94.182,150.354L94.257,150.349L94.332,150.344L94.405,150.338L94.48,150.331L94.554,150.323L94.627,150.314L94.699,150.304L94.772,150.294L94.845,150.282L94.917,150.27L94.988,150.257L95.058,150.243L95.13,150.227L95.201,150.211L95.27,150.195L95.34,150.178L95.41,150.159L95.479,150.14L95.547,150.12L95.615,150.099L95.684,150.077L95.752,150.055L95.819,150.032L95.885,150.008L95.952,149.983L96.018,149.957L96.085,149.931L96.15,149.904L96.214,149.876L96.28,149.846L96.343,149.817L96.407,149.787L96.471,149.756L96.534,149.724L96.597,149.691L96.659,149.658L96.721,149.624L96.782,149.589L96.844,149.553L96.904,149.517L96.964,149.48L97.024,149.442L97.083,149.404L97.142,149.365L97.2,149.325L97.259,149.283L97.315,149.243L97.372,149.201L97.428,149.158L97.484,149.115L97.54,149.07L97.593,149.027L97.648,148.981L97.702,148.935L97.755,148.889L97.808,148.841L97.86,148.794L97.91,148.746L97.961,148.697L98.012,148.646L98.062,148.595L98.111,148.545L98.16,148.493L98.208,148.441L98.254,148.39L98.3,148.337L98.347,148.282L98.393,148.227L98.436,148.174L98.48,148.119L98.524,148.062L98.566,148.007L98.608,147.95L98.65,147.892L98.691,147.833L98.731,147.776L98.768,147.719L98.808,147.658L98.846,147.598L98.883,147.539L98.92,147.477L98.954,147.418L98.989,147.355L99.024,147.293L99.057,147.231L99.09,147.169L99.121,147.106L99.153,147.042L99.183,146.977L99.213,146.914L99.241,146.85L99.27,146.783L99.297,146.718L99.323,146.653L99.349,146.586L99.374,146.519L99.397,146.454L99.42,146.387L99.444,146.317L99.465,146.251L99.486,146.181L99.506,146.111L99.525,146.045L99.543,145.975L99.561,145.905L99.577,145.834L99.593,145.765L99.608,145.695L99.622,145.621L99.636,145.55L99.648,145.48L99.659,145.406L99.67,145.333L99.68,145.26L99.689,145.189L99.697,145.115L99.704,145.04L99.71,144.965L99.715,144.891L99.719,144.816L99.723,144.738L99.725,144.664L99.727,144.589L99.727,144.511L99.727,144.433L99.725,144.358L99.723,144.284L99.719,144.206L99.715,144.132L99.71,144.057L99.704,143.982L99.697,143.907L99.689,143.833L99.68,143.762L99.67,143.69L99.659,143.616L99.648,143.543L99.636,143.473L99.622,143.401L99.608,143.328L99.593,143.258L99.577,143.188L99.561,143.117L99.543,143.047L99.525,142.978L99.506,142.911L99.486,142.841L99.465,142.772L99.443,142.705L99.42,142.635L99.397,142.569L99.374,142.504L99.349,142.436L99.323,142.369L99.297,142.305L99.27,142.239L99.241,142.173L99.213,142.109L99.183,142.045L99.153,141.981L99.121,141.916L99.089,141.853L99.057,141.791L99.024,141.73L98.99,141.668L98.955,141.605L98.92,141.546L98.883,141.484L98.846,141.424L98.808,141.365L98.769,141.304L98.73,141.246L98.691,141.189L98.65,141.131L98.608,141.072L98.566,141.016L98.525,140.961L98.48,140.904L98.436,140.848L98.393,140.795L98.347,140.74L98.3,140.686L98.254,140.633L98.208,140.581L98.16,140.529L98.11,140.477L98.062,140.426L98.012,140.376L97.962,140.326L97.911,140.277L97.86,140.229L97.808,140.182L97.755,140.134L97.701,140.087L97.648,140.041L97.594,139.996L97.54,139.952L97.484,139.908L97.428,139.864L97.372,139.821L97.315,139.78L97.259,139.739L97.2,139.698L97.141,139.657L97.083,139.619L97.024,139.58L96.964,139.543L96.905,139.506L96.843,139.469L96.782,139.433L96.722,139.399L96.659,139.365L96.597,139.331L96.535,139.299L96.47,139.266L96.407,139.235L96.344,139.206L96.28,139.176L96.214,139.147L96.149,139.119L96.085,139.092L96.019,139.066L95.952,139.04L95.885,139.015L95.819,138.991L95.752,138.968L95.684,138.945L95.615,138.923L95.547,138.902L95.479,138.883L95.409,138.863L95.34,138.845L95.271,138.828L95.2,138.811L95.129,138.795L95.059,138.78L94.989,138.766L94.917,138.753L94.844,138.74L94.772,138.729L94.701,138.718L94.627,138.708L94.553,138.7L94.48,138.692L94.406,138.685L94.332,138.678L94.257,138.673L94.181,138.669L94.106,138.666L94.031,138.663L93.954,138.662L93.861,138.661L38.728,138.661Z" fill="#0e334f"/>
        <path d="M86.331,152.042L86.47,152.045L86.61,152.049L86.749,152.055L86.887,152.063L87.025,152.073L87.162,152.084L87.299,152.097L87.436,152.112L87.572,152.129L87.707,152.147L87.842,152.166L87.976,152.188L88.11,152.211L88.243,152.236L88.376,152.262L88.508,152.29L88.64,152.319L88.771,152.35L88.901,152.383L89.03,152.417L89.159,152.453L89.288,152.491L89.416,152.529L89.543,152.57L89.669,152.612L89.795,152.655L89.92,152.7L90.044,152.747L90.167,152.794L90.29,152.844L90.412,152.895L90.533,152.947L90.654,153L90.774,153.055L90.893,153.112L91.011,153.17L91.128,153.229L91.245,153.29L91.361,153.352L91.475,153.415L91.589,153.48L91.703,153.546L91.815,153.613L91.926,153.682L92.037,153.752L92.146,153.823L92.255,153.895L92.363,153.969L92.47,154.044L92.576,154.121L92.681,154.198L92.785,154.277L92.888,154.357L92.99,154.438L93.091,154.52L93.191,154.604L93.289,154.688L93.387,154.774L93.484,154.861L93.58,154.95L93.675,155.039L93.769,155.129L93.861,155.221L93.953,155.313L94.043,155.407L94.132,155.502L94.221,155.598L94.308,155.695L94.393,155.792L94.478,155.891L94.562,155.991L94.644,156.092L94.725,156.194L94.805,156.297L94.884,156.401L94.961,156.506L95.038,156.612L95.113,156.719L95.187,156.827L95.259,156.935L95.33,157.045L95.4,157.156L95.469,157.267L95.536,157.379L95.602,157.492L95.667,157.607L95.73,157.721L95.792,157.837L95.853,157.954L95.912,158.071L95.97,158.189L96.026,158.308L96.082,158.428L96.135,158.548L96.187,158.67L96.238,158.792L96.288,158.915L96.335,159.038L96.382,159.162L96.427,159.287L96.47,159.413L96.512,159.539L96.552,159.666L96.591,159.794L96.629,159.922L96.665,160.051L96.699,160.181L96.731,160.311L96.763,160.442L96.792,160.574L96.82,160.706L96.846,160.839L96.871,160.972L96.894,161.106L96.916,161.24L96.935,161.375L96.953,161.51L96.97,161.646L96.985,161.783L96.998,161.92L97.009,162.057L97.019,162.195L97.026,162.333L97.033,162.472L97.037,162.612L97.04,162.751L97.041,162.891L97.04,163.032L97.037,163.171L97.033,163.311L97.026,163.449L97.019,163.588L97.009,163.726L96.998,163.863L96.985,164L96.97,164.137L96.953,164.273L96.935,164.408L96.916,164.543L96.894,164.677L96.871,164.811L96.846,164.944L96.82,165.077L96.792,165.209L96.763,165.341L96.731,165.471L96.699,165.602L96.665,165.731L96.629,165.86L96.591,165.989L96.552,166.116L96.512,166.243L96.47,166.37L96.427,166.495L96.382,166.62L96.335,166.745L96.288,166.868L96.238,166.991L96.187,167.113L96.135,167.234L96.082,167.355L96.026,167.475L95.97,167.594L95.912,167.712L95.853,167.829L95.792,167.946L95.73,168.061L95.667,168.176L95.602,168.29L95.536,168.404L95.469,168.516L95.4,168.627L95.33,168.738L95.259,168.847L95.187,168.956L95.113,169.064L95.038,169.171L94.961,169.277L94.884,169.381L94.805,169.485L94.725,169.588L94.644,169.69L94.562,169.791L94.478,169.891L94.393,169.99L94.308,170.088L94.221,170.185L94.132,170.281L94.043,170.376L93.953,170.469L93.861,170.562L93.769,170.654L93.675,170.744L93.58,170.833L93.484,170.921L93.387,171.008L93.289,171.094L93.191,171.179L93.091,171.263L92.99,171.345L92.888,171.426L92.785,171.506L92.681,171.585L92.576,171.662L92.47,171.739L92.363,171.814L92.255,171.887L92.146,171.96L92.037,172.031L91.926,172.101L91.815,172.17L91.703,172.237L91.589,172.303L91.475,172.368L91.361,172.431L91.245,172.493L91.128,172.554L91.011,172.613L90.893,172.671L90.774,172.727L90.654,172.782L90.533,172.836L90.412,172.888L90.29,172.939L90.167,172.988L90.044,173.036L89.92,173.083L89.795,173.128L89.669,173.171L89.543,173.213L89.416,173.253L89.288,173.292L89.159,173.33L89.03,173.365L88.901,173.4L88.771,173.432L88.64,173.463L88.508,173.493L88.376,173.521L88.243,173.547L88.11,173.572L87.976,173.595L87.842,173.616L87.707,173.636L87.572,173.654L87.436,173.671L87.299,173.685L87.162,173.699L87.025,173.71L86.887,173.72L86.749,173.727L86.61,173.734L86.47,173.738L86.331,173.741L86.191,173.742L46.399,173.742L46.258,173.741L46.119,173.738L45.979,173.734L45.841,173.727L45.702,173.72L45.564,173.71L45.427,173.699L45.29,173.685L45.153,173.671L45.017,173.654L44.882,173.636L44.747,173.616L44.613,173.595L44.479,173.572L44.346,173.547L44.213,173.521L44.081,173.493L43.949,173.463L43.819,173.432L43.688,173.4L43.559,173.365L43.43,173.33L43.301,173.292L43.173,173.253L43.046,173.213L42.92,173.171L42.794,173.128L42.669,173.083L42.545,173.036L42.422,172.988L42.299,172.939L42.177,172.888L42.056,172.836L41.935,172.782L41.815,172.727L41.696,172.671L41.578,172.613L41.461,172.554L41.344,172.493L41.228,172.431L41.114,172.368L41,172.303L40.886,172.237L40.774,172.17L40.663,172.101L40.552,172.031L40.443,171.96L40.334,171.887L40.226,171.814L40.119,171.739L40.013,171.662L39.908,171.585L39.804,171.506L39.701,171.426L39.599,171.345L39.498,171.263L39.399,171.179L39.3,171.094L39.202,171.008L39.105,170.921L39.009,170.833L38.914,170.744L38.82,170.654L38.728,170.562L38.636,170.469L38.546,170.376L38.457,170.281L38.368,170.185L38.281,170.088L38.196,169.99L38.111,169.891L38.027,169.791L37.945,169.69L37.864,169.588L37.784,169.485L37.705,169.381L37.628,169.277L37.551,169.171L37.476,169.064L37.402,168.956L37.33,168.847L37.259,168.738L37.189,168.627L37.12,168.516L37.053,168.404L36.987,168.29L36.922,168.176L36.859,168.061L36.797,167.946L36.736,167.829L36.677,167.712L36.619,167.594L36.563,167.475L36.507,167.355L36.454,167.234L36.402,167.113L36.351,166.991L36.301,166.868L36.254,166.745L36.207,166.62L36.162,166.495L36.119,166.37L36.077,166.243L36.037,166.116L35.998,165.989L35.96,165.86L35.924,165.731L35.89,165.602L35.858,165.471L35.826,165.341L35.797,165.209L35.769,165.077L35.743,164.944L35.718,164.811L35.695,164.677L35.674,164.543L35.654,164.408L35.636,164.273L35.619,164.137L35.604,164L35.591,163.863L35.58,163.726L35.57,163.588L35.563,163.449L35.556,163.311L35.552,163.171L35.549,163.032L35.548,162.891L35.549,162.751L35.552,162.612L35.556,162.472L35.563,162.333L35.57,162.195L35.58,162.057L35.591,161.92L35.604,161.783L35.619,161.646L35.636,161.51L35.654,161.375L35.674,161.24L35.695,161.106L35.718,160.972L35.743,160.839L35.769,160.706L35.797,160.574L35.826,160.442L35.858,160.311L35.89,160.181L35.924,160.051L35.96,159.922L35.998,159.794L36.037,159.666L36.077,159.539L36.119,159.413L36.162,159.287L36.207,159.162L36.254,159.038L36.301,158.915L36.351,158.792L36.402,158.67L36.454,158.548L36.507,158.428L36.563,158.308L36.619,158.189L36.677,158.071L36.736,157.954L36.797,157.837L36.859,157.721L36.922,157.607L36.987,157.492L37.053,157.379L37.12,157.267L37.189,157.156L37.259,157.045L37.33,156.935L37.402,156.827L37.476,156.719L37.551,156.612L37.628,156.506L37.705,156.401L37.784,156.297L37.864,156.194L37.945,156.092L38.027,155.991L38.111,155.891L38.196,155.792L38.281,155.695L38.368,155.598L38.457,155.502L38.546,155.407L38.636,155.313L38.728,155.221L38.82,155.129L38.914,155.039L39.009,154.95L39.105,154.861L39.202,154.774L39.3,154.688L39.399,154.604L39.498,154.52L39.599,154.438L39.701,154.357L39.804,154.277L39.908,154.198L40.013,154.121L40.119,154.044L40.226,153.969L40.334,153.895L40.443,153.823L40.552,153.752L40.663,153.682L40.774,153.613L40.886,153.546L41,153.48L41.114,153.415L41.228,153.352L41.344,153.29L41.461,153.229L41.578,153.17L41.696,153.112L41.815,153.055L41.935,153L42.056,152.947L42.177,152.895L42.299,152.844L42.422,152.794L42.545,152.747L42.669,152.7L42.794,152.655L42.92,152.612L43.046,152.57L43.173,152.529L43.301,152.491L43.43,152.453L43.559,152.417L43.688,152.383L43.819,152.35L43.949,152.319L44.081,152.29L44.213,152.262L44.346,152.236L44.479,152.211L44.613,152.188L44.747,152.166L44.882,152.147L45.017,152.129L45.153,152.112L45.29,152.097L45.427,152.084L45.564,152.073L45.702,152.063L45.841,152.055L45.979,152.049L46.119,152.045L46.258,152.042L46.399,152.041L86.191,152.041L86.331,152.042ZM46.416,157.041L46.322,157.042L46.244,157.043L46.169,157.046L46.095,157.049L46.02,157.053L45.943,157.059L45.87,157.065L45.795,157.072L45.721,157.08L45.65,157.088L45.575,157.098L45.502,157.109L45.431,157.121L45.359,157.133L45.288,157.146L45.217,157.16L45.146,157.175L45.075,157.191L45.005,157.208L44.935,157.225L44.866,157.244L44.796,157.263L44.728,157.283L44.659,157.304L44.592,157.325L44.526,157.347L44.455,157.372L44.389,157.395L44.324,157.42L44.257,157.445L44.192,157.472L44.125,157.499L44.06,157.527L43.996,157.556L43.932,157.585L43.868,157.616L43.804,157.647L43.742,157.678L43.678,157.712L43.616,157.745L43.555,157.778L43.493,157.814L43.432,157.849L43.371,157.886L43.31,157.923L43.253,157.959L43.192,157.999L43.132,158.039L43.075,158.078L43.018,158.119L42.961,158.16L42.903,158.202L42.847,158.244L42.791,158.288L42.737,158.331L42.682,158.376L42.626,158.423L42.574,158.467L42.522,158.513L42.469,158.561L42.416,158.609L42.364,158.658L42.312,158.708L42.263,158.756L42.215,158.805L42.165,158.857L42.115,158.91L42.067,158.962L42.021,159.014L41.976,159.064L41.929,159.12L41.882,159.177L41.839,159.229L41.796,159.283L41.751,159.34L41.709,159.396L41.668,159.452L41.625,159.512L41.584,159.569L41.546,159.626L41.506,159.685L41.467,159.745L41.43,159.803L41.394,159.863L41.356,159.925L41.32,159.988L41.287,160.046L41.252,160.109L41.218,160.171L41.185,160.235L41.153,160.299L41.123,160.36L41.093,160.423L41.064,160.487L41.034,160.554L41.006,160.619L40.979,160.684L40.952,160.75L40.926,160.817L40.902,160.882L40.879,160.947L40.854,161.02L40.832,161.086L40.811,161.151L40.79,161.222L40.77,161.29L40.751,161.357L40.733,161.427L40.715,161.498L40.698,161.57L40.682,161.639L40.668,161.708L40.653,161.783L40.64,161.854L40.628,161.922L40.616,161.995L40.606,162.068L40.596,162.142L40.587,162.214L40.579,162.286L40.572,162.363L40.566,162.44L40.56,162.514L40.556,162.586L40.553,162.662L40.55,162.739L40.549,162.813L40.548,162.891L40.549,162.97L40.55,163.044L40.553,163.121L40.556,163.197L40.56,163.268L40.566,163.343L40.572,163.42L40.579,163.497L40.587,163.569L40.596,163.64L40.605,163.714L40.616,163.788L40.628,163.861L40.64,163.929L40.653,164.001L40.668,164.074L40.682,164.144L40.698,164.213L40.715,164.285L40.733,164.356L40.751,164.426L40.769,164.492L40.79,164.561L40.811,164.633L40.832,164.697L40.854,164.763L40.879,164.835L40.902,164.9L40.926,164.965L40.952,165.032L40.979,165.099L41.006,165.164L41.034,165.228L41.064,165.296L41.093,165.36L41.123,165.422L41.153,165.484L41.186,165.549L41.218,165.611L41.252,165.674L41.286,165.736L41.319,165.794L41.357,165.858L41.394,165.92L41.43,165.979L41.468,166.038L41.506,166.098L41.546,166.157L41.584,166.214L41.625,166.271L41.668,166.33L41.709,166.387L41.751,166.443L41.795,166.499L41.838,166.553L41.882,166.607L41.93,166.664L41.976,166.718L42.021,166.769L42.068,166.821L42.115,166.872L42.165,166.925L42.215,166.977L42.264,167.027L42.313,167.076L42.364,167.125L42.415,167.173L42.468,167.221L42.523,167.271L42.575,167.317L42.626,167.36L42.681,167.406L42.737,167.452L42.791,167.495L42.847,167.539L42.903,167.581L42.96,167.622L43.018,167.664L43.075,167.705L43.133,167.744L43.192,167.784L43.252,167.823L43.312,167.86L43.372,167.898L43.432,167.934L43.491,167.968L43.554,168.004L43.616,168.038L43.678,168.071L43.742,168.104L43.804,168.136L43.868,168.167L43.932,168.198L43.997,168.228L44.06,168.256L44.125,168.283L44.192,168.311L44.256,168.337L44.324,168.363L44.391,168.388L44.457,168.412L44.524,168.435L44.592,168.458L44.659,168.479L44.727,168.5L44.798,168.52L44.866,168.539L44.935,168.558L45.005,168.575L45.075,168.592L45.146,168.608L45.216,168.622L45.288,168.637L45.359,168.65L45.431,168.662L45.504,168.674L45.575,168.684L45.648,168.694L45.723,168.703L45.797,168.711L45.87,168.718L45.943,168.724L46.018,168.729L46.093,168.734L46.169,168.737L46.246,168.739L46.322,168.741L46.414,168.742L86.175,168.742L86.267,168.741L86.343,168.739L86.42,168.737L86.496,168.734L86.571,168.729L86.645,168.724L86.719,168.718L86.792,168.711L86.866,168.703L86.941,168.694L87.014,168.684L87.085,168.674L87.158,168.662L87.23,168.65L87.301,168.637L87.373,168.622L87.443,168.608L87.514,168.592L87.584,168.575L87.654,168.558L87.724,168.539L87.791,168.52L87.861,168.5L87.93,168.479L87.998,168.458L88.065,168.435L88.131,168.412L88.198,168.388L88.267,168.363L88.333,168.337L88.398,168.311L88.463,168.284L88.527,168.256L88.593,168.227L88.658,168.197L88.721,168.167L88.784,168.136L88.847,168.104L88.911,168.071L88.973,168.038L89.035,168.004L89.096,167.969L89.158,167.933L89.217,167.898L89.277,167.86L89.339,167.822L89.397,167.784L89.454,167.746L89.512,167.706L89.573,167.663L89.631,167.621L89.686,167.581L89.742,167.539L89.796,167.496L89.852,167.452L89.908,167.406L89.961,167.362L90.015,167.315L90.068,167.269L90.122,167.221L90.174,167.173L90.223,167.126L90.274,167.078L90.326,167.026L90.376,166.976L90.425,166.925L90.473,166.874L90.519,166.823L90.568,166.769L90.615,166.715L90.661,166.662L90.705,166.609L90.751,166.553L90.795,166.497L90.836,166.445L90.88,166.387L90.923,166.328L90.963,166.274L91.003,166.216L91.045,166.155L91.083,166.098L91.12,166.041L91.16,165.977L91.197,165.917L91.232,165.858L91.268,165.797L91.303,165.736L91.337,165.674L91.37,165.611L91.403,165.549L91.434,165.487L91.466,165.422L91.497,165.357L91.526,165.293L91.555,165.228L91.583,165.164L91.61,165.099L91.637,165.032L91.661,164.969L91.687,164.9L91.711,164.832L91.734,164.766L91.757,164.697L91.779,164.629L91.798,164.564L91.819,164.492L91.839,164.423L91.856,164.356L91.874,164.285L91.891,164.213L91.907,164.144L91.921,164.074L91.935,164.004L91.949,163.932L91.962,163.857L91.973,163.785L91.984,163.714L91.993,163.644L92.002,163.569L92.01,163.493L92.017,163.42L92.023,163.346L92.028,163.272L92.033,163.197L92.036,163.121L92.039,163.044L92.04,162.966L92.041,162.891L92.04,162.817L92.039,162.739L92.036,162.662L92.033,162.586L92.028,162.511L92.023,162.437L92.017,162.363L92.01,162.29L92.002,162.214L91.993,162.139L91.984,162.068L91.973,161.998L91.962,161.926L91.949,161.85L91.936,161.779L91.921,161.708L91.907,161.639L91.891,161.57L91.874,161.498L91.856,161.427L91.839,161.36L91.819,161.29L91.798,161.219L91.779,161.154L91.757,161.086L91.734,161.016L91.711,160.95L91.687,160.882L91.661,160.814L91.637,160.75L91.61,160.684L91.583,160.619L91.555,160.554L91.526,160.49L91.497,160.426L91.466,160.36L91.434,160.296L91.404,160.235L91.37,160.171L91.337,160.109L91.302,160.046L91.268,159.985L91.233,159.925L91.197,159.865L91.16,159.806L91.12,159.743L91.083,159.685L91.045,159.628L91.003,159.567L90.963,159.509L90.923,159.455L90.88,159.396L90.836,159.338L90.795,159.285L90.75,159.229L90.706,159.174L90.662,159.122L90.614,159.067L90.568,159.014L90.52,158.96L90.472,158.908L90.424,158.857L90.376,158.807L90.327,158.758L90.275,158.706L90.223,158.657L90.173,158.609L90.121,158.561L90.069,158.515L90.016,158.469L89.961,158.421L89.907,158.376L89.852,158.331L89.796,158.287L89.742,158.244L89.686,158.202L89.63,158.161L89.573,158.12L89.512,158.077L89.455,158.038L89.397,157.999L89.338,157.96L89.279,157.923L89.218,157.886L89.158,157.85L89.095,157.813L89.034,157.778L88.973,157.745L88.911,157.712L88.847,157.678L88.784,157.646L88.721,157.616L88.658,157.586L88.594,157.557L88.527,157.527L88.463,157.499L88.398,157.472L88.332,157.445L88.267,157.42L88.2,157.395L88.133,157.371L88.063,157.347L87.998,157.325L87.93,157.304L87.86,157.282L87.793,157.263L87.724,157.244L87.654,157.225L87.584,157.208L87.514,157.191L87.443,157.175L87.371,157.16L87.301,157.146L87.23,157.133L87.158,157.12L87.087,157.109L87.014,157.098L86.939,157.088L86.868,157.08L86.794,157.072L86.719,157.065L86.645,157.059L86.569,157.053L86.494,157.049L86.42,157.046L86.345,157.043L86.267,157.042L86.173,157.041L46.416,157.041Z" fill="#0e334f"/>
    </g>
    <script xlink:href="keyshapejs-1.0.0.min.js"/>
    <script><![CDATA[if(KeyshapeJS.version.indexOf('1.')!=0)throw Error('Expected KeyshapeJS v1.*.*');window.ks=document.ks=KeyshapeJS;(function(ks){
ks.animate("#on",[{p:'opacity',t:[0,966,1000,1100,1133,1200,1233,1366,1400,2000,2033,7000],v:[0,0,1,1,0,0,1,1,0,0,1,1],e:[[0],[0],[0],[0],[0],[0],[0],[0],[0],[0],[0],[0]]}],
"#off",[{p:'opacity',t:[0,966,1000,1100,1133,1200,1233,1366,1400,2000,2033],v:[1,1,0,0,1,0,1,0,1,1,0],e:[[0],[0],[0],[0],[0],[0],[0],[0],[0],[0],[0]]}],
"#_a0",[{p:'stroke',t:[0,966,1000,1100,1133,1200,1233,1366,1400,2000,2033],v:['#0e334f','#0e334f','#ffffff','#ffffff','#0e334f','#0e334f','#ffffff','#ffffff','#0e334f','#0e334f','#ffffff'],e:[[0],[0],[0],[0],[0],[0],[0],[0],[0],[0],[0]]}],
{autoremove:false}).range(0,7000).loop(true);
if(document.location.search.substr(1).split('&').indexOf('global=paused')>=0)ks.globalPause()})(KeyshapeJS);
]]></script>
</svg>
