<?xml version="1.0" encoding="UTF-8" standalone="no"?><!DOCTYPE svg PUBLIC "-//W3C//DTD SVG 1.1//EN" "http://www.w3.org/Graphics/SVG/1.1/DTD/svg11.dtd"><svg width="100%" height="100%" viewBox="0 0 204 285" version="1.1" xmlns="http://www.w3.org/2000/svg" xmlns:xlink="http://www.w3.org/1999/xlink" xml:space="preserve" xmlns:serif="http://www.serif.com/" style="fill-rule:evenodd;clip-rule:evenodd;stroke-linecap:round;stroke-linejoin:round;stroke-miterlimit:1.5;"><g id="Colour"><g id="diamond"><g><path d="M145.239,99.418L58.12,99.418L79.9,77.746L123.459,77.746L145.239,99.418Z" style="fill:#a7daf2;"/><path d="M145.239,99.437L58.12,99.437L101.533,131.679L145.239,99.437Z" style="fill:#a7daf2;"/><path d="M145.239,99.418L58.12,99.418L79.9,77.746L123.459,77.746L145.239,99.418Z" style="fill:none;stroke:#f7fff7;stroke-width:5px;"/><path d="M145.239,99.437L58.12,99.437L101.533,131.679L145.239,99.437Z" style="fill:none;stroke:#f7fff7;stroke-width:5px;"/><path d="M80.289,78.3L91.191,101.447L102.313,78.348L80.289,78.3Z" style="fill:#f7fff7;"/><path d="M101.947,78.3L112.849,101.447L123.97,78.348L101.947,78.3Z" style="fill:#f7fff7;fill-opacity:0.5;"/><path d="M75.395,99.399L101.511,131.737L94.657,99.466L75.395,99.399Z" style="fill:#f7fff7;fill-opacity:0.5;"/><path d="M127.834,99.399L101.719,131.737L108.572,99.466L127.834,99.399Z" style="fill:#f7fff7;fill-opacity:0.2;"/></g><path d="M145.244,99.413L145.245,99.413L145.245,99.413L145.245,99.413L145.244,99.413L101.538,131.655L58.125,99.413L58.125,99.413L58.125,99.413L58.125,99.413L58.125,99.413L79.905,77.741L123.465,77.741L145.244,99.413Z" style="fill:none;stroke:#0e334f;stroke-width:5px;stroke-dasharray:400,25,10,25;"/></g><g id="ring"><path d="M142.753,137.459C142.753,137.459 149.706,143.428 153.361,147.083C183.256,176.978 183.256,225.521 153.361,255.417C123.465,285.312 74.922,285.312 45.027,255.417C15.131,225.521 15.131,176.978 45.027,147.083C48.681,143.428 55.634,137.459 55.634,137.459L75.414,117.787L118.973,117.787L142.753,137.459ZM142.415,244.471C118.56,268.326 79.827,268.326 55.972,244.471C32.118,220.616 32.118,181.883 55.972,158.028C79.827,134.174 118.56,134.174 142.415,158.028C166.27,181.883 166.27,220.616 142.415,244.471Z" style="fill:#ffd70d;"/><path d="M60.567,249.054C63.016,251.425 65.615,253.55 68.333,255.43L57.243,266.52C54.596,264.54 52.049,262.367 49.62,260.001L60.567,249.054ZM46.095,227.291C48.313,233.006 51.422,238.454 55.422,243.42L44.426,254.417C40.389,249.624 37.033,244.452 34.359,239.028L46.095,227.291ZM157.945,151.676C160.311,154.105 162.484,156.652 164.464,159.299L153.374,170.389C151.494,167.671 149.369,165.072 146.998,162.623L157.945,151.676ZM139.322,134.064L146.626,141.331C146.626,141.331 149.429,143.738 152.411,146.431L141.364,157.478C136.399,153.478 130.951,150.369 125.235,148.151L139.322,134.064Z" style="fill:#f7fff7;fill-opacity:0.8;fill-rule:nonzero;"/><path d="M146.626,141.331C146.626,141.331 153.579,147.301 157.233,150.955C187.129,180.851 187.129,229.394 157.233,259.289C127.338,289.185 78.795,289.185 48.9,259.289C19.004,229.394 19.004,180.851 48.9,150.955C52.554,147.301 59.507,141.331 59.507,141.331L81.287,119.66L124.846,119.66L146.626,141.331ZM146.288,248.344C122.433,272.198 83.7,272.198 59.845,248.344C35.99,224.489 35.99,185.756 59.845,161.901C83.7,138.046 122.433,138.046 146.288,161.901C170.143,185.756 170.143,224.489 146.288,248.344Z" style="fill:none;stroke:#0e334f;stroke-width:5px;stroke-dasharray:300,25,10,25;"/></g><g id="Sparkles"><path d="M100.897,3.477L100.897,58.647" style="fill:none;stroke:#f7fff7;stroke-width:5px;stroke-dasharray:40,15,10,25;"/><path d="M154.635,16.379L127.049,64.158" style="fill:none;stroke:#f7fff7;stroke-width:5px;stroke-dasharray:10,15,40,25;"/><path d="M183.748,54.778L151.052,73.656" style="fill:none;stroke:#f7fff7;stroke-width:5px;stroke-dasharray:10,25,5,10;"/><path d="M200.781,100.991L161.129,100.991" style="fill:none;stroke:#f7fff7;stroke-width:5px;stroke-dasharray:25,10,5,25;"/><path d="M52.676,16.379L80.261,64.158" style="fill:none;stroke:#f7fff7;stroke-width:5px;stroke-dasharray:40,15,10,25;"/><path d="M19.61,54.778L52.307,73.656" style="fill:none;stroke:#f7fff7;stroke-width:5px;stroke-dasharray:25,15,10,25;stroke-dashoffset:15;"/><path d="M183.748,54.778L151.052,73.656" style="fill:none;stroke:#f7fff7;stroke-width:5px;stroke-dasharray:10,25,5,10;"/><path d="M2.578,100.991L42.23,100.991" style="fill:none;stroke:#f7fff7;stroke-width:5px;stroke-dasharray:25,10,5,25;"/></g></g></svg>