<?xml version="1.0" encoding="UTF-8" standalone="no"?>
<!-- Created with Keyshape -->
<svg xmlns="http://www.w3.org/2000/svg" xmlns:xlink="http://www.w3.org/1999/xlink" width="100%" height="100%" viewBox="0 0 237 198" clip-rule="evenodd" fill-rule="evenodd" stroke-linecap="round" stroke-linejoin="round" stroke-miterlimit="1.5" style="white-space: preserve-spaces; background: rgba(23,84,130,0.00);">
    <defs>
        <clipPath id="_clip1">
            <path d="M186.564,31.858L182.684,33.072L144.187,99.75L137.841,96.086L176.338,29.408L175.449,25.441L183.211,16.898L190.081,20.865L186.564,31.858Z"/>
        </clipPath>
        <clipPath id="_clip2">
            <path d="M149.539,101.271C152.914,103.22,154.072,107.542,152.123,110.917L114.662,175.802C114.501,176.081,114.323,176.345,114.131,176.593C113.946,176.999,113.74,177.399,113.513,177.792C109.616,184.542,100.972,186.858,94.222,182.961C87.472,179.064,85.156,170.42,89.053,163.67C89.28,163.277,89.524,162.898,89.782,162.535C89.901,162.245,90.041,161.959,90.202,161.68L127.664,96.795C129.612,93.42,133.934,92.262,137.309,94.21L149.539,101.271Z"/>
        </clipPath>
    </defs>
    <g id="spanner">
        <path d="M17.55,179.82L5.062,172.61C1.616,170.62,0.433,166.207,2.423,162.76L66.338,52.056C59.56,41.971,58.656,28.496,65.136,17.272C71.174,6.813,82.111,0.93,93.381,0.846L81.258,21.845L88.659,41.212L90.643,42.358L110.019,38.45L122.143,17.451C127.705,27.254,128.078,39.667,122.04,50.125C115.56,61.349,103.438,67.304,91.315,66.476L27.4,177.181C25.41,180.627,20.997,181.81,17.55,179.82ZM23.022,161.454C25.856,163.091,26.829,166.72,25.193,169.555C23.556,172.389,19.926,173.362,17.092,171.725C14.258,170.089,13.285,166.459,14.921,163.625C16.558,160.79,20.188,159.818,23.022,161.454Z" fill="#a7daf2"/>
        <path d="M92.433,41.997L110.019,38.45L122.143,17.451C127.705,27.254,128.078,39.667,122.04,50.125C115.56,61.349,103.438,67.304,91.315,66.476L27.4,177.181C25.41,180.627,20.997,181.81,17.55,179.82L14.034,177.79L17.43,171.907C20.209,173.282,23.621,172.278,25.193,169.555C26.765,166.832,25.929,163.375,23.348,161.657L92.433,41.997Z" fill="#f7fff7" fill-opacity="0.501961"/>
        <path d="M44.808,147.029L5.41,157.586L11.067,147.788L50.465,137.231L44.808,147.029ZM55.481,128.543L16.084,139.099L26.69,120.728L66.088,110.171L55.481,128.543ZM125.051,43.176C124.334,45.552,123.334,47.884,122.04,50.125C121.523,51.02,120.971,51.881,120.385,52.708L56.001,69.96L61.658,60.162L125.051,43.176ZM123.736,20.654C125.741,25.301,126.665,30.379,126.396,35.471L66.062,51.638C63.283,47.362,61.543,42.502,60.957,37.476L84.791,31.09L88.659,41.212L90.643,42.358L110.019,38.45L119.663,21.746L123.736,20.654Z" fill="#f7fff7" fill-rule="nonzero"/>
        <path d="M88.076,59.175C88.715,58.067,88.335,56.649,87.228,56.01L83.215,53.693C82.108,53.054,80.69,53.434,80.05,54.541L23.783,151.999C23.144,153.106,23.524,154.524,24.631,155.163L28.644,157.48C29.751,158.119,31.169,157.739,31.808,156.632L88.076,59.175Z" fill="#0e334f" fill-opacity="0.2"/>
        <path d="M18.77,184.37L6.281,177.16C2.835,175.17,1.652,170.756,3.642,167.31L67.557,56.606C60.78,46.521,59.875,33.046,66.355,21.821C72.393,11.363,83.33,5.48,94.601,5.395L82.477,26.394L89.878,45.762L91.863,46.908L111.238,43L123.362,22.001C128.924,31.804,129.297,44.217,123.259,54.675C116.779,65.899,104.657,71.853,92.534,71.026L28.619,181.731C26.629,185.177,22.216,186.36,18.77,184.37ZM23.022,161.454C25.856,163.091,26.829,166.72,25.193,169.555C23.556,172.389,19.926,173.362,17.092,171.725C14.258,170.089,13.285,166.459,14.921,163.625C16.558,160.79,20.188,159.818,23.022,161.454Z" fill="none" stroke="#0e334f" stroke-dasharray="500,25,10,25" stroke-dashoffset="450" stroke-width="5px"/>
    </g>
    <g id="screwdriver">
        <path d="M149.539,101.271C152.914,103.22,154.072,107.542,152.123,110.917L114.662,175.802C114.501,176.081,114.323,176.345,114.131,176.593C113.946,176.999,113.74,177.399,113.513,177.792C109.616,184.542,100.972,186.858,94.222,182.961C87.472,179.064,85.156,170.42,89.053,163.67C89.28,163.277,89.524,162.898,89.782,162.535C89.901,162.245,90.041,161.959,90.202,161.68L127.664,96.795C129.612,93.42,133.934,92.262,137.309,94.21L149.539,101.271Z" fill="#eb4034"/>
        <path d="M186.564,31.858L182.684,33.072L144.187,99.75L137.841,96.086L176.338,29.408L175.449,25.441L183.211,16.898L190.081,20.865L186.564,31.858Z" fill="#a7daf2"/>
        <g clip-path="url(#_clip1)">
            <path d="M232.583,51.59C235.474,52.013,235.734,53.024,236.269,54.171C237.365,56.521,235.983,59.548,233.355,60.419L77.991,102.049C74.553,102.759,71.024,98.982,72.866,95.567C73.412,94.554,73.826,93.964,75.662,93.356L231.026,51.726C231.613,51.605,231.22,51.55,232.583,51.59ZM227.733,30.747C230.197,31.1,230.876,31.621,231.981,32.601C235.951,36.122,234.574,43.674,228.946,45.456L73.582,87.086C67.755,88.37,62.003,81.824,65.063,76.238C65.82,74.857,67.013,73.733,68.437,73.06C68.979,72.804,69.13,72.778,69.7,72.597L225.063,30.968C227.078,30.524,227.126,30.716,227.733,30.747Z" fill="#f7fff7" fill-rule="nonzero"/>
        </g>
        <path d="M188.449,35.254L184.569,36.468L146.072,103.146L139.727,99.482L178.223,32.804L177.334,28.837L185.096,20.294L191.966,24.261L188.449,35.254Z" fill="none" stroke="#0e334f" stroke-dasharray="500,25,10,25" stroke-dashoffset="50" stroke-width="5px"/>
        <g>
            <g clip-path="url(#_clip2)">
                <path d="M161.649,110.692C162.689,108.891,162.071,106.583,160.269,105.543L153.74,101.774C151.939,100.734,149.632,101.352,148.592,103.154L99.698,187.84C98.658,189.641,99.276,191.949,101.078,192.989L107.606,196.758C109.408,197.798,111.715,197.18,112.755,195.378L161.649,110.692Z" fill="#0e334f" fill-opacity="0.2"/>
                <path d="M131.3,88.385L131.391,88.388L131.482,88.394L131.573,88.402L131.665,88.412L131.756,88.424L131.847,88.439L131.937,88.456L132.028,88.475L132.118,88.497L132.208,88.521L132.298,88.547L132.387,88.575L132.476,88.606L132.564,88.639L132.652,88.675L132.74,88.713L132.826,88.753L132.913,88.796L132.998,88.841L133.083,88.889L139.611,92.658L139.695,92.708L139.777,92.759L139.857,92.812L139.935,92.867L140.012,92.924L140.087,92.982L140.159,93.042L140.231,93.104L140.3,93.167L140.367,93.232L140.433,93.298L140.497,93.365L140.559,93.434L140.619,93.504L140.677,93.575L140.733,93.648L140.788,93.722L140.84,93.797L140.891,93.873L140.939,93.95L140.986,94.028L141.031,94.108L141.073,94.188L141.114,94.269L141.153,94.351L141.189,94.434L141.224,94.518L141.257,94.602L141.287,94.687L141.316,94.773L141.342,94.86L141.367,94.947L141.389,95.034L141.41,95.123L141.428,95.211L141.444,95.3L141.458,95.39L141.47,95.48L141.479,95.57L141.487,95.66L141.492,95.751L141.495,95.842L141.496,95.933L141.495,96.024L141.491,96.115L141.486,96.206L141.478,96.297L141.468,96.389L141.455,96.48L141.441,96.571L141.424,96.661L141.404,96.752L141.383,96.842L141.359,96.932L141.333,97.022L141.304,97.111L141.273,97.2L141.24,97.288L141.205,97.376L141.167,97.464L141.126,97.55L141.084,97.637L141.039,97.722L140.991,97.807L92.098,182.493L92.048,182.577L91.996,182.658L91.943,182.738L91.888,182.817L91.831,182.893L91.773,182.968L91.713,183.041L91.652,183.112L91.588,183.181L91.524,183.249L91.458,183.315L91.39,183.378L91.322,183.44L91.252,183.5L91.18,183.559L91.108,183.615L91.034,183.669L90.959,183.722L90.883,183.772L90.805,183.821L90.727,183.867L90.648,183.912L90.567,183.955L90.486,183.995L90.404,184.034L90.321,184.071L90.238,184.106L90.153,184.138L90.068,184.169L89.982,184.197L89.896,184.224L89.809,184.248L89.721,184.271L89.633,184.291L89.544,184.309L89.455,184.325L89.366,184.339L89.276,184.351L89.186,184.361L89.095,184.368L89.005,184.374L88.914,184.377L88.823,184.378L88.732,184.376L88.64,184.373L88.549,184.367L88.458,184.359L88.367,184.349L88.276,184.337L88.185,184.322L88.094,184.305L88.004,184.286L87.913,184.264L87.823,184.241L87.734,184.214L87.644,184.186L87.556,184.155L87.467,184.122L87.379,184.086L87.292,184.048L87.205,184.008L87.119,183.965L87.033,183.92L86.949,183.873L80.42,180.103L80.336,180.054L80.255,180.002L80.174,179.949L80.096,179.894L80.02,179.837L79.945,179.779L79.872,179.719L79.801,179.657L79.731,179.594L79.664,179.53L79.598,179.464L79.535,179.396L79.473,179.328L79.413,179.257L79.354,179.186L79.298,179.113L79.244,179.039L79.191,178.964L79.141,178.888L79.092,178.811L79.046,178.733L79.001,178.654L78.958,178.573L78.917,178.492L78.879,178.41L78.842,178.327L78.807,178.243L78.775,178.159L78.744,178.074L78.715,177.988L78.689,177.902L78.665,177.814L78.642,177.727L78.622,177.639L78.604,177.55L78.588,177.461L78.574,177.371L78.562,177.282L78.552,177.191L78.545,177.101L78.539,177.01L78.536,176.92L78.535,176.829L78.537,176.737L78.54,176.646L78.546,176.555L78.554,176.464L78.564,176.373L78.576,176.282L78.591,176.191L78.608,176.1L78.627,176.009L78.649,175.919L78.672,175.829L78.699,175.74L78.727,175.65L78.758,175.561L78.791,175.473L78.827,175.385L78.865,175.298L78.905,175.211L78.948,175.125L78.993,175.039L79.04,174.954L127.934,90.268L127.984,90.185L128.035,90.103L128.088,90.023L128.143,89.944L128.2,89.868L128.258,89.793L128.318,89.72L128.38,89.649L128.443,89.58L128.508,89.512L128.574,89.447L128.641,89.383L128.71,89.321L128.78,89.261L128.851,89.203L128.924,89.146L128.998,89.092L129.073,89.04L129.149,88.989L129.226,88.94L129.304,88.894L129.384,88.849L129.464,88.806L129.545,88.766L129.627,88.727L129.71,88.69L129.794,88.656L129.878,88.623L129.963,88.592L130.049,88.564L130.136,88.537L130.223,88.513L130.31,88.49L130.399,88.47L130.487,88.452L130.576,88.436L130.666,88.422L130.756,88.41L130.846,88.401L130.936,88.393L131.027,88.388L131.118,88.385L131.209,88.384L131.3,88.385Z" fill="#f7fff7" fill-opacity="0.2"/>
            </g>
        </g>
        <path d="M150.758,105.821C154.133,107.77,155.291,112.092,153.343,115.467L115.881,180.351C115.72,180.631,115.543,180.895,115.351,181.143C115.165,181.548,114.959,181.948,114.732,182.342C110.835,189.092,102.191,191.408,95.441,187.511C88.691,183.614,86.375,174.97,90.272,168.22C90.499,167.827,90.743,167.448,91.001,167.085C91.12,166.795,91.26,166.509,91.421,166.23L128.883,101.345C130.831,97.97,135.153,96.812,138.528,98.76L150.758,105.821Z" fill="none" stroke="#0e334f" stroke-dasharray="150,25,10,25" stroke-width="5px"/>
        <path d="M106.731,175.768L133.521,129.367" fill="none" stroke="#0e334f" stroke-dasharray="20,10,25,15" stroke-width="5px"/>
        <path d="M125.396,124.676L98.606,171.077" fill="none" stroke="#0e334f" stroke-dasharray="20,10,25,15" stroke-width="5px"/>
        <path d="M123.337,113.041L146.929,126.662" fill="none" stroke="#0e334f" stroke-width="5px"/>
    </g>
    <g id="nut" transform="translate(210.964,103.881) translate(-210.964,-103.881)">
        <path d="M210.964,78.574L232.881,91.228L232.881,116.536L210.964,129.189L189.047,116.536L189.047,91.228L210.964,78.574ZM210.964,93.273C216.82,93.273,221.573,98.027,221.573,103.882C221.573,109.737,216.82,114.491,210.964,114.491C205.109,114.491,200.355,109.737,200.355,103.882C200.355,98.027,205.109,93.273,210.964,93.273Z" fill="#a7daf2"/>
        <path d="M220.098,109.279L232.881,105.854L232.881,115.171L201.328,123.626L190.305,117.262L205.753,113.123C207.292,113.994,209.071,114.491,210.964,114.491C214.849,114.491,218.25,112.398,220.098,109.279ZM232.881,91.228L232.881,99.027L221.423,102.097C220.574,97.09,216.211,93.273,210.964,93.273C205.109,93.273,200.355,98.027,200.355,103.882C200.355,105.177,200.588,106.418,201.014,107.566L189.047,110.772L189.047,95.243L223.736,85.948L232.881,91.228Z" fill="#f7fff7" fill-rule="nonzero"/>
        <path d="M210.964,129.189L189.047,116.536L189.047,91.228L210.964,78.574L232.881,91.228L232.881,116.536L210.964,129.189ZM210.964,114.491C205.109,114.491,200.355,109.737,200.355,103.882C200.355,98.027,205.109,93.273,210.964,93.273C216.82,93.273,221.573,98.027,221.573,103.882C221.573,109.737,216.82,114.491,210.964,114.491Z" fill="none" stroke="#0e334f" stroke-dasharray="100,25,10,25" stroke-dashoffset="50" stroke-width="5px"/>
    </g>
    <script><![CDATA[if(KeyshapeJS.version.indexOf('1.')!=0)throw Error('Expected KeyshapeJS v1.*.*');window.ks=document.ks=KeyshapeJS;(function(ks){
ks.animate("#nut",[{p:'rotate',t:[0,5200],v:[0,365],e:[[0],[0]]}],
{autoremove:false}).range(0,5200).loop(true);
if(document.location.search.substr(1).split('&').indexOf('global=paused')>=0)ks.globalPause()})(KeyshapeJS);
]]></script>
</svg>
