<?xml version="1.0" encoding="UTF-8" standalone="no"?>
<!-- Created with Keyshape -->
<svg xmlns="http://www.w3.org/2000/svg" xmlns:xlink="http://www.w3.org/1999/xlink" width="100%" height="100%" viewBox="0 0 210 264" clip-rule="evenodd" fill-rule="evenodd" stroke-linecap="round" stroke-linejoin="round" stroke-miterlimit="1.5" style="background: rgba(23,84,130,0.00); white-space: preserve-spaces;">
    <defs>
        <clipPath id="ClipPath-1">
            <path d="M182.141,144.031C182.141,141.491,180.3,121.668,171.311,121.868C159.676,122.127,138.791,121.242,122.671,121.313C111.85,121.361,111.494,141.185,111.494,144.031C111.494,147.337,111.949,150.538,112.801,153.574C116.968,168.44,130.628,179.355,146.818,179.355C166.313,179.355,182.141,163.527,182.141,144.031Z"/>
        </clipPath>
        <clipPath id="_clip2">
            <path d="M120.166,106.889C112.291,120.989,106.013,135.742,106.013,145.322C106.013,167.639,124.132,185.758,146.449,185.758C168.767,185.758,186.886,167.639,186.886,145.322C186.886,135.742,180.504,121.047,172.732,106.889C172.067,107.069,158.367,111.072,146.035,111.287C134.719,111.485,119.904,106.823,120.166,106.889Z"/>
        </clipPath>
        <clipPath id="_clip3">
            <path d="M254.224,12.151L250.744,12.151L250.744,5.53C250.744,1.909,282.887,1.909,282.887,5.53L282.887,12.158L279.064,12.157L279.064,47.878C279.324,50.123,279.627,55.725,280.132,57.739C287.644,87.668,302.3,97.148,302.3,117.489C302.3,118.899,302.272,120.298,302.217,121.684C302.275,122.602,302.304,123.528,302.304,124.462L302.304,233.513C302.304,255.474,284.301,259.679,266.061,259.679C247.821,259.679,229.818,255.474,229.818,233.513L229.818,124.462C229.818,123.528,229.847,122.602,229.905,121.684C229.85,120.298,229.822,118.899,229.822,117.489C229.822,96.848,244.995,87.9,252.645,57.59C253.396,54.618,253.755,50.926,254.224,47.464L254.224,12.151Z"/>
        </clipPath>
    </defs>
    <g transform="translate(116.963,141.587) translate(-106.95,-138.845)">
        <g id="Wine" transform="translate(106.745,174.048) translate(-212.758,-176.79)">
            <g id="Liquid" clip-path="url(#ClipPath-1)">
                <path id="back" d="M216.737,140.776C216.737,140.776,216.912,141.935,216.912,144.019C216.912,163.514,201.084,179.342,181.588,179.342L43.823,179.342C27.634,179.342,13.974,168.428,9.806,153.562C8.955,150.526,8.5,147.325,8.5,144.019C8.5,143.559,8.515,141.81,8.515,141.81C8.515,141.81,29.2289,141.707,38.967,141.659C48.7051,141.611,57.2922,141.568,66.9438,141.52C76.5954,141.472,86.3952,141.423,96.8766,141.371C107.358,141.319,119.22,141.26,129.832,141.207C140.444,141.154,150.592,141.104,160.548,141.055C170.504,141.006,180.204,140.958,189.569,140.911C198.934,140.864,216.737,140.776,216.737,140.776Z" clip-rule="evenodd" fill="#7d3a41" fill-rule="evenodd" opacity="1" stroke-linecap="round" stroke-linejoin="round" stroke-miterlimit="1.5" transform="translate(103,0) translate(0,0) translate(0,0)"/>
                <path id="front" d="M216.737,140.776C216.737,140.776,216.912,141.935,216.912,144.019C216.912,163.514,201.084,179.342,181.588,179.342L43.823,179.342C27.634,179.342,13.974,168.428,9.806,153.562C8.955,150.526,8.5,147.325,8.5,144.019C8.5,143.559,8,141,8,141C8,141,29.2619,141.048,39,141C48.7381,140.952,57.3484,141.048,67,141C76.6516,140.952,86.5186,141.052,97,141C107.481,140.948,119.22,141.26,129.832,141.207C140.444,141.154,150.592,141.104,160.548,141.055C170.504,141.006,180.204,140.958,189.569,140.911C198.934,140.864,216.737,140.776,216.737,140.776Z" clip-rule="evenodd" fill="#eb4034" fill-rule="evenodd" opacity="1" stroke-linecap="round" stroke-linejoin="round" stroke-miterlimit="1.5" transform="translate(103,0) translate(0,0) translate(0,0)"/>
                <path id="front-2" d="M216.737,140.776C216.737,140.776,216.912,141.935,216.912,144.019C216.912,163.514,201.084,179.342,181.588,179.342L43.823,179.342C27.634,179.342,13.974,168.428,9.806,153.562C8.955,150.526,8.5,147.325,8.5,144.019C8.5,143.559,8.515,141.81,8.515,141.81C8.515,141.81,14.9915,135.16,28.522,135.1C42.0525,135.04,51.4455,146.987,63.304,146.723C75.1625,146.459,81.6195,135.17,97.404,135.1C113.188,135.03,120.761,146.784,132.186,146.723C143.611,146.662,150.751,135.169,166.287,135.1C181.823,135.031,191.828,146.929,201.069,146.723C210.31,146.517,216.737,140.776,216.737,140.776Z" clip-rule="evenodd" fill="#eb4034" fill-rule="evenodd" opacity="0" stroke-linecap="round" stroke-linejoin="round" stroke-miterlimit="1.5" transform="translate(103,0) translate(0,0) translate(0,0)"/>
            </g>
            <g id="Glass">
                <path d="M149.917,187.672C149.917,185.759,148.363,184.205,146.449,184.205C144.536,184.205,142.982,185.759,142.982,187.672L142.982,243.042C142.982,244.956,144.536,246.509,146.449,246.509C148.363,246.509,149.917,244.956,149.917,243.042L149.917,187.672Z" fill="none" stroke="#c5d4e0" stroke-width="5px"/>
                <g>
                    <g clip-path="url(#_clip2)">
                        <path d="M163.109,100.462C162.621,100.5,162.497,100.499,162.013,100.578C156.257,101.517,152.209,108.364,154.491,113.979C155.137,115.567,155.429,115.832,155.833,116.584C160.734,125.743,165.753,135.06,167.576,145.327C170.351,160.96,156.469,178.613,138.501,179.297C137.601,179.331,136.73,179.337,136.73,179.337C130.017,179.924,125.389,187.936,128.726,193.928C132.499,200.704,143.209,199.527,152.253,196.711C173.123,190.214,189.111,168.702,187.485,146.265C186.793,136.719,183.026,127.596,178.91,118.747C176.944,114.518,174.817,110.366,172.599,106.264C172.599,106.264,171.185,103.461,168.879,101.991C167.178,100.906,165.173,100.417,163.109,100.462Z" fill="#0e334f" fill-opacity="0.2" fill-rule="nonzero"/>
                        <path d="M135.144,100.462C135.633,100.5,135.756,100.499,136.24,100.578C141.996,101.517,146.044,108.364,143.762,113.979C143.116,115.567,142.824,115.832,142.42,116.584C137.519,125.743,132.5,135.06,130.678,145.327C127.902,160.96,141.784,178.613,159.752,179.297C160.652,179.331,161.523,179.337,161.523,179.337C168.236,179.924,172.864,187.936,169.527,193.928C165.754,200.704,155.044,199.527,146.001,196.711C125.13,190.214,109.142,168.702,110.768,146.265C111.46,136.719,115.227,127.596,119.343,118.747C121.31,114.518,123.436,110.366,125.654,106.264C125.654,106.264,127.068,103.461,129.375,101.991C131.075,100.906,133.08,100.417,135.144,100.462Z" fill="#f7fff7" fill-opacity="0.35" fill-rule="nonzero"/>
                    </g>
                </g>
                <path d="M120.166,106.889C112.439,121.071,106.013,135.742,106.013,145.322C106.013,167.639,124.132,185.758,146.449,185.758C168.767,185.758,186.886,167.639,186.886,145.322C186.886,135.742,180.46,121.071,172.732,106.889" fill="none" stroke="#c5d4e0" stroke-dasharray="160,25,10,25" stroke-width="5px"/>
                <path d="M158.735,185.48C168.025,182.118,125.411,181.96,134.099,185.469C138.074,187.074,141.619,187.575,146.464,187.575C150.865,187.575,155.03,186.822,158.735,185.48Z" fill="none" stroke="#c5d4e0" stroke-width="5px"/>
                <ellipse rx="26.012" ry="3.509" fill="none" stroke="#c5d4e0" stroke-dasharray="25,15,10,15" stroke-width="5px" transform="translate(0,0) translate(146.449,107.236)"/>
                <ellipse rx="32.925" ry="3.423" fill="none" stroke="#c5d4e0" stroke-width="5px" transform="translate(0,0) translate(146.449,249.698)"/>
                <ellipse rx="12.549" ry="1.42" fill="none" stroke="#c5d4e0" stroke-width="5px" transform="translate(0,0) translate(146.449,246.298)"/>
            </g>
        </g>
        <g id="Bottle" transform="translate(-106.013,-2.742)">
            <path d="M254.224,12.151L250.744,12.151L250.744,5.53C250.744,1.909,282.887,1.909,282.887,5.53L282.887,12.158L279.064,12.157L279.064,47.878C279.324,50.123,279.627,55.725,280.132,57.739C287.644,87.668,302.3,97.148,302.3,117.489C302.3,118.899,302.272,120.298,302.217,121.684C302.275,122.602,302.304,123.528,302.304,124.462L302.304,233.513C302.304,255.474,284.301,259.679,266.061,259.679C247.821,259.679,229.818,255.474,229.818,233.513L229.818,124.462C229.818,123.528,229.847,122.602,229.905,121.684C229.85,120.298,229.822,118.899,229.822,117.489C229.822,96.848,244.995,87.9,252.645,57.59C253.396,54.618,253.755,50.926,254.224,47.464L254.224,12.151Z" fill="#154d78"/>
            <path d="M229.818,214.606C229.818,214.415,248.318,209.594,266.625,209.604C284.557,209.615,302.304,214.454,302.304,214.606L302.304,233.513C302.304,255.474,286.064,259.679,266.061,259.679C246.058,259.679,229.818,255.474,229.818,233.513L229.818,214.606Z" fill="#eb4034"/>
            <path d="M229.818,214.606C229.818,214.415,248.318,209.594,266.625,209.604C284.557,209.615,302.304,214.454,302.304,214.606L302.304,233.513C302.304,255.474,286.064,259.679,266.061,259.679C246.058,259.679,229.818,255.474,229.818,233.513L229.818,214.606Z" fill="#0e334f" fill-opacity="0.5"/>
            <path d="M300.949,242.324C300.949,253.823,284.301,259.679,266.061,259.679C247.821,259.679,231.851,255.269,231.851,242.324C231.851,242.324,242.856,233.889,265.557,233.513C287.491,233.149,300.949,242.324,300.949,242.324Z" fill="#0e334f" fill-opacity="0.2"/>
            <g>
                <g>
                    <g clip-path="url(#_clip3)">
                        <path d="M260.679,53.906L266.786,53.303C266.212,61.889,263.911,70.168,261.368,78.475C255.559,97.454,252.076,101.173,250.936,120.968C250.582,127.113,251.106,217.774,251.191,247.005C251.225,250.921,251.845,255.261,255.313,257.227C259.955,259.859,270.502,259.865,275.895,260.022C277.631,260.072,279.367,260.089,281.103,260.095L282.018,260.096L284.451,260.393C289.724,262.397,293.747,267.999,291.515,273.874C290.34,276.967,287.599,279.358,284.438,280.135C283.032,280.481,281.577,280.433,280.09,280.424C267.048,280.35,252.947,279.899,243.486,269.802C237.917,263.858,235.673,255.333,235.603,247.123C235.518,217.825,235.512,122.428,235.866,118.577C236.752,108.926,239.309,102.614,249.625,84.623C254.259,76.543,260.215,61.494,260.679,53.906Z" fill="#f7fff7" fill-opacity="0.34" fill-rule="nonzero"/>
                        <path d="M284.211,28.413C284.211,24.301,282.906,20.963,278.795,20.963L253.969,20.963C249.858,20.963,249.231,24.301,249.231,28.413L249.231,43.311C249.231,47.423,249.858,50.761,253.969,50.761L279.472,50.761C283.584,50.761,284.211,47.423,284.211,43.311L284.211,28.413Z" fill="#a7daf2"/>
                        <path d="M284.211,28.413C284.211,24.301,282.906,20.963,278.795,20.963C278.795,20.963,270.774,20.963,266.636,20.963C262.499,20.963,253.969,20.963,253.969,20.963C249.858,20.963,249.231,24.301,249.231,28.413L249.231,43.311C249.231,47.423,249.858,50.761,253.969,50.761C253.969,50.761,262.321,52.116,266.571,52.116C270.822,52.116,279.472,50.761,279.472,50.761C283.584,50.761,284.211,47.423,284.211,43.311L284.211,28.413Z" fill="none" stroke="#0e334f" stroke-width="5px"/>
                        <path d="M257.695,204.714C257.695,210.629,252.246,213.868,247.362,215.431C241.784,217.218,229.392,217.218,224.226,215.431C219.861,213.922,216.364,210.629,216.364,204.714L216.364,154.059C216.364,148.144,219.861,144.851,224.226,143.342C229.392,141.556,241.784,141.556,247.362,143.342C252.246,144.906,257.695,148.144,257.695,154.059L257.695,204.714Z" fill="#a7daf2"/>
                        <path d="M261.762,210.136C261.762,216.051,256.313,219.29,251.429,220.854C245.851,222.64,233.459,222.64,228.293,220.854C223.928,219.344,220.431,216.051,220.431,210.136L220.431,159.481C220.431,153.566,223.928,150.273,228.293,148.764C233.459,146.978,245.851,146.978,251.429,148.764C256.313,150.328,261.762,153.566,261.762,159.481L261.762,210.136Z" fill="none" stroke="#0e334f" stroke-width="5px"/>
                        <path d="M243.817,80.683C250.95,83.35,253.602,93.91,249.735,104.25C245.869,114.59,236.939,120.819,229.807,118.152C222.674,115.485,220.022,104.925,223.889,94.585C227.755,84.245,236.685,78.016,243.817,80.683Z" fill="#ffd70d"/>
                        <path d="M245.851,84.072C252.983,86.739,255.635,97.299,251.769,107.639C247.902,117.978,238.972,124.208,231.84,121.541C224.707,118.873,222.056,108.313,225.922,97.974C229.788,87.634,238.718,81.405,245.851,84.072Z" fill="none" stroke="#0e334f" stroke-width="5px"/>
                        <path d="M282.669,3.329C284.121,4.091,285.594,4.875,286.674,6.093C288.295,7.924,288.929,10.355,289.23,12.835L289.23,47.314L289.196,47.009C289.48,49.736,289.539,52.444,289.986,55.192C289.994,55.238,289.999,55.287,290.01,55.332C293.307,68.416,300.115,80.059,306.234,92.725C310.357,101.259,312.65,110.549,312.438,120.084C312.432,120.371,312.424,120.658,312.416,120.945C312.413,121.04,312.41,121.135,312.407,121.231C312.401,121.415,312.374,120.841,312.437,122.534C312.456,123.105,312.467,123.676,312.471,124.248C312.539,160.675,312.471,197.102,312.471,233.529C312.432,245.622,307.148,257.56,295.766,263.826C286.728,268.802,275.964,269.828,266.079,269.846L263.645,269.554C261.627,268.793,260.986,268.76,259.333,267.301C255.034,263.506,254.85,256.043,259.306,252.081C265.214,246.829,275.45,250.544,284.258,246.834C287.944,245.281,290.939,242.056,291.748,237.929C292.02,236.538,292.124,235.12,292.137,233.704C292.255,197.2,292.353,160.695,292.137,124.192C292.131,123.562,292.108,122.932,292.069,122.303L292.058,121.293C292.191,117.847,292.178,114.39,291.434,111.05C289.437,102.093,283.929,94.235,279.955,86.216C275.102,76.425,270.602,66.003,269.526,55.347C269.324,53.355,269.195,51.362,268.998,49.361C268.98,49.182,268.98,49.183,268.96,49.005L268.897,47.878L268.897,12.835L269.193,10.402C270.071,8.085,271.299,5.841,273.288,4.468C275.301,3.078,277.791,2.742,280.289,2.742C281.082,2.938,281.876,3.133,282.669,3.329ZM312.387,121.802C312.387,121.802,312.406,121.272,312.387,121.802ZM312.389,121.469C312.389,121.469,312.425,121.953,312.377,121.257C312.372,121.186,312.385,121.398,312.389,121.469Z" fill="#0e334f" fill-opacity="0.2" fill-rule="nonzero"/>
                    </g>
                </g>
                <path d="M254.224,12.829L250.744,12.151L250.744,5.53C250.744,1.909,282.887,1.909,282.887,5.53L282.887,12.158L279.064,12.835L279.064,47.878C279.324,50.123,279.627,55.725,280.132,57.739C287.644,87.668,302.3,97.148,302.3,117.489C302.3,118.899,302.272,120.298,302.217,121.684C302.275,122.602,302.304,123.528,302.304,124.462L302.304,233.513C302.304,255.474,284.301,259.679,266.061,259.679C247.821,259.679,229.818,255.474,229.818,233.513L229.818,124.462C229.818,123.528,229.847,122.602,229.905,121.684C229.85,120.298,229.822,118.899,229.822,117.489C229.822,96.848,244.995,87.9,252.645,57.59C253.396,54.618,253.755,50.926,254.224,47.464L254.224,12.829Z" fill="none" stroke="#0e334f" stroke-dasharray="500,25,10,25" stroke-dashoffset="375" stroke-width="5px"/>
                <path d="M282.887,12.158C282.887,12.158,272.248,12.156,266.891,12.154C261.534,12.153,250.744,12.151,250.744,12.151" fill="none" stroke="#0e334f" stroke-dasharray="250,25,10,25" stroke-width="5px"/>
            </g>
        </g>
    </g>
    <script xlink:href="keyshapejs-1.0.0.min.js"/>
    <script><![CDATA[if(KeyshapeJS.version.indexOf('1.')!=0)throw Error('Expected KeyshapeJS v1.*.*');window.ks=document.ks=KeyshapeJS;(function(ks){
ks.animate("#Wine",[{p:'rotate',t:[0,1000,1566,2183,2833,3666,4366,5100],v:[0,0,-5,5,-5,5,-2,0],e:[[0],[0],[0],[0],[0],[0],[0],[0]]}],
"#back",[{p:'mpath',t:[0,1516,7000],v:['0%','0%','100%'],e:[[0],[0],[0]],mp:"M103,0L103,0L-35,0"},{p:'d',t:[1000,2000,5100,6500],v:["path('M216.737,140.776C216.737,140.776,216.912,141.935,216.912,144.019C216.912,163.514,201.084,179.342,181.588,179.342L43.823,179.342C27.634,179.342,13.974,168.428,9.806,153.562C8.955,150.526,8.5,147.325,8.5,144.019C8.5,143.559,8.515,141.81,8.515,141.81C8.515,141.81,29.2289,141.707,38.967,141.659C48.7051,141.611,57.2922,141.568,66.9438,141.52C76.5954,141.472,86.3952,141.423,96.8766,141.371C107.358,141.319,119.22,141.26,129.832,141.207C140.444,141.154,150.592,141.104,160.548,141.055C170.504,141.006,180.204,140.958,189.569,140.911C198.934,140.864,216.737,140.776,216.737,140.776Z')","path('M216.737,140.776C216.737,140.776,216.912,141.935,216.912,144.019C216.912,163.514,201.084,179.342,181.588,179.342L43.823,179.342C27.634,179.342,13.974,168.428,9.806,153.562C8.955,150.526,8.5,147.325,8.5,144.019C8.5,143.559,8.515,141.81,8.515,141.81C8.515,141.81,14.9915,135.16,28.522,135.1C42.0525,135.04,51.4455,146.987,63.304,146.723C75.1625,146.459,81.6195,135.17,97.404,135.1C113.188,135.03,120.761,146.784,132.186,146.723C143.611,146.662,150.751,135.169,166.287,135.1C181.823,135.031,191.828,146.929,201.069,146.723C210.31,146.517,216.737,140.776,216.737,140.776Z')","path('M216.737,140.776C216.737,140.776,216.912,141.935,216.912,144.019C216.912,163.514,201.084,179.342,181.588,179.342L43.823,179.342C27.634,179.342,13.974,168.428,9.806,153.562C8.955,150.526,8.5,147.325,8.5,144.019C8.5,143.559,8.515,141.81,8.515,141.81C8.515,141.81,14.9915,135.16,28.522,135.1C42.0525,135.04,51.4455,146.987,63.304,146.723C75.1625,146.459,81.6195,135.17,97.404,135.1C113.188,135.03,120.761,146.784,132.186,146.723C143.611,146.662,150.751,135.169,166.287,135.1C181.823,135.031,191.828,146.929,201.069,146.723C210.31,146.517,216.737,140.776,216.737,140.776Z')","path('M216.737,140.776C216.737,140.776,216.912,141.935,216.912,144.019C216.912,163.514,201.084,179.342,181.588,179.342L43.823,179.342C27.634,179.342,13.974,168.428,9.806,153.562C8.955,150.526,8.5,147.325,8.5,144.019C8.5,143.559,8.515,141.81,8.515,141.81C8.515,141.81,29.2289,141.707,38.967,141.659C48.7051,141.611,57.2922,141.568,66.9438,141.52C76.5954,141.472,86.3952,141.423,96.8766,141.371C107.358,141.319,119.22,141.26,129.832,141.207C140.444,141.154,150.592,141.104,160.548,141.055C170.504,141.006,180.204,140.958,189.569,140.911C198.934,140.864,216.737,140.776,216.737,140.776Z')"],e:[[0],[0],[0],[0]]}],
"#front",[{p:'mpath',t:[0,1000,4000],v:['0%','0%','100%'],e:[[0],[0],[0]],mp:"M103,0L103,0L-35,0"},{p:'opacity',t:[3983,4000],v:[1,0],e:[[0],[0]]},{p:'d',t:[0,1000,1566],v:["path('M216.737,140.776C216.737,140.776,216.912,141.935,216.912,144.019C216.912,163.514,201.084,179.342,181.588,179.342L43.823,179.342C27.634,179.342,13.974,168.428,9.806,153.562C8.955,150.526,8.5,147.325,8.5,144.019C8.5,143.559,8,141,8,141C8,141,29.2619,141.048,39,141C48.7381,140.952,57.3484,141.048,67,141C76.6516,140.952,86.5186,141.052,97,141C107.481,140.948,119.22,141.26,129.832,141.207C140.444,141.154,150.592,141.104,160.548,141.055C170.504,141.006,180.204,140.958,189.569,140.911C198.934,140.864,216.737,140.776,216.737,140.776Z')","path('M216.737,140.776C216.737,140.776,216.912,141.935,216.912,144.019C216.912,163.514,201.084,179.342,181.588,179.342L43.823,179.342C27.634,179.342,13.974,168.428,9.806,153.562C8.955,150.526,8.5,147.325,8.5,144.019C8.5,143.559,8.515,141.81,8.515,141.81C8.515,141.81,29.2289,141.707,38.967,141.659C48.7051,141.611,57.2922,141.568,66.9438,141.52C76.5954,141.472,86.3952,141.423,96.8766,141.371C107.358,141.319,119.22,141.26,129.832,141.207C140.444,141.154,150.592,141.104,160.548,141.055C170.504,141.006,180.204,140.958,189.569,140.911C198.934,140.864,216.737,140.776,216.737,140.776Z')","path('M216.737,140.776C216.737,140.776,216.912,141.935,216.912,144.019C216.912,163.514,201.084,179.342,181.588,179.342L43.823,179.342C27.634,179.342,13.974,168.428,9.806,153.562C8.955,150.526,8.5,147.325,8.5,144.019C8.5,143.559,8.515,141.81,8.515,141.81C8.515,141.81,14.9915,135.16,28.522,135.1C42.0525,135.04,51.4455,146.987,63.304,146.723C75.1625,146.459,81.6195,135.17,97.404,135.1C113.188,135.03,120.761,146.784,132.186,146.723C143.611,146.662,150.751,135.169,166.287,135.1C181.823,135.031,191.828,146.929,201.069,146.723C210.31,146.517,216.737,140.776,216.737,140.776Z')"],e:[[0],[0],[0]]}],
"#front-2",[{p:'mpath',t:[4000,7000],v:['0%','100%'],e:[[0],[0]],mp:"M103,0L-35,0"},{p:'opacity',t:[3983,4000],v:[0,1],e:[[0],[0]]},{p:'d',t:[5100,6500],v:["path('M216.737,140.776C216.737,140.776,216.912,141.935,216.912,144.019C216.912,163.514,201.084,179.342,181.588,179.342L43.823,179.342C27.634,179.342,13.974,168.428,9.806,153.562C8.955,150.526,8.5,147.325,8.5,144.019C8.5,143.559,8.515,141.81,8.515,141.81C8.515,141.81,14.9915,135.16,28.522,135.1C42.0525,135.04,51.4455,146.987,63.304,146.723C75.1625,146.459,81.6195,135.17,97.404,135.1C113.188,135.03,120.761,146.784,132.186,146.723C143.611,146.662,150.751,135.169,166.287,135.1C181.823,135.031,191.828,146.929,201.069,146.723C210.31,146.517,216.737,140.776,216.737,140.776Z')","path('M216.737,140.776C216.737,140.776,216.912,141.935,216.912,144.019C216.912,163.514,201.084,179.342,181.588,179.342L43.823,179.342C27.634,179.342,13.974,168.428,9.806,153.562C8.955,150.526,8.5,147.325,8.5,144.019C8.5,143.559,8.515,141.81,8.515,141.81C8.515,141.81,29.2289,141.707,38.967,141.659C48.7051,141.611,57.2922,141.568,66.9438,141.52C76.5954,141.472,86.3952,141.423,96.8766,141.371C107.358,141.319,119.22,141.26,129.832,141.207C140.444,141.154,150.592,141.104,160.548,141.055C170.504,141.006,180.204,140.958,189.569,140.911C198.934,140.864,216.737,140.776,216.737,140.776Z')"],e:[[0],[0]]}],
{autoremove:false}).range(0,7000).loop(true);
if(document.location.search.substr(1).split('&').indexOf('global=paused')>=0)ks.globalPause()})(KeyshapeJS);
]]></script>
</svg>
