<?xml version="1.0" encoding="UTF-8" standalone="no"?><!DOCTYPE svg PUBLIC "-//W3C//DTD SVG 1.1//EN" "http://www.w3.org/Graphics/SVG/1.1/DTD/svg11.dtd"><svg width="100%" height="100%" viewBox="0 0 210 169" version="1.1" xmlns="http://www.w3.org/2000/svg" xmlns:xlink="http://www.w3.org/1999/xlink" xml:space="preserve" xmlns:serif="http://www.serif.com/" style="fill-rule:evenodd;clip-rule:evenodd;stroke-linecap:round;stroke-linejoin:round;stroke-miterlimit:1.5;"><g id="Colour"><g><path d="M204.188,60.967C202.876,58.552 199.85,57.658 197.436,58.97L30.395,149.772C27.981,151.085 27.086,154.11 28.398,156.525L33.154,165.273C34.467,167.688 37.492,168.582 39.906,167.27L206.948,76.468C209.362,75.155 210.257,72.13 208.944,69.715L204.188,60.967Z" style="fill:#f7fff7;"/><path d="M204.188,60.967C202.876,58.552 199.85,57.658 197.436,58.97L157.561,80.646C159.109,79.804 162.684,80.401 163.996,82.815L168.752,91.564C170.064,93.978 169.335,96.914 167.072,98.143L206.948,76.468C209.362,75.155 210.257,72.13 208.944,69.715L204.188,60.967Z" style="fill:#ffdf42;"/><g><clipPath id="_clip1"><path d="M202.188,58.967C200.876,56.552 197.85,55.658 195.436,56.97L155.561,78.646C157.109,77.804 160.684,78.401 161.996,80.815L166.752,89.564C168.064,91.978 167.335,94.914 165.072,96.143L204.948,74.468C207.362,73.155 208.257,70.13 206.944,67.715L202.188,58.967Z"/></clipPath><g clip-path="url(#_clip1)"><path d="M171.542,75.394L175.271,72.06" style="fill:none;stroke:#0e334f;stroke-opacity:0.2;stroke-width:3.5px;"/><path d="M183.299,78.158L187.028,74.824" style="fill:none;stroke:#0e334f;stroke-opacity:0.2;stroke-width:3.5px;"/><path d="M196.411,67.58L200.14,64.246" style="fill:none;stroke:#0e334f;stroke-opacity:0.2;stroke-width:3.5px;"/><path d="M186.706,83.885L190.435,80.551" style="fill:none;stroke:#0e334f;stroke-opacity:0.2;stroke-width:3.5px;"/><path d="M169.47,84.525L173.199,81.191" style="fill:none;stroke:#0e334f;stroke-opacity:0.2;stroke-width:3.5px;"/><path d="M188.199,66.599L191.928,63.265" style="fill:none;stroke:#0e334f;stroke-opacity:0.2;stroke-width:3.5px;"/><path d="M177.285,79.493L180.88,83.408" style="fill:none;stroke:#0e334f;stroke-opacity:0.2;stroke-width:3.5px;"/><path d="M163.603,74.819L167.198,78.734" style="fill:none;stroke:#0e334f;stroke-opacity:0.2;stroke-width:3.5px;"/><path d="M175.068,86.3L178.663,90.215" style="fill:none;stroke:#0e334f;stroke-opacity:0.2;stroke-width:3.5px;"/><path d="M183.517,56.344L187.113,60.259" style="fill:none;stroke:#0e334f;stroke-opacity:0.2;stroke-width:3.5px;"/><path d="M181.199,67.072L184.794,70.987" style="fill:none;stroke:#0e334f;stroke-opacity:0.2;stroke-width:3.5px;"/><path d="M191.862,70.759L195.458,74.674" style="fill:none;stroke:#0e334f;stroke-opacity:0.2;stroke-width:3.5px;"/></g></g><clipPath id="_clip2"><path d="M199.188,57.967C197.876,55.552 194.85,54.658 192.436,55.97L25.395,146.772C22.981,148.085 22.086,151.11 23.398,153.525L28.154,162.273C29.467,164.688 32.492,165.582 34.906,164.27L201.948,73.468C204.362,72.155 205.257,69.13 203.944,66.715L199.188,57.967Z"/></clipPath><g clip-path="url(#_clip2)"><path d="M204.748,59.408C205.23,59.592 205.743,59.709 206.194,59.96C207.509,60.692 207.686,60.877 208.451,62.35C210.842,67.103 209.068,73.449 204.266,76.177C148.737,106.826 92.817,136.761 37.093,167.052C32.315,169.61 25.734,167.854 22.99,162.882L18.226,154.118C17.754,152.846 17.477,152.518 17.58,151.123C17.809,148.004 21.058,145.526 24.169,146.209C25.678,146.54 26.832,147.651 27.781,148.924L32.317,157.269L198.608,66.875L198.226,65.824C198.06,63.203 199.204,60.505 201.69,59.601C202.654,59.25 203.714,59.325 204.748,59.408Z" style="fill:#0e334f;fill-opacity:0.2;fill-rule:nonzero;"/></g><path d="M198.793,57.963C197.481,55.548 194.455,54.654 192.041,55.966L152.166,77.642C153.714,76.801 157.289,77.397 158.601,79.811L163.357,88.56C164.669,90.974 163.939,93.91 161.677,95.14L201.552,73.464C203.967,72.151 204.861,69.126 203.549,66.711L198.793,57.963Z" style="fill:none;stroke:#0e334f;stroke-width:5px;"/><path d="M30.31,143.938C31.628,143.221 35.683,141.018 37.001,140.301L38.875,139.282C41.411,137.904 44.588,138.843 45.966,141.379L50.483,149.689C51.862,152.224 50.922,155.401 48.387,156.78L46.513,157.798C45.194,158.515 41.14,160.719 39.822,161.435L37.948,162.454C35.412,163.832 32.235,162.893 30.857,160.358L26.339,152.048C24.961,149.512 25.901,146.335 28.436,144.957L30.31,143.938Z" style="fill:#eb4034;"/><path d="M27.008,145.733C27.239,145.608 27.475,145.501 27.715,145.414C27.919,145.26 28.137,145.12 28.368,144.994L30.242,143.975C32.777,142.597 35.955,143.536 37.333,146.072L41.85,154.382C43.228,156.917 42.289,160.094 39.753,161.473L37.879,162.491C37.648,162.617 37.412,162.723 37.172,162.811C36.968,162.965 36.75,163.105 36.519,163.231L34.645,164.249C32.11,165.628 28.932,164.688 27.554,162.153L23.037,153.843C21.659,151.308 22.598,148.13 25.134,146.752L27.008,145.733Z" style="fill:#a7daf2;"/><path d="M34.099,147.83C32.721,145.294 29.543,144.355 27.008,145.733L25.134,146.752C22.598,148.13 21.659,151.308 23.037,153.843L27.554,162.153C28.932,164.688 32.11,165.628 34.645,164.249L36.519,163.231C39.055,161.852 39.994,158.675 38.616,156.14L34.099,147.83Z" style="fill:#a7daf2;"/><path d="M34.099,147.83C32.721,145.294 29.543,144.355 27.008,145.733L25.134,146.752C22.598,148.13 21.659,151.308 23.037,153.843L27.554,162.153C28.932,164.688 32.11,165.628 34.645,164.249L36.519,163.231C39.055,161.852 39.994,158.675 38.616,156.14L34.099,147.83Z" style="fill:none;stroke:#0e334f;stroke-width:5px;"/><path d="M198.793,57.963C197.481,55.548 194.455,54.654 192.041,55.966L25,146.768C22.585,148.081 21.691,151.106 23.003,153.521L27.759,162.269C29.071,164.684 32.097,165.578 34.511,164.266L201.552,73.464C203.967,72.151 204.861,69.126 203.549,66.711L198.793,57.963Z" style="fill:none;stroke:#0e334f;stroke-width:5px;stroke-dasharray:300,25,10,25;"/></g><path d="M28.064,2.524C37.027,7.681 39.662,20.713 39.584,35.536C39.506,50.36 30.663,59.355 26.659,63.544C19.608,70.921 13.643,79.766 13.566,94.59C13.488,109.414 19.617,123.783 26.377,123.854" style="fill:none;stroke:#a7daf2;stroke-width:5px;stroke-dasharray:10,15,40,25;"/><path d="M11.362,114.179C6.915,114.133 2.886,104.433 2.941,93.885C2.996,83.338 6.923,77.041 11.565,71.788C14.2,68.805 20.021,62.4 20.076,51.852C20.132,41.304 16.214,29.965 11.766,29.918" style="fill:none;stroke:#a7daf2;stroke-width:5px;stroke-dasharray:40,15,10,25;stroke-dashoffset:50;"/></g></svg>