<?xml version="1.0" encoding="UTF-8" standalone="no"?><!DOCTYPE svg PUBLIC "-//W3C//DTD SVG 1.1//EN" "http://www.w3.org/Graphics/SVG/1.1/DTD/svg11.dtd"><svg width="100%" height="100%" viewBox="0 0 496 202" version="1.1" xmlns="http://www.w3.org/2000/svg" xmlns:xlink="http://www.w3.org/1999/xlink" xml:space="preserve" xmlns:serif="http://www.serif.com/" style="fill-rule:evenodd;clip-rule:evenodd;stroke-linecap:round;stroke-linejoin:round;stroke-miterlimit:1.5;"><g id="Colour"><g><rect x="90.843" y="55.026" width="91.034" height="95.058" style="fill:#f7fff7;"/><path d="M362.456,30.513L174.887,30.513L174.887,150.693L326.416,150.693L362.456,168.693L362.456,30.513Z" style="fill:#f7fff7;"/><rect x="95.905" y="60.088" width="91.034" height="95.058" style="fill:none;stroke:#0e334f;stroke-width:5px;"/><path d="M367.518,175.755L367.518,35.575L179.949,35.575L179.949,154.679" style="fill:none;stroke:#0e334f;stroke-width:5px;"/><path d="M197.31,0.548C198.576,0.62 199.644,1.678 199.715,2.953C199.772,6.007 199.717,9.062 199.717,12.117C199.693,13.417 198.615,14.542 197.31,14.615C194.613,14.665 191.915,14.617 189.217,14.617C187.918,14.592 186.792,13.515 186.719,12.21C186.662,9.156 186.717,6.101 186.717,3.047C186.778,-0.195 192.756,0.463 197.31,0.548Z" style="fill:#0e334f;fill-rule:nonzero;"/><path d="M214.523,0.548C215.788,0.62 216.856,1.676 216.927,2.953C216.985,6.007 216.929,9.062 216.929,12.117C216.905,13.417 215.828,14.542 214.523,14.615C211.825,14.665 209.127,14.617 206.43,14.617C205.13,14.592 204.005,13.515 203.931,12.21C203.874,9.156 203.93,6.101 203.93,3.047C203.99,-0.195 209.968,0.463 214.523,0.548Z" style="fill:#0e334f;fill-rule:nonzero;"/><path d="M175.043,5.019L217.493,5.019L217.493,134.233L279.796,134.233L279.796,93.932L376.686,93.932L376.686,181.465L323.675,154.465L175.043,154.465L175.043,5.019Z" style="fill:#ffd70d;"/><path d="M180.105,155.374L180.105,10.081L222.555,10.081L222.555,139.295L284.858,139.295L284.858,98.994L381.748,98.994L381.748,183.602" style="fill:none;stroke:#0e334f;stroke-width:5px;"/><path d="M380.501,138.655L322.658,138.655" style="fill:none;stroke:#0e334f;stroke-width:5px;stroke-dasharray:40,15,10,25;"/><path d="M380.501,150.338L358.018,150.338" style="fill:none;stroke:#0e334f;stroke-width:5px;stroke-dasharray:100,25,10,25;stroke-dashoffset:50;"/><path d="M180.772,92.426L213.915,92.426" style="fill:none;stroke:#0e334f;stroke-width:5px;stroke-dasharray:20,10,25,15;"/><path d="M285.318,116.526L318.461,116.526" style="fill:none;stroke:#0e334f;stroke-width:5px;stroke-dasharray:20,10,25,15;"/><path d="M180.772,104.109L203.255,104.109" style="fill:none;stroke:#0e334f;stroke-width:5px;stroke-dasharray:100,25,10,25;stroke-dashoffset:50;"/></g><path d="M389.462,72.927C389.462,72.927 368.585,137.777 368.585,165.57C368.585,177.093 377.94,186.448 389.462,186.448C400.985,186.448 410.34,177.093 410.34,165.57C410.34,137.777 389.462,72.927 389.462,72.927Z" style="fill:#4ecdc4;"/><clipPath id="_clip1"><path d="M389.462,72.927C389.462,72.927 368.585,137.777 368.585,165.57C368.585,177.093 377.94,186.448 389.462,186.448C400.985,186.448 410.34,177.093 410.34,165.57C410.34,137.777 389.462,72.927 389.462,72.927Z"/></clipPath><g clip-path="url(#_clip1)"><path d="M389.822,66.031C392.643,66.292 395.058,68.139 396.038,70.818C403.704,94.711 410.496,118.762 414.826,143.245C416.862,154.757 419.219,167.206 414.787,177.004C410.431,186.635 400.277,193.318 389.485,193.353C389.485,193.353 386.556,193.089 384.9,191.632C382.005,189.084 381.873,183.963 384.866,181.294C387.513,178.934 391.63,179.902 395.127,178.345C400.273,176.055 403.525,170.509 403.427,164.694C403.142,147.683 398.515,130.972 394.194,114.287C390.797,101.172 387.053,88.122 382.945,75.216C382.945,75.216 382.129,72.448 383.142,70.146C384.038,68.11 385.975,66.565 388.161,66.145C389.208,65.944 389.476,66.027 389.822,66.031Z" style="fill:#0e334f;fill-opacity:0.2;fill-rule:nonzero;"/></g><path d="M389.462,72.927C389.462,72.927 368.585,137.777 368.585,165.57C368.585,177.093 377.94,186.448 389.462,186.448C400.985,186.448 410.34,177.093 410.34,165.57C410.34,137.777 389.462,72.927 389.462,72.927Z" style="fill:none;stroke:#0e334f;stroke-width:5px;"/><path d="M422.901,72.927C422.901,72.927 402.024,137.777 402.024,165.57C402.024,177.093 411.379,186.448 422.901,186.448C434.424,186.448 443.779,177.093 443.779,165.57C443.779,137.777 422.901,72.927 422.901,72.927Z" style="fill:#4ecdc4;"/><clipPath id="_clip2"><path d="M423.001,72.927C423.001,72.927 402.123,137.777 402.123,165.57C402.123,177.093 411.478,186.448 423.001,186.448C434.523,186.448 443.878,177.093 443.878,165.57C443.878,137.777 423.001,72.927 423.001,72.927Z"/></clipPath><g clip-path="url(#_clip2)"><path d="M423.36,66.031C426.181,66.292 428.596,68.139 429.576,70.818C437.242,94.711 444.034,118.762 448.364,143.245C450.4,154.757 452.757,167.206 448.325,177.004C443.969,186.635 433.815,193.318 423.023,193.353C423.023,193.353 420.094,193.089 418.438,191.632C415.543,189.084 415.411,183.963 418.404,181.294C421.051,178.934 425.168,179.902 428.665,178.345C433.811,176.055 437.063,170.509 436.965,164.694C436.68,147.683 432.053,130.972 427.732,114.287C424.335,101.172 420.591,88.122 416.483,75.216C416.483,75.216 415.667,72.448 416.68,70.146C417.576,68.11 419.513,66.565 421.699,66.145C422.746,65.944 423.014,66.027 423.36,66.031Z" style="fill:#0e334f;fill-opacity:0.2;fill-rule:nonzero;"/></g><path d="M422.901,72.927C422.901,72.927 402.024,137.777 402.024,165.57C402.024,177.093 411.379,186.448 422.901,186.448C434.424,186.448 443.779,177.093 443.779,165.57C443.779,137.777 422.901,72.927 422.901,72.927Z" style="fill:none;stroke:#0e334f;stroke-width:5px;stroke-dasharray:100,25,10,25;stroke-dashoffset:50;"/><path d="M47.417,154.295C47.409,154.034 47.405,153.772 47.405,153.508C47.405,139.629 58.673,128.361 72.552,128.361C86.431,128.361 97.699,139.629 97.699,153.508C97.699,153.772 97.695,154.034 97.687,154.295L47.417,154.295Z" style="fill:#4ecdc4;"/><path d="M47.417,154.295C47.409,154.034 47.405,153.772 47.405,153.508C47.405,139.629 58.673,128.361 72.552,128.361C86.431,128.361 97.699,139.629 97.699,153.508C97.699,153.772 97.695,154.034 97.687,154.295L47.417,154.295Z" style="fill:none;stroke:#0e334f;stroke-width:5px;stroke-dasharray:100,25,10,25;stroke-dashoffset:50;"/><path d="M86.514,154.802C86.479,154.375 86.462,153.944 86.462,153.508C86.462,144.695 93.617,137.539 102.431,137.539C111.245,137.539 118.4,144.695 118.4,153.508C118.4,153.944 118.383,154.375 118.348,154.802L86.514,154.802Z" style="fill:#4ecdc4;"/><path d="M86.514,154.802C86.479,154.375 86.462,153.944 86.462,153.508C86.462,144.695 93.617,137.539 102.431,137.539C111.245,137.539 118.4,144.695 118.4,153.508C118.4,153.944 118.383,154.375 118.348,154.802L86.514,154.802Z" style="fill:none;stroke:#0e334f;stroke-width:5px;stroke-dasharray:100,25,10,25;stroke-dashoffset:50;"/><rect x="238.95" y="81.571" width="29.52" height="57.881" style="fill:#eb4034;"/><rect x="238.95" y="81.61" width="29.52" height="61.091" style="fill:none;stroke:#0e334f;stroke-width:5px;stroke-dasharray:250,25,10,25;"/><path d="M248.194,102.061L248.194,117.491" style="fill:none;stroke:#0e334f;stroke-width:5px;stroke-dasharray:250,25,10,25;"/><g><rect x="284.883" y="58.158" width="82.935" height="27.29" style="fill:#a7daf2;"/><rect x="96.078" y="61.708" width="56.707" height="61.123" style="fill:#a7daf2;"/></g><g><clipPath id="_clip3"><path d="M152.785,61.708L152.785,122.831L96.078,122.831L96.078,61.708L152.785,61.708ZM367.819,58.158L367.819,85.448L284.883,85.448L284.883,58.158L367.819,58.158Z"/></clipPath><g clip-path="url(#_clip3)"><path d="M361.204,50.892C365.793,51.441 368.479,57.313 365.019,61.119L226.304,199.834C225.929,200.174 225.846,200.275 225.425,200.56C221.446,203.253 214.658,199.048 216.347,193.764C216.636,192.86 217.169,192.063 217.819,191.348L356.533,52.634C358.483,50.861 358.524,50.828 361.204,50.892ZM345.319,31.216C348,31.56 348.755,32.028 350.076,32.936C354.456,35.95 355.716,42.723 352.432,47.14C352.044,47.662 351.92,47.77 351.478,48.245L212.764,186.959C211.017,188.583 210.352,188.837 209.094,189.292C203.237,191.41 195.816,186.743 195.694,180.071C195.645,177.392 196.78,174.799 198.622,172.817L337.336,34.103C338.959,32.595 340.967,31.534 343.132,31.256C344.527,31.076 344.867,31.191 345.319,31.216ZM200.61,35.13C205.199,35.679 207.885,41.551 204.424,45.357L65.71,184.072C65.335,184.413 65.252,184.513 64.831,184.798C60.841,187.498 54.059,183.3 55.753,178.002C56.042,177.098 56.575,176.301 57.225,175.586L195.939,36.872C197.889,35.099 197.93,35.066 200.61,35.13ZM184.725,15.454C187.09,15.758 187.71,16.106 188.865,16.782C193.663,19.592 195.25,26.788 191.838,31.378C191.45,31.9 191.325,32.008 190.884,32.483L52.17,171.197C47.154,175.859 37.832,174.21 35.577,167.182C34.611,164.171 35.18,160.707 37.073,158.16C37.461,157.639 37.586,157.53 38.027,157.055L176.742,18.341C178.364,16.833 180.373,15.772 182.538,15.494C183.933,15.314 184.273,15.429 184.725,15.454Z" style="fill:#f7fff7;fill-opacity:0.501961;fill-rule:nonzero;"/></g></g><rect x="284.883" y="58.158" width="82.935" height="27.29" style="fill:none;stroke:#0e334f;stroke-width:5px;"/><rect x="96.078" y="61.708" width="56.707" height="61.123" style="fill:none;stroke:#0e334f;stroke-width:5px;"/><path d="M114.284,61.708L114.284,122.831" style="fill:none;stroke:#0e334f;stroke-width:5px;"/><path d="M133.752,61.708L133.752,122.831" style="fill:none;stroke:#0e334f;stroke-width:5px;"/><path d="M312.147,59.51L312.147,85.26" style="fill:none;stroke:#0e334f;stroke-width:5px;"/><path d="M339.525,59.51L339.525,85.26" style="fill:none;stroke:#0e334f;stroke-width:5px;"/><path d="M200.987,70.178L95.905,70.178L95.905,63.596L200.987,63.596L200.987,70.178ZM367.518,50.728L179.949,50.728L179.949,43.216L367.518,43.216L367.518,50.728Z" style="fill:#0e334f;fill-opacity:0.2;"/><rect x="80.701" y="56.284" width="120.286" height="6.582" style="fill:#0e334f;stroke:#0e334f;stroke-width:5px;"/><rect x="164.293" y="35.092" width="226.676" height="7.512" style="fill:#0e334f;stroke:#0e334f;stroke-width:5px;"/><path d="M2.784,154.778L325.272,154.778L388.567,187.607L492.978,187.607" style="fill:none;stroke:#0e334f;stroke-width:5px;stroke-dasharray:185,25,10,25;"/><g><rect x="231.867" y="137.147" width="45.193" height="8.74" style="fill:#f7fff7;stroke:#0e334f;stroke-width:5px;"/><rect x="225.711" y="146.123" width="57.505" height="8.74" style="fill:#f7fff7;stroke:#0e334f;stroke-width:5px;"/></g></g></svg>