<?xml version="1.0" encoding="UTF-8" standalone="no"?><!DOCTYPE svg PUBLIC "-//W3C//DTD SVG 1.1//EN" "http://www.w3.org/Graphics/SVG/1.1/DTD/svg11.dtd"><svg width="100%" height="100%" viewBox="0 0 269 212" version="1.1" xmlns="http://www.w3.org/2000/svg" xmlns:xlink="http://www.w3.org/1999/xlink" xml:space="preserve" xmlns:serif="http://www.serif.com/" style="fill-rule:evenodd;clip-rule:evenodd;stroke-linecap:round;stroke-linejoin:round;stroke-miterlimit:1.5;"><g id="Colour"><path d="M138.498,27.234C138.498,19.283 132.043,12.828 124.092,12.828L40.657,12.828C32.706,12.828 26.251,19.283 26.251,27.234L26.251,163.4C26.251,171.351 32.706,177.806 40.657,177.806L124.092,177.806C132.043,177.806 138.498,171.351 138.498,163.4L138.498,27.234Z" style="fill:#a7daf2;"/><g><clipPath id="_clip1"><path d="M138.498,28.234C138.498,20.283 132.043,13.828 124.092,13.828L40.657,13.828C32.706,13.828 26.251,20.283 26.251,28.234L26.251,164.4C26.251,172.351 32.706,178.806 40.657,178.806L124.092,178.806C132.043,178.806 138.498,172.351 138.498,164.4L138.498,28.234Z"/></clipPath><g clip-path="url(#_clip1)"><path d="M149.555,29.628L28.942,150.242" style="fill:none;stroke:#f7fff7;stroke-opacity:0.501961;stroke-width:12px;"/><path d="M131.322,10.974L10.708,131.588" style="fill:none;stroke:#f7fff7;stroke-opacity:0.501961;stroke-width:20px;"/></g></g><g><clipPath id="_clip2"><path d="M138.498,28.234C138.498,20.283 132.043,13.828 124.092,13.828L40.657,13.828C32.706,13.828 26.251,20.283 26.251,28.234L26.251,164.4C26.251,172.351 32.706,178.806 40.657,178.806L124.092,178.806C132.043,178.806 138.498,172.351 138.498,164.4L138.498,28.234Z"/></clipPath><g clip-path="url(#_clip2)"><path d="M122.047,7.851C122.738,7.925 122.914,7.926 123.594,8.074C131.321,9.755 135.114,21.262 128.437,27.048C126.467,28.754 123.896,29.628 121.266,29.722C96.05,29.722 70.834,29.722 45.618,29.722C43.779,29.722 42.163,31.335 42.146,33.158C42.146,33.158 42.146,161.574 42.146,161.574L42.118,162.355C41.578,167.373 37.669,171.706 32.754,172.412C27.114,173.223 21.186,168.892 20.358,163.132C20.259,162.444 20.271,162.268 20.247,161.574C20.247,118.72 20.093,75.867 20.247,33.013C20.372,19.961 31.635,7.865 45.586,7.823L121.266,7.823C121.527,7.833 121.787,7.842 122.047,7.851Z" style="fill:#f7fff7;fill-opacity:0.34;fill-rule:nonzero;"/><path d="M140.814,28.704C141.505,28.779 141.681,28.779 142.361,28.927C147.18,29.975 150.8,34.52 150.983,39.626C150.983,82.479 151.136,125.333 150.982,168.187C150.857,181.215 139.639,193.335 125.644,193.377L49.963,193.377C43.648,193.151 38.209,187.239 39.125,180.869C39.793,176.22 43.747,172.259 48.405,171.589C49.093,171.49 49.269,171.502 49.963,171.478C75.179,171.478 100.395,171.478 125.611,171.478C127.444,171.478 129.066,169.931 129.084,168.042C129.084,168.042 129.084,39.626 129.084,39.626L129.112,38.845C129.652,33.824 133.514,29.501 138.475,28.788C139.965,28.574 140.33,28.687 140.814,28.704Z" style="fill:#0e334f;fill-opacity:0.2;fill-rule:nonzero;"/></g></g><path d="M143.443,33.179C143.443,25.228 136.988,18.773 129.037,18.773L45.602,18.773C37.651,18.773 31.196,25.228 31.196,33.179L31.196,169.345C31.196,177.295 37.651,183.751 45.602,183.751L129.037,183.751C136.988,183.751 143.443,177.295 143.443,169.345L143.443,33.179Z" style="fill:none;stroke:#0e334f;stroke-width:5px;stroke-dasharray:400,25,10,25;stroke-dashoffset:300;"/><path d="M260.896,27.234C260.896,19.283 254.441,12.828 246.49,12.828L163.055,12.828C155.104,12.828 148.649,19.283 148.649,27.234L148.649,163.4C148.649,171.351 155.104,177.806 163.055,177.806L246.49,177.806C254.441,177.806 260.896,171.351 260.896,163.4L260.896,27.234Z" style="fill:#a7daf2;"/><path d="M265.841,33.179C265.841,25.228 259.386,18.773 251.435,18.773L168,18.773C160.049,18.773 153.594,25.228 153.594,33.179L153.594,169.345C153.594,177.295 160.049,183.751 168,183.751L251.435,183.751C259.386,183.751 265.841,177.295 265.841,169.345L265.841,33.179Z" style="fill:none;stroke:#0e334f;stroke-width:5px;stroke-dasharray:500,25,10,25;stroke-dashoffset:100;"/><path d="M260.248,29.893C260.248,22.747 254.446,16.944 247.299,16.944L172.301,16.944C165.154,16.944 159.352,22.747 159.352,29.893L159.352,160.062C159.352,167.208 165.154,173.011 172.301,173.011L247.299,173.011C254.446,173.011 260.248,167.208 260.248,160.062L260.248,29.893Z" style="fill:#f7fff7;"/><g><circle cx="165.495" cy="55.078" r="4.002" style="fill:#a7daf2;"/><circle cx="165.495" cy="55.078" r="4.002" style="fill:#0e334f;fill-opacity:0.2;"/><circle cx="135.17" cy="55.078" r="4.002" style="fill:#175482;"/><path d="M135.227,54.853C135.227,46.505 142.005,39.727 150.352,39.727C158.7,39.727 165.478,46.505 165.478,54.853" style="fill:none;stroke:#0e334f;stroke-width:6px;stroke-dasharray:600,30,12,30;"/></g><g><circle cx="165.495" cy="77.948" r="4.002" style="fill:#a7daf2;"/><circle cx="165.495" cy="77.948" r="4.002" style="fill:#0e334f;fill-opacity:0.2;"/><circle cx="135.17" cy="77.948" r="4.002" style="fill:#175482;"/><path d="M135.227,77.722C135.227,69.374 142.005,62.597 150.352,62.597C158.7,62.597 165.478,69.374 165.478,77.722" style="fill:none;stroke:#0e334f;stroke-width:6px;stroke-dasharray:600,30,12,30;"/></g><g><circle cx="165.495" cy="100.817" r="4.002" style="fill:#a7daf2;"/><circle cx="165.495" cy="100.817" r="4.002" style="fill:#0e334f;fill-opacity:0.2;"/><circle cx="135.17" cy="100.817" r="4.002" style="fill:#175482;"/><path d="M135.227,100.592C135.227,92.244 142.005,85.466 150.352,85.466C158.7,85.466 165.478,92.244 165.478,100.592" style="fill:none;stroke:#0e334f;stroke-width:6px;stroke-dasharray:600,30,12,30;"/></g><g><circle cx="165.495" cy="123.686" r="4.002" style="fill:#a7daf2;"/><circle cx="165.495" cy="123.686" r="4.002" style="fill:#0e334f;fill-opacity:0.2;"/><circle cx="135.17" cy="123.686" r="4.002" style="fill:#175482;"/><path d="M135.227,123.461C135.227,115.113 142.005,108.335 150.352,108.335C158.7,108.335 165.478,115.113 165.478,123.461" style="fill:none;stroke:#0e334f;stroke-width:6px;stroke-dasharray:600,30,12,30;"/></g><g><circle cx="165.495" cy="146.556" r="4.002" style="fill:#a7daf2;"/><circle cx="165.495" cy="146.556" r="4.002" style="fill:#0e334f;fill-opacity:0.2;"/><circle cx="135.17" cy="146.556" r="4.002" style="fill:#175482;"/><path d="M135.227,146.33C135.227,137.982 142.005,131.205 150.352,131.205C158.7,131.205 165.478,137.982 165.478,146.33" style="fill:none;stroke:#0e334f;stroke-width:6px;stroke-dasharray:600,30,12,30;"/></g><path d="M178.07,36.076L241.122,36.076" style="fill:none;stroke:#eb4034;stroke-width:5px;stroke-dasharray:20,10,25,15;"/><path d="M178.07,43.927L241.122,43.927" style="fill:none;stroke:#eb4034;stroke-width:5px;stroke-dasharray:40,15,10,25;"/><path d="M178.07,63.619L241.122,63.619" style="fill:none;stroke:#0e334f;stroke-opacity:0.5;stroke-width:5px;stroke-dasharray:10,15,40,25;"/><path d="M178.07,85.339L241.122,85.339" style="fill:none;stroke:#0e334f;stroke-opacity:0.5;stroke-width:5px;stroke-dasharray:40,15,10,25;"/><g><path d="M78.067,144.993C81.988,146.53 86.42,144.594 87.957,140.673C89.494,136.751 87.558,132.32 83.637,130.783C74.665,126.053 59.992,118.568 57.364,115.276C54.736,111.984 55.276,107.178 58.567,104.55C61.859,101.923 66.665,102.462 69.293,105.754" style="fill:none;stroke:#0e334f;stroke-width:5px;stroke-dasharray:500,25,10,25;"/><path d="M49.231,77.35L58.962,89.541" style="fill:none;stroke:#eb4034;stroke-width:6px;stroke-linejoin:miter;"/><path d="M141.883,193.421L151.615,205.612" style="fill:none;stroke:#0e334f;stroke-width:6px;stroke-linejoin:miter;"/><path d="M135.588,193.121C135.186,192.841 134.818,192.5 134.497,192.098L56.965,94.969C55.177,92.73 55.167,76.077 56.955,78.316L142.61,185.621C142.931,186.023 143.183,186.458 143.366,186.912C143.753,187.186 144.108,187.518 144.418,187.907C146.185,190.12 147.997,195.01 149.245,198.871C149.584,199.771 149.305,200.787 148.553,201.387C147.802,201.987 146.749,202.034 145.946,201.504C142.459,199.431 138.091,196.58 136.325,194.367C136.015,193.979 135.769,193.559 135.588,193.121Z" style="fill:#ffd70d;"/><path d="M124.879,178.31L131.886,172.717" style="fill:none;stroke:#0e334f;stroke-width:5px;"/><path d="M135.588,193.121C135.186,192.841 134.818,192.5 134.497,192.098L56.965,94.969C55.177,92.73 55.167,76.077 56.955,78.316L142.61,185.621C142.931,186.023 143.183,186.458 143.366,186.912C143.753,187.186 144.108,187.518 144.418,187.907C146.185,190.12 147.997,195.01 149.245,198.871C149.584,199.771 149.305,200.787 148.553,201.387C147.802,201.987 146.749,202.034 145.946,201.504C142.459,199.431 138.091,196.58 136.325,194.367C136.015,193.979 135.769,193.559 135.588,193.121Z" style="fill:none;stroke:#0e334f;stroke-width:5px;stroke-dasharray:275,25,10,25;stroke-dashoffset:400;"/></g></g></svg>