<?xml version="1.0" encoding="UTF-8" standalone="no"?><!DOCTYPE svg PUBLIC "-//W3C//DTD SVG 1.1//EN" "http://www.w3.org/Graphics/SVG/1.1/DTD/svg11.dtd"><svg width="100%" height="100%" viewBox="0 0 319 206" version="1.1" xmlns="http://www.w3.org/2000/svg" xmlns:xlink="http://www.w3.org/1999/xlink" xml:space="preserve" xmlns:serif="http://www.serif.com/" style="fill-rule:evenodd;clip-rule:evenodd;stroke-linecap:round;stroke-linejoin:round;stroke-miterlimit:1.5;"><g id="Colour"><g id="spanner"><path d="M96.55,179.82L84.062,172.61C80.616,170.62 79.433,166.207 81.423,162.76L145.338,52.056C138.56,41.971 137.656,28.496 144.136,17.272C150.174,6.813 161.111,0.93 172.381,0.846L160.258,21.845L167.659,41.212L169.643,42.358L189.019,38.45L201.143,17.451C206.705,27.254 207.078,39.667 201.04,50.125C194.56,61.349 182.438,67.304 170.315,66.476L106.4,177.181C104.41,180.627 99.997,181.81 96.55,179.82ZM102.022,161.454C104.856,163.091 105.829,166.72 104.193,169.555C102.556,172.389 98.926,173.362 96.092,171.725C93.258,170.089 92.285,166.459 93.921,163.625C95.558,160.79 99.188,159.818 102.022,161.454Z" style="fill:#a7daf2;"/><g><clipPath id="_clip1"><path d="M169.643,42.358L189.019,38.45L201.143,17.451C206.705,27.254 207.078,39.667 201.04,50.125C194.56,61.349 182.438,67.304 170.315,66.476L106.4,177.181C104.41,180.627 99.997,181.81 96.55,179.82L84.062,172.61C80.616,170.62 79.433,166.207 81.423,162.76L145.338,52.056C138.56,41.971 137.656,28.496 144.136,17.272C150.174,6.813 161.111,0.93 172.381,0.846L160.258,21.845L167.659,41.212L169.643,42.358Z"/></clipPath><g clip-path="url(#_clip1)"><g><g opacity="0.8"><path d="M212.83,22.91C217.021,25.329 218.459,30.697 216.039,34.888L120.093,201.071C117.673,205.263 112.306,206.701 108.115,204.281L92.927,195.512C88.736,193.092 87.297,187.725 89.717,183.534L96.43,171.907C99.209,173.282 102.621,172.278 104.193,169.555C105.765,166.832 104.929,163.375 102.348,161.657L185.663,17.35C188.083,13.159 193.45,11.721 197.642,14.141L212.83,22.91Z" style="fill:#f7fff7;fill-opacity:0.501961;"/><g><path d="M219.089,43.288L63.725,84.917" style="fill:none;stroke:#f7fff7;stroke-width:8px;"/><path d="M213.903,25.427L58.539,67.057" style="fill:none;stroke:#f7fff7;stroke-width:15px;"/></g><g><path d="M168.498,130.913L13.134,172.543" style="fill:none;stroke:#f7fff7;stroke-width:8px;"/><path d="M163.312,113.053L7.949,154.682" style="fill:none;stroke:#f7fff7;stroke-width:15px;"/></g></g></g></g></g><path d="M167.076,59.175C167.715,58.067 167.335,56.649 166.228,56.01L162.215,53.693C161.108,53.054 159.69,53.434 159.05,54.541L102.783,151.999C102.144,153.106 102.524,154.524 103.631,155.163L107.644,157.48C108.751,158.119 110.169,157.739 110.808,156.632L167.076,59.175Z" style="fill:#0e334f;fill-opacity:0.2;"/><path d="M97.77,184.37L85.281,177.16C81.835,175.17 80.652,170.756 82.642,167.31L146.557,56.606C139.78,46.521 138.875,33.046 145.355,21.821C151.393,11.363 162.33,5.48 173.601,5.395L161.477,26.394L168.878,45.762L170.863,46.908L190.238,43L202.362,22.001C207.924,31.804 208.297,44.217 202.259,54.675C195.779,65.899 183.657,71.853 171.534,71.026L107.619,181.731C105.629,185.177 101.216,186.36 97.77,184.37ZM102.022,161.454C104.856,163.091 105.829,166.72 104.193,169.555C102.556,172.389 98.926,173.362 96.092,171.725C93.258,170.089 92.285,166.459 93.921,163.625C95.558,160.79 99.188,159.818 102.022,161.454Z" style="fill:none;stroke:#0e334f;stroke-width:5px;stroke-dasharray:500,25,10,25;stroke-dashoffset:450;"/></g><g id="screwdriver"><path d="M228.539,101.271C231.914,103.22 233.072,107.542 231.123,110.917L193.662,175.802C193.501,176.081 193.323,176.345 193.131,176.593C192.946,176.999 192.74,177.399 192.513,177.792C188.616,184.542 179.972,186.858 173.222,182.961C166.472,179.064 164.156,170.42 168.053,163.67C168.28,163.277 168.524,162.898 168.782,162.535C168.901,162.245 169.041,161.959 169.202,161.68L206.664,96.795C208.612,93.42 212.934,92.262 216.309,94.21L228.539,101.271Z" style="fill:#eb4034;"/><path d="M265.564,31.858L261.684,33.072L223.187,99.75L216.841,96.086L255.338,29.408L254.449,25.441L262.211,16.898L269.081,20.865L265.564,31.858Z" style="fill:#a7daf2;"/><g><clipPath id="_clip2"><path d="M265.564,31.858L261.684,33.072L223.187,99.75L216.841,96.086L255.338,29.408L254.449,25.441L262.211,16.898L269.081,20.865L265.564,31.858Z"/></clipPath><g clip-path="url(#_clip2)"><path d="M310.763,60.851L155.4,102.481" style="fill:none;stroke:#f7fff7;stroke-width:14px;"/><path d="M305.578,42.991L150.214,84.62" style="fill:none;stroke:#f7fff7;stroke-width:25px;"/></g></g><path d="M267.449,35.254L263.569,36.468L225.072,103.146L218.727,99.482L257.223,32.804L256.334,28.837L264.096,20.294L270.966,24.261L267.449,35.254Z" style="fill:none;stroke:#0e334f;stroke-width:5px;stroke-dasharray:500,25,10,25;stroke-dashoffset:50;"/><g><clipPath id="_clip3"><path d="M228.539,101.271C231.914,103.22 233.072,107.542 231.123,110.917L193.662,175.802C193.501,176.081 193.323,176.345 193.131,176.593C192.946,176.999 192.74,177.399 192.513,177.792C188.616,184.542 179.972,186.858 173.222,182.961C166.472,179.064 164.156,170.42 168.053,163.67C168.28,163.277 168.524,162.898 168.782,162.535C168.901,162.245 169.041,161.959 169.202,161.68L206.664,96.795C208.612,93.42 212.934,92.262 216.309,94.21L228.539,101.271Z"/></clipPath><g clip-path="url(#_clip3)"><path d="M240.649,110.692C241.689,108.891 241.071,106.583 239.269,105.543L232.74,101.774C230.939,100.734 228.632,101.352 227.592,103.154L178.698,187.84C177.658,189.641 178.276,191.949 180.078,192.989L186.606,196.758C188.408,197.798 190.715,197.18 191.755,195.378L240.649,110.692Z" style="fill:#0e334f;fill-opacity:0.2;"/><path d="M210.3,88.385L210.391,88.388L210.482,88.394L210.573,88.402L210.665,88.412L210.756,88.424L210.847,88.439L210.937,88.456L211.028,88.475L211.118,88.497L211.208,88.521L211.298,88.547L211.387,88.575L211.476,88.606L211.564,88.639L211.652,88.675L211.74,88.713L211.826,88.753L211.913,88.796L211.998,88.841L212.083,88.889L218.611,92.658L218.695,92.708L218.777,92.759L218.857,92.812L218.935,92.867L219.012,92.924L219.087,92.982L219.159,93.042L219.231,93.104L219.3,93.167L219.367,93.232L219.433,93.298L219.497,93.365L219.559,93.434L219.619,93.504L219.677,93.575L219.733,93.648L219.788,93.722L219.84,93.797L219.891,93.873L219.939,93.95L219.986,94.028L220.031,94.108L220.073,94.188L220.114,94.269L220.153,94.351L220.189,94.434L220.224,94.518L220.257,94.602L220.287,94.687L220.316,94.773L220.342,94.86L220.367,94.947L220.389,95.034L220.41,95.123L220.428,95.211L220.444,95.3L220.458,95.39L220.47,95.48L220.479,95.57L220.487,95.66L220.492,95.751L220.495,95.842L220.496,95.933L220.495,96.024L220.491,96.115L220.486,96.206L220.478,96.297L220.468,96.389L220.455,96.48L220.441,96.571L220.424,96.661L220.404,96.752L220.383,96.842L220.359,96.932L220.333,97.022L220.304,97.111L220.273,97.2L220.24,97.288L220.205,97.376L220.167,97.464L220.126,97.55L220.084,97.637L220.039,97.722L219.991,97.807L171.098,182.493L171.048,182.577L170.996,182.658L170.943,182.738L170.888,182.817L170.831,182.893L170.773,182.968L170.713,183.041L170.652,183.112L170.588,183.181L170.524,183.249L170.458,183.315L170.39,183.378L170.322,183.44L170.252,183.5L170.18,183.559L170.108,183.615L170.034,183.669L169.959,183.722L169.883,183.772L169.805,183.821L169.727,183.867L169.648,183.912L169.567,183.955L169.486,183.995L169.404,184.034L169.321,184.071L169.238,184.106L169.153,184.138L169.068,184.169L168.982,184.197L168.896,184.224L168.809,184.248L168.721,184.271L168.633,184.291L168.544,184.309L168.455,184.325L168.366,184.339L168.276,184.351L168.186,184.361L168.095,184.368L168.005,184.374L167.914,184.377L167.823,184.378L167.732,184.376L167.64,184.373L167.549,184.367L167.458,184.359L167.367,184.349L167.276,184.337L167.185,184.322L167.094,184.305L167.004,184.286L166.913,184.264L166.823,184.241L166.734,184.214L166.644,184.186L166.556,184.155L166.467,184.122L166.379,184.086L166.292,184.048L166.205,184.008L166.119,183.965L166.033,183.92L165.949,183.873L159.42,180.103L159.336,180.054L159.255,180.002L159.174,179.949L159.096,179.894L159.02,179.837L158.945,179.779L158.872,179.719L158.801,179.657L158.731,179.594L158.664,179.53L158.598,179.464L158.535,179.396L158.473,179.328L158.413,179.257L158.354,179.186L158.298,179.113L158.244,179.039L158.191,178.964L158.141,178.888L158.092,178.811L158.046,178.733L158.001,178.654L157.958,178.573L157.917,178.492L157.879,178.41L157.842,178.327L157.807,178.243L157.775,178.159L157.744,178.074L157.715,177.988L157.689,177.902L157.665,177.814L157.642,177.727L157.622,177.639L157.604,177.55L157.588,177.461L157.574,177.371L157.562,177.282L157.552,177.191L157.545,177.101L157.539,177.01L157.536,176.92L157.535,176.829L157.537,176.737L157.54,176.646L157.546,176.555L157.554,176.464L157.564,176.373L157.576,176.282L157.591,176.191L157.608,176.1L157.627,176.009L157.649,175.919L157.672,175.829L157.699,175.74L157.727,175.65L157.758,175.561L157.791,175.473L157.827,175.385L157.865,175.298L157.905,175.211L157.948,175.125L157.993,175.039L158.04,174.954L206.934,90.268L206.984,90.185L207.035,90.103L207.088,90.023L207.143,89.944L207.2,89.868L207.258,89.793L207.318,89.72L207.38,89.649L207.443,89.58L207.508,89.512L207.574,89.447L207.641,89.383L207.71,89.321L207.78,89.261L207.851,89.203L207.924,89.146L207.998,89.092L208.073,89.04L208.149,88.989L208.226,88.94L208.304,88.894L208.384,88.849L208.464,88.806L208.545,88.766L208.627,88.727L208.71,88.69L208.794,88.656L208.878,88.623L208.963,88.592L209.049,88.564L209.136,88.537L209.223,88.513L209.31,88.49L209.399,88.47L209.487,88.452L209.576,88.436L209.666,88.422L209.756,88.41L209.846,88.401L209.936,88.393L210.027,88.388L210.118,88.385L210.209,88.384L210.3,88.385Z" style="fill:#f7fff7;fill-opacity:0.2;"/></g></g><path d="M229.758,105.821C233.133,107.77 234.291,112.092 232.343,115.467L194.881,180.351C194.72,180.631 194.543,180.895 194.351,181.143C194.165,181.548 193.959,181.948 193.732,182.342C189.835,189.092 181.191,191.408 174.441,187.511C167.691,183.614 165.375,174.97 169.272,168.22C169.499,167.827 169.743,167.448 170.001,167.085C170.12,166.795 170.26,166.509 170.421,166.23L207.883,101.345C209.831,97.97 214.153,96.812 217.528,98.76L229.758,105.821Z" style="fill:none;stroke:#0e334f;stroke-width:5px;stroke-dasharray:150,25,10,25;"/><path d="M185.731,175.768L212.521,129.367" style="fill:none;stroke:#0e334f;stroke-width:5px;stroke-dasharray:20,10,25,15;"/><path d="M204.396,124.676L177.606,171.077" style="fill:none;stroke:#0e334f;stroke-width:5px;stroke-dasharray:20,10,25,15;"/><path d="M202.337,113.041L225.929,126.662" style="fill:none;stroke:#0e334f;stroke-width:5px;"/></g><g id="nut"><path d="M289.964,78.574L311.881,91.228L311.881,116.536L289.964,129.189L268.047,116.536L268.047,91.228L289.964,78.574ZM289.964,93.273C295.82,93.273 300.573,98.027 300.573,103.882C300.573,109.737 295.82,114.491 289.964,114.491C284.109,114.491 279.355,109.737 279.355,103.882C279.355,98.027 284.109,93.273 289.964,93.273Z" style="fill:#a7daf2;"/><path d="M289.964,129.189L268.047,116.536L268.047,91.228L289.964,78.574L311.881,91.228L311.881,116.536L289.964,129.189ZM289.964,114.491C284.109,114.491 279.355,109.737 279.355,103.882C279.355,98.027 284.109,93.273 289.964,93.273C295.82,93.273 300.573,98.027 300.573,103.882C300.573,109.737 295.82,114.491 289.964,114.491Z" style="fill:none;stroke:#0e334f;stroke-width:5px;stroke-dasharray:100,25,10,25;stroke-dashoffset:50;"/></g></g></svg>